VelekaWorld-BoldItalic.ufo
<glyph name="parenleft" format="2">
  <advance width="423"/>
  <unicode hex="0028"/>
  <outline>
    <contour>
      <point x="472" y="717" type="curve"/>
      <point x="461" y="663" type="line"/>
      <point x="259" y="637"/>
      <point x="192" y="273"/>
      <point x="192" y="97" type="curve" smooth="yes" name="n04"/>
      <point x="192" y="10"/>
      <point x="214" y="-75"/>
      <point x="313" y="-88" type="curve"/>
      <point x="302" y="-142" type="line"/>
      <point x="134" y="-138"/>
      <point x="71" y="-17"/>
      <point x="71" y="136" type="curve" smooth="yes" name="n11"/>
      <point x="71" y="374"/>
      <point x="190" y="709"/>
    </contour>
  </outline>
</glyph>
<glyph name="two" format="2">
  <advance width="598"/>
  <unicode hex="0032"/>
  <outline>
    <contour>
      <point x="577" y="535" type="curve" smooth="yes" name="n00"/>
      <point x="577" y="444"/>
      <point x="509" y="356"/>
      <point x="423" y="280" type="curve" smooth="yes"/>
      <point x="351" y="217"/>
      <point x="257" y="155"/>
      <point x="167" y="93" type="curve"/>
      <point x="422" y="93" type="line" name="n07"/>
      <point x="456" y="176" type="line" name="n08"/>
      <point x="533" y="176" type="line"/>
      <point x="500" y="0" type="line" name="n10"/>
      <point x="-21" y="0" type="line"/>
      <point x="-8" y="71" type="line"/>
      <point x="282" y="274"/>
      <point x="420" y="380"/>
      <point x="420" y="523" type="curve" smooth="yes" name="n15"/>
      <point x="420" y="601"/>
      <point x="370" y="623"/>
      <point x="339" y="623" type="curve" smooth="yes" name="n18"/>
      <point x="310" y="623"/>
      <point x="280" y="610"/>
      <point x="267" y="604" type="curve"/>
      <point x="247" y="500" type="line"/>
      <point x="234" y="492"/>
      <point x="224" y="473"/>
      <point x="179" y="473" type="curve" smooth="yes"/>
      <point x="133" y="473"/>
      <point x="103" y="502"/>
      <point x="103" y="536" type="curve" smooth="yes"/>
      <point x="103" y="628"/>
      <point x="213" y="687"/>
      <point x="371" y="687" type="curve" smooth="yes" name="n31"/>
      <point x="500" y="687"/>
      <point x="577" y="638"/>
    </contour>
  </outline>
</glyph>
<glyph name="eight" format="2">
  <advance width="598"/>
  <unicode hex="0038"/>
  <outline>
    <contour>
      <point x="572" y="543" type="curve" smooth="yes" name="n00"/>
      <point x="572" y="441"/>
      <point x="505" y="393"/>
      <point x="425" y="356" type="curve"/>
      <point x="478" y="332"/>
      <point x="547" y="290" name="hr01"/>
      <point x="547" y="211" type="curve" smooth="yes" name="n06"/>
      <point x="547" y="92"/>
      <point x="431" y="-16"/>
      <point x="249" y="-16" type="curve" smooth="yes" name="n09"/>
      <point x="87" y="-16"/>
      <point x="15" y="57"/>
      <point x="15" y="151" type="curve" smooth="yes" name="n12"/>
      <point x="15" y="214"/>
      <point x="55" y="297"/>
      <point x="182" y="354" type="curve"/>
      <point x="116" y="391"/>
      <point x="103" y="438" name="hr02"/>
      <point x="103" y="476" type="curve" smooth="yes" name="n18"/>
      <point x="103" y="581"/>
      <point x="191" y="687"/>
      <point x="368" y="687" type="curve" smooth="yes" name="n21"/>
      <point x="515" y="687"/>
      <point x="572" y="618"/>
    </contour>
    <contour>
      <point x="435" y="534" type="curve" smooth="yes" name="n24"/>
      <point x="435" y="590"/>
      <point x="415" y="629"/>
      <point x="359" y="629" type="curve" smooth="yes" name="n27"/>
      <point x="311" y="629"/>
      <point x="245" y="576"/>
      <point x="245" y="498" type="curve" smooth="yes" name="n30"/>
      <point x="245" y="450"/>
      <point x="285" y="419"/>
      <point x="349" y="389" type="curve"/>
      <point x="401" y="421"/>
      <point x="435" y="470"/>
    </contour>
    <contour>
      <point x="398" y="184" type="curve" smooth="yes" name="n36"/>
      <point x="398" y="239"/>
      <point x="329" y="280" name="hr03"/>
      <point x="252" y="315" type="curve"/>
      <point x="197" y="282"/>
      <point x="157" y="234"/>
      <point x="157" y="168" type="curve" smooth="yes" name="n42"/>
      <point x="157" y="102"/>
      <point x="188" y="48"/>
      <point x="267" y="48" type="curve" smooth="yes" name="n45"/>
      <point x="326" y="48"/>
      <point x="398" y="110"/>
    </contour>
  </outline>
</glyph>
<glyph name="question" format="2">
  <advance width="535"/>
  <unicode hex="003F"/>
  <outline>
    <contour>
      <point x="513" y="534" type="curve" smooth="yes" name="n00"/>
      <point x="513" y="398"/>
      <point x="371" y="307"/>
      <point x="250" y="283" type="curve"/>
      <point x="233" y="198" type="line"/>
      <point x="165" y="198" type="line"/>
      <point x="191" y="331" type="line"/>
      <point x="285" y="350"/>
      <point x="373" y="431"/>
      <point x="373" y="531" type="curve" smooth="yes" name="n09"/>
      <point x="373" y="598"/>
      <point x="325" y="626"/>
      <point x="264" y="626" type="curve" name="n12"/>
      <point x="205" y="511" type="line" name="n13"/>
      <point x="202" y="509"/>
      <point x="185" y="504"/>
      <point x="183" y="504" type="curve"/>
      <point x="150" y="504"/>
      <point x="107" y="511"/>
      <point x="107" y="553" type="curve" smooth="yes"/>
      <point x="107" y="651"/>
      <point x="241" y="687"/>
      <point x="319" y="687" type="curve" smooth="yes" name="n22"/>
      <point x="415" y="687"/>
      <point x="513" y="643"/>
    </contour>
    <contour>
      <point x="260" y="65" type="curve" smooth="yes" name="n25"/>
      <point x="260" y="21"/>
      <point x="222" y="-12"/>
      <point x="178" y="-12" type="curve" smooth="yes" name="n28"/>
      <point x="134" y="-12"/>
      <point x="102" y="26"/>
      <point x="102" y="69" type="curve" smooth="yes" name="n31"/>
      <point x="102" y="113"/>
      <point x="135" y="149"/>
      <point x="179" y="149" type="curve" smooth="yes" name="n34"/>
      <point x="226" y="149"/>
      <point x="260" y="110"/>
    </contour>
  </outline>
</glyph>
<glyph name="F" format="2">
  <advance width="556"/>
  <unicode hex="0046"/>
  <outline>
    <contour>
      <point x="612" y="671" type="line" name="n00"/>
      <point x="579" y="502" type="line" name="n01"/>
      <point x="498" y="502" type="line"/>
      <point x="498" y="598" type="line" smooth="yes"/>
      <point x="498" y="608"/>
      <point x="486" y="611" name="hr01"/>
      <point x="475" y="611" type="curve" smooth="yes" name="n06"/>
      <point x="316" y="611" type="line"/>
      <point x="269" y="369" type="line" name="n08"/>
      <point x="375" y="369" type="line" smooth="yes" name="n09"/>
      <point x="385" y="369"/>
      <point x="400" y="373"/>
      <point x="403" y="383" type="curve" smooth="yes"/>
      <point x="423" y="455" type="line"/>
      <point x="497" y="455" type="line"/>
      <point x="451" y="219" type="line"/>
      <point x="376" y="219" type="line" name="n16"/>
      <point x="387" y="294" type="line"/>
      <point x="388" y="303"/>
      <point x="374" y="308" name="hr02"/>
      <point x="364" y="308" type="curve" smooth="yes"/>
      <point x="257" y="308" type="line" name="n21"/>
      <point x="210" y="70" type="line"/>
      <point x="208" y="58"/>
      <point x="216" y="56"/>
      <point x="229" y="55" type="curve"/>
      <point x="229" y="55"/>
      <point x="261" y="53"/>
      <point x="294" y="50" type="curve"/>
      <point x="294" y="0" type="line"/>
      <point x="-15" y="0" type="line"/>
      <point x="-15" y="50" type="line"/>
      <point x="12" y="53"/>
      <point x="42" y="55"/>
      <point x="42" y="55" type="curve"/>
      <point x="57" y="56"/>
      <point x="64" y="58"/>
      <point x="67" y="71" type="curve"/>
      <point x="171" y="601" type="line"/>
      <point x="173" y="613"/>
      <point x="165" y="615"/>
      <point x="152" y="616" type="curve"/>
      <point x="152" y="616"/>
      <point x="122" y="618"/>
      <point x="95" y="621" type="curve"/>
      <point x="95" y="671" type="line"/>
    </contour>
  </outline>
</glyph>
<glyph name="G" format="2">
  <advance width="729"/>
  <unicode hex="0047"/>
  <outline>
    <contour>
      <point x="717" y="279" type="line"/>
      <point x="649" y="274" type="line"/>
      <point x="640" y="273"/>
      <point x="637" y="268"/>
      <point x="635" y="259" type="curve" smooth="yes"/>
      <point x="589" y="26" type="line"/>
      <point x="533" y="10"/>
      <point x="438" y="-16"/>
      <point x="353" y="-16" type="curve" smooth="yes" name="n08"/>
      <point x="98" y="-16"/>
      <point x="48" y="163"/>
      <point x="48" y="269" type="curve" smooth="yes" name="n11"/>
      <point x="48" y="518"/>
      <point x="259" y="687"/>
      <point x="500" y="687" type="curve" smooth="yes" name="n14"/>
      <point x="576" y="687"/>
      <point x="626" y="675"/>
      <point x="707" y="650" type="curve"/>
      <point x="670" y="468" type="line"/>
      <point x="585" y="468" type="line"/>
      <point x="594" y="581" type="line" smooth="yes"/>
      <point x="595" y="593"/>
      <point x="582" y="599"/>
      <point x="568" y="604" type="curve"/>
      <point x="555" y="608"/>
      <point x="519" y="623"/>
      <point x="488" y="623" type="curve" smooth="yes" name="n26"/>
      <point x="365" y="623"/>
      <point x="200" y="485"/>
      <point x="200" y="254" type="curve" smooth="yes" name="n29"/>
      <point x="200" y="92"/>
      <point x="327" y="47"/>
      <point x="373" y="47" type="curve" smooth="yes" name="n32"/>
      <point x="399" y="47"/>
      <point x="435" y="56"/>
      <point x="453" y="61" type="curve"/>
      <point x="492" y="259" type="line"/>
      <point x="494" y="271"/>
      <point x="489" y="274"/>
      <point x="473" y="275" type="curve"/>
      <point x="473" y="275"/>
      <point x="444" y="277"/>
      <point x="417" y="279" type="curve"/>
      <point x="417" y="330" type="line"/>
      <point x="717" y="330" type="line"/>
    </contour>
  </outline>
</glyph>
<glyph name="I" format="2">
  <advance width="355"/>
  <unicode hex="0049"/>
  <outline>
    <contour>
      <point x="398" y="621" type="line"/>
      <point x="329" y="616" type="line"/>
      <point x="319" y="615"/>
      <point x="316" y="609"/>
      <point x="314" y="600" type="curve" smooth="yes"/>
      <point x="210" y="70" type="line" smooth="yes"/>
      <point x="208" y="59"/>
      <point x="212" y="56"/>
      <point x="225" y="55" type="curve"/>
      <point x="225" y="55"/>
      <point x="256" y="53"/>
      <point x="288" y="50" type="curve"/>
      <point x="288" y="0" type="line"/>
      <point x="-15" y="0" type="line"/>
      <point x="-15" y="50" type="line"/>
      <point x="14" y="52"/>
      <point x="44" y="54"/>
      <point x="44" y="54" type="curve"/>
      <point x="59" y="55"/>
      <point x="65" y="57"/>
      <point x="67" y="71" type="curve"/>
      <point x="171" y="601" type="line"/>
      <point x="174" y="613"/>
      <point x="166" y="615"/>
      <point x="153" y="616" type="curve"/>
      <point x="153" y="616"/>
      <point x="123" y="618"/>
      <point x="96" y="621" type="curve"/>
      <point x="96" y="671" type="line"/>
      <point x="398" y="671" type="line"/>
    </contour>
  </outline>
</glyph>
<glyph name="N" format="2">
  <advance width="752"/>
  <unicode hex="004E"/>
  <outline>
    <contour>
      <point x="797" y="621" type="line"/>
      <point x="732" y="615" type="line" smooth="yes"/>
      <point x="723" y="614"/>
      <point x="717" y="609"/>
      <point x="715" y="600" type="curve" smooth="yes"/>
      <point x="596" y="0" type="line" name="n05"/>
      <point x="485" y="0" type="line"/>
      <point x="261" y="465" type="line"/>
      <point x="184" y="70" type="line"/>
      <point x="182" y="58"/>
      <point x="188" y="56"/>
      <point x="202" y="55" type="curve"/>
      <point x="202" y="55"/>
      <point x="231" y="53"/>
      <point x="260" y="50" type="curve"/>
      <point x="260" y="0" type="line"/>
      <point x="-14" y="0" type="line"/>
      <point x="-14" y="50" type="line"/>
      <point x="14" y="53"/>
      <point x="43" y="55"/>
      <point x="43" y="55" type="curve"/>
      <point x="57" y="56"/>
      <point x="65" y="58"/>
      <point x="68" y="71" type="curve"/>
      <point x="171" y="601" type="line"/>
      <point x="174" y="613"/>
      <point x="166" y="615"/>
      <point x="153" y="616" type="curve" name="n27"/>
      <point x="153" y="616"/>
      <point x="124" y="618"/>
      <point x="96" y="621" type="curve"/>
      <point x="96" y="671" type="line" name="n31"/>
      <point x="331" y="671" type="line"/>
      <point x="331" y="640" type="line"/>
      <point x="526" y="233" type="line"/>
      <point x="599" y="601" type="line"/>
      <point x="602" y="613"/>
      <point x="592" y="615"/>
      <point x="580" y="616" type="curve"/>
      <point x="580" y="616"/>
      <point x="550" y="618"/>
      <point x="523" y="621" type="curve"/>
      <point x="523" y="671" type="line"/>
      <point x="797" y="671" type="line"/>
    </contour>
  </outline>
</glyph>
<glyph name="O" format="2">
  <advance width="751"/>
  <unicode hex="004F"/>
  <anchor x="440" y="760" name="top"/>
  <outline>
    <contour>
      <point x="733" y="417" type="curve" smooth="yes" name="n00"/>
      <point x="733" y="169.914"/>
      <point x="564.961" y="-16"/>
      <point x="337.508" y="-16" type="curve" smooth="yes" name="n03"/>
      <point x="161.56" y="-16"/>
      <point x="48" y="95.2494"/>
      <point x="48" y="276.271" type="curve" smooth="yes" name="n06"/>
      <point x="48" y="501.75"/>
      <point x="224.187" y="687"/>
      <point x="444.741" y="687" type="curve" smooth="yes" name="n09"/>
      <point x="614.765" y="687"/>
      <point x="733" y="576.91"/>
    </contour>
    <contour>
      <point x="577" y="406.206" type="curve" smooth="yes" name="n12"/>
      <point x="577" y="533.904"/>
      <point x="512.963" y="627"/>
      <point x="432.085" y="627" type="curve" smooth="yes" name="n15"/>
      <point x="318.119" y="627"/>
      <point x="204" y="442.148"/>
      <point x="204" y="268.766" type="curve" smooth="yes" name="n18"/>
      <point x="204" y="139.372"/>
      <point x="267.56" y="46"/>
      <point x="347.46" y="46" type="curve" smooth="yes" name="n21"/>
      <point x="460.919" y="46"/>
      <point x="577" y="234.277"/>
    </contour>
  </outline>
</glyph>
<glyph name="R" format="2">
  <advance width="683"/>
  <unicode hex="0052"/>
  <outline>
    <contour>
      <point x="657" y="3" type="line" name="n00"/>
      <point x="627" y="-10"/>
      <point x="599" y="-16" name="hr01"/>
      <point x="560.306" y="-16" type="curve" smooth="yes" name="n03"/>
      <point x="440" y="-16"/>
      <point x="407.368" y="41.2845"/>
      <point x="389.015" y="143.595" type="curve" smooth="yes"/>
      <point x="370.263" y="248.13"/>
      <point x="339.055" y="292"/>
      <point x="286" y="292" type="curve" smooth="yes"/>
      <point x="254.213" y="292" type="line" name="n10"/>
      <point x="212" y="70" type="line"/>
      <point x="211.932" y="59.712"/>
      <point x="215.004" y="56.0494"/>
      <point x="228" y="55" type="curve" smooth="yes"/>
      <point x="289" y="50" type="line"/>
      <point x="289" y="0" type="line"/>
      <point x="-13" y="0" type="line"/>
      <point x="-13" y="50" type="line"/>
      <point x="46" y="54" type="line" smooth="yes"/>
      <point x="58.0032" y="54.9603"/>
      <point x="66.4786" y="57.8988"/>
      <point x="69" y="71" type="curve" smooth="yes"/>
      <point x="171" y="601" type="line"/>
      <point x="171.065" y="610.289"/>
      <point x="167.002" y="615.025"/>
      <point x="154" y="616" type="curve" smooth="yes"/>
      <point x="96" y="621" type="line"/>
      <point x="96" y="671" type="line"/>
      <point x="385" y="671" type="line" smooth="yes" name="n29"/>
      <point x="519" y="671"/>
      <point x="623" y="632"/>
      <point x="623" y="519.184" type="curve" smooth="yes" name="n32"/>
      <point x="623" y="416"/>
      <point x="536" y="350"/>
      <point x="423" y="317" type="curve"/>
      <point x="484.886" y="288.87"/>
      <point x="506.507" y="256.235"/>
      <point x="529" y="157" type="curve" smooth="yes"/>
      <point x="544.978" y="86.5109"/>
      <point x="556" y="50"/>
      <point x="657" y="50" type="curve" name="n41"/>
    </contour>
    <contour>
      <point x="468" y="492.549" type="curve" smooth="yes" name="n42"/>
      <point x="468" y="596.593"/>
      <point x="383.345" y="613.191"/>
      <point x="347.356" y="613.192" type="curve" name="n45"/>
      <point x="336.986" y="613.192"/>
      <point x="325.872" y="611.79"/>
      <point x="316" y="611" type="curve"/>
      <point x="267" y="352" type="line" name="n49"/>
      <point x="295.328" y="351.833" type="line" smooth="yes"/>
      <point x="398.338" y="351.653"/>
      <point x="468" y="398.167"/>
    </contour>
  </outline>
  <guideline angle="90" name="330_v" x="310" y="0"/>
</glyph>
<glyph name="backslash" format="2">
  <advance width="494"/>
  <unicode hex="005C"/>
  <outline>
    <contour>
      <point x="494" y="-93" type="line" name="n00"/>
      <point x="416" y="-93" type="line"/>
      <point x="0" y="671" type="line" name="n02"/>
      <point x="78" y="671" type="line"/>
    </contour>
  </outline>
</glyph>
<glyph name="underscore" format="2">
  <advance width="341"/>
  <unicode hex="005F"/>
  <outline>
    <contour>
      <point x="278" y="-85" type="line" name="n00"/>
      <point x="262" y="-166" type="line" name="n01"/>
      <point x="-80" y="-166" type="line"/>
      <point x="-63" y="-85" type="line"/>
    </contour>
  </outline>
</glyph>
<glyph name="b" format="2">
  <advance width="532"/>
  <unicode hex="0062"/>
  <outline>
    <contour>
      <point x="501" y="296.432" type="curve" smooth="yes" name="n00"/>
      <point x="501" y="127.817"/>
      <point x="366.053" y="-12"/>
      <point x="191.783" y="-12" type="curve" smooth="yes" name="n03"/>
      <point x="130.582" y="-12"/>
      <point x="68.7201" y="5.24325"/>
      <point x="18" y="38" type="curve"/>
      <point x="135" y="661" type="line"/>
      <point x="47" y="669" type="line"/>
      <point x="47" y="705" type="line"/>
      <point x="216" y="737" type="line" name="n10"/>
      <point x="284" y="737" type="line"/>
      <point x="232" y="468" type="line"/>
      <point x="271.412" y="488.801"/>
      <point x="310.945" y="500"/>
      <point x="343.751" y="500" type="curve" smooth="yes" name="n15"/>
      <point x="434.005" y="500"/>
      <point x="501" y="415.237"/>
    </contour>
    <contour>
      <point x="362" y="309.535" type="curve" smooth="yes" name="n18"/>
      <point x="362" y="379.236"/>
      <point x="339.035" y="424"/>
      <point x="304.324" y="424" type="curve" smooth="yes" name="n21"/>
      <point x="282.918" y="424"/>
      <point x="246.345" y="405.165"/>
      <point x="215" y="378" type="curve"/>
      <point x="159" y="79" type="line"/>
      <point x="173.302" y="56.8967"/>
      <point x="193.815" y="44"/>
      <point x="214.669" y="44" type="curve" smooth="yes" name="n28"/>
      <point x="285.732" y="44"/>
      <point x="362" y="182.514"/>
    </contour>
  </outline>
</glyph>
<glyph name="e" format="2">
  <advance width="479"/>
  <unicode hex="0065"/>
  <anchor x="278" y="570" name="top"/>
  <outline>
    <contour>
      <point x="463" y="393.809" type="curve" smooth="yes" name="n00"/>
      <point x="463" y="306.963"/>
      <point x="339.69" y="233.073"/>
      <point x="175" y="219.417" type="curve"/>
      <point x="173.11" y="208.285"/>
      <point x="172" y="192.134"/>
      <point x="172" y="175.773" type="curve" smooth="yes" name="n06"/>
      <point x="172" y="98.4839"/>
      <point x="197.781" y="58"/>
      <point x="249.336" y="58" type="curve" smooth="yes" name="n09"/>
      <point x="285.685" y="58"/>
      <point x="316.19" y="78.1253"/>
      <point x="440" y="185.329" type="curve"/>
      <point x="440" y="90.0829" type="line"/>
      <point x="378.188" y="29.7243"/>
      <point x="282.986" y="-12"/>
      <point x="201.765" y="-12" type="curve" smooth="yes" name="n16"/>
      <point x="98.3662" y="-12"/>
      <point x="33" y="55.6219"/>
      <point x="33" y="174.936" type="curve" smooth="yes" name="n19"/>
      <point x="33" y="344.727"/>
      <point x="165.373" y="500"/>
      <point x="319.042" y="500" type="curve" smooth="yes" name="n22"/>
      <point x="401.756" y="500"/>
      <point x="463" y="455.013"/>
    </contour>
    <contour>
      <point x="333" y="403.257" type="curve" smooth="yes" name="n25"/>
      <point x="333" y="429.486"/>
      <point x="319.992" y="445"/>
      <point x="298" y="445" type="curve" smooth="yes" name="n28"/>
      <point x="251.526" y="445"/>
      <point x="209.03" y="381.459"/>
      <point x="182" y="271.552" type="curve"/>
      <point x="269.287" y="291.845"/>
      <point x="333" y="347.417"/>
    </contour>
  </outline>
</glyph>
<glyph name="p" format="2">
  <advance width="541"/>
  <unicode hex="0070"/>
  <outline>
    <contour>
      <point x="509" y="304.507" type="curve" smooth="yes" name="n00"/>
      <point x="509" y="131.444"/>
      <point x="371.216" y="-12"/>
      <point x="204.983" y="-12" type="curve" smooth="yes" name="n03"/>
      <point x="181.746" y="-12"/>
      <point x="161.27" y="-9.314"/>
      <point x="144" y="-4" type="curve"/>
      <point x="114" y="-152" type="line"/>
      <point x="113.619" y="-155.349" type="line" smooth="yes"/>
      <point x="112.759" y="-162.909"/>
      <point x="119.749" y="-168"/>
      <point x="129" y="-168" type="curve"/>
      <point x="198" y="-174" type="line"/>
      <point x="198" y="-219" type="line"/>
      <point x="-96" y="-219" type="line"/>
      <point x="-96" y="-174" type="line"/>
      <point x="-36" y="-169" type="line" smooth="yes"/>
      <point x="-27.0976" y="-168.258"/>
      <point x="-21.0284" y="-162.339"/>
      <point x="-19" y="-152" type="curve" smooth="yes"/>
      <point x="94" y="424" type="line"/>
      <point x="11" y="433" type="line"/>
      <point x="11" y="467" type="line"/>
      <point x="176" y="500" type="line"/>
      <point x="243" y="500" type="line"/>
      <point x="236" y="463" type="line"/>
      <point x="277.557" y="486.747"/>
      <point x="320.541" y="500"/>
      <point x="357.076" y="500" type="curve" smooth="yes" name="n28"/>
      <point x="446.651" y="500"/>
      <point x="509" y="420.334"/>
    </contour>
    <contour>
      <point x="369" y="307" type="curve" smooth="yes" name="n31"/>
      <point x="369" y="388.489"/>
      <point x="350.864" y="430"/>
      <point x="315.261" y="430" type="curve" smooth="yes" name="n34"/>
      <point x="292.087" y="430"/>
      <point x="257.345" y="410.511"/>
      <point x="219" y="376" type="curve"/>
      <point x="158" y="68" type="line"/>
      <point x="174" y="58"/>
      <point x="201" y="41"/>
      <point x="226.754" y="41" type="curve" smooth="yes" name="n41"/>
      <point x="296.16" y="41"/>
      <point x="369" y="177.21"/>
    </contour>
  </outline>
</glyph>
<glyph name="r" format="2">
  <advance width="418"/>
  <unicode hex="0072"/>
  <outline>
    <contour>
      <point x="456" y="429" type="curve" smooth="yes"/>
      <point x="456" y="383"/>
      <point x="429" y="360"/>
      <point x="361" y="360" type="curve" name="n03"/>
      <point x="334" y="414" type="line"/>
      <point x="271" y="383"/>
      <point x="219" y="324"/>
      <point x="207" y="264" type="curve" smooth="yes"/>
      <point x="151" y="0" type="line" name="n08"/>
      <point x="18" y="0" type="line"/>
      <point x="106" y="423" type="line"/>
      <point x="22" y="432" type="line"/>
      <point x="22" y="467" type="line"/>
      <point x="188" y="500" type="line"/>
      <point x="257" y="500" type="line"/>
      <point x="244" y="433" type="line"/>
      <point x="280" y="470"/>
      <point x="330" y="500"/>
      <point x="380" y="500" type="curve" smooth="yes" name="n18"/>
      <point x="432" y="500"/>
      <point x="456" y="458"/>
    </contour>
  </outline>
</glyph>
<glyph name="braceleft" format="2">
  <advance width="495"/>
  <unicode hex="007B"/>
  <outline>
    <contour>
      <point x="509" y="706" type="curve" name="n00"/>
      <point x="499" y="651" type="line" name="n01"/>
      <point x="499" y="651"/>
      <point x="435" y="654"/>
      <point x="398" y="624" type="curve" smooth="yes"/>
      <point x="327" y="565"/>
      <point x="367" y="413"/>
      <point x="270" y="336" type="curve" smooth="yes"/>
      <point x="220" y="295"/>
      <point x="166" y="292"/>
      <point x="155" y="292" type="curve"/>
      <point x="166" y="292"/>
      <point x="218" y="287"/>
      <point x="252" y="247" type="curve" smooth="yes"/>
      <point x="319" y="169"/>
      <point x="218" y="19"/>
      <point x="267" y="-40" type="curve" smooth="yes"/>
      <point x="292" y="-70"/>
      <point x="356" y="-67"/>
      <point x="356" y="-67" type="curve"/>
      <point x="345" y="-122" type="line" name="n20"/>
      <point x="322" y="-122"/>
      <point x="197" y="-126"/>
      <point x="156" y="-81" type="curve" smooth="yes"/>
      <point x="81" y="0"/>
      <point x="192" y="175"/>
      <point x="145" y="234" type="curve" smooth="yes"/>
      <point x="114" y="273"/>
      <point x="41" y="262"/>
      <point x="41" y="262" type="curve" name="n29"/>
      <point x="52" y="322" type="line" name="n30"/>
      <point x="52" y="322"/>
      <point x="121" y="310"/>
      <point x="167" y="349" type="curve" smooth="yes"/>
      <point x="237" y="408"/>
      <point x="197" y="584"/>
      <point x="304" y="665" type="curve" smooth="yes"/>
      <point x="363" y="710"/>
      <point x="486" y="706"/>
    </contour>
  </outline>
</glyph>
<glyph name="bar" format="2">
  <advance width="397"/>
  <unicode hex="007C"/>
  <outline>
    <contour>
      <point x="242" y="-258" type="line" name="n00"/>
      <point x="156" y="-258" type="line" name="n01"/>
      <point x="156" y="796" type="line" name="n02"/>
      <point x="242" y="796" type="line"/>
    </contour>
  </outline>
</glyph>
<glyph name="braceright" format="2">
  <advance width="495"/>
  <unicode hex="007D"/>
  <outline>
    <contour>
      <point x="465" y="322" type="curve" name="n00"/>
      <point x="454" y="262" type="line" name="n01"/>
      <point x="454" y="262"/>
      <point x="385" y="273"/>
      <point x="338" y="234" type="curve" smooth="yes"/>
      <point x="268" y="174"/>
      <point x="309" y="0"/>
      <point x="203" y="-81" type="curve" smooth="yes"/>
      <point x="144" y="-126"/>
      <point x="20" y="-122"/>
      <point x="-3" y="-122" type="curve" name="n10"/>
      <point x="8" y="-67" type="line" name="n11"/>
      <point x="8" y="-67"/>
      <point x="71" y="-70"/>
      <point x="108" y="-40" type="curve" smooth="yes"/>
      <point x="179" y="18"/>
      <point x="138" y="169"/>
      <point x="235" y="247" type="curve" smooth="yes"/>
      <point x="284" y="286"/>
      <point x="337" y="291"/>
      <point x="350" y="292" type="curve"/>
      <point x="341" y="292"/>
      <point x="288" y="295"/>
      <point x="253" y="336" type="curve" smooth="yes"/>
      <point x="186" y="414"/>
      <point x="287" y="566"/>
      <point x="239" y="624" type="curve" smooth="yes"/>
      <point x="215" y="654"/>
      <point x="150" y="651"/>
      <point x="150" y="651" type="curve"/>
      <point x="161" y="706" type="line" name="n30"/>
      <point x="184" y="706"/>
      <point x="309" y="710"/>
      <point x="351" y="665" type="curve" smooth="yes"/>
      <point x="425" y="584"/>
      <point x="314" y="408"/>
      <point x="361" y="349" type="curve" smooth="yes"/>
      <point x="392" y="310"/>
      <point x="465" y="322"/>
    </contour>
  </outline>
</glyph>
<glyph name="asciitilde" format="2">
  <advance width="833"/>
  <unicode hex="007E"/>
  <outline>
    <contour>
      <point x="747" y="300" type="line"/>
      <point x="666" y="242"/>
      <point x="611" y="224"/>
      <point x="557.297" y="224" type="curve" smooth="yes" name="n03"/>
      <point x="506.951" y="224"/>
      <point x="461.762" y="240.192"/>
      <point x="415.224" y="257.371" type="curve" smooth="yes"/>
      <point x="369.733" y="274.164"/>
      <point x="324.126" y="291" name="hr01"/>
      <point x="282.153" y="291" type="curve" smooth="yes" name="n09"/>
      <point x="229" y="291"/>
      <point x="169" y="264"/>
      <point x="86" y="201" type="curve"/>
      <point x="86" y="296" type="line"/>
      <point x="161" y="353"/>
      <point x="227" y="373"/>
      <point x="281" y="373" type="curve" smooth="yes" name="n16"/>
      <point x="331.377" y="373"/>
      <point x="378.1" y="355.736"/>
      <point x="424.581" y="338.316" type="curve" smooth="yes"/>
      <point x="468.194" y="321.97"/>
      <point x="510.785" y="306" name="hr02"/>
      <point x="553.088" y="306" type="curve" smooth="yes" name="n22"/>
      <point x="598" y="306"/>
      <point x="652" y="324"/>
      <point x="747" y="395" type="curve"/>
    </contour>
  </outline>
</glyph>
<glyph name="sterling" format="2">
  <advance width="598"/>
  <unicode hex="00A3"/>
  <outline>
    <contour>
      <point x="612" y="605" type="curve" smooth="yes"/>
      <point x="612" y="554"/>
      <point x="576" y="530"/>
      <point x="513" y="521" type="curve"/>
      <point x="470" y="621" type="line" name="n04"/>
      <point x="341" y="613"/>
      <point x="319" y="409"/>
      <point x="310" y="358" type="curve"/>
      <point x="492" y="358" type="line" name="n08"/>
      <point x="492" y="298" type="line" name="n09"/>
      <point x="297" y="298" type="line"/>
      <point x="281" y="212"/>
      <point x="234" y="135"/>
      <point x="155" y="78" type="curve"/>
      <point x="183" y="86"/>
      <point x="216" y="89"/>
      <point x="239" y="89" type="curve" smooth="yes"/>
      <point x="521" y="89" type="line" name="n17"/>
      <point x="521" y="0" type="line" name="n18"/>
      <point x="-3" y="0" type="line"/>
      <point x="-3" y="66" type="line"/>
      <point x="60" y="79"/>
      <point x="95" y="109"/>
      <point x="118" y="153" type="curve" smooth="yes"/>
      <point x="142" y="201"/>
      <point x="149" y="250"/>
      <point x="158" y="298" type="curve"/>
      <point x="89" y="298" type="line"/>
      <point x="89" y="358" type="line"/>
      <point x="167" y="358" type="line"/>
      <point x="174" y="433"/>
      <point x="232" y="687"/>
      <point x="467" y="687" type="curve" smooth="yes" name="n32"/>
      <point x="535" y="687"/>
      <point x="612" y="662"/>
    </contour>
  </outline>
</glyph>
<glyph name="ordfeminine" format="2">
  <advance width="369"/>
  <unicode hex="00AA"/>
  <outline>
    <contour>
      <point x="421" y="401" type="line"/>
      <point x="391" y="390"/>
      <point x="355" y="376"/>
      <point x="322" y="376" type="curve" smooth="yes"/>
      <point x="294" y="376"/>
      <point x="275" y="385"/>
      <point x="267" y="403" type="curve"/>
      <point x="244" y="389"/>
      <point x="213" y="376"/>
      <point x="183" y="376" type="curve" smooth="yes" name="n09"/>
      <point x="102" y="376"/>
      <point x="74" y="441"/>
      <point x="74" y="485" type="curve" smooth="yes" name="n12"/>
      <point x="74" y="575"/>
      <point x="137" y="683"/>
      <point x="277" y="683" type="curve" smooth="yes" name="n15"/>
      <point x="296" y="683"/>
      <point x="316" y="677"/>
      <point x="331" y="670" type="curve"/>
      <point x="335" y="675" type="line" name="n19"/>
      <point x="405" y="675" type="line"/>
      <point x="400" y="663"/>
      <point x="390" y="644"/>
      <point x="388" y="639" type="curve"/>
      <point x="384.616" y="623.047"/>
      <point x="348.77" y="454.058"/>
      <point x="346" y="441" type="curve" name="n26"/>
      <point x="346" y="423"/>
      <point x="348" y="417"/>
      <point x="364" y="417" type="curve" smooth="yes" name="n29"/>
      <point x="367" y="417"/>
      <point x="414" y="428"/>
      <point x="421" y="430" type="curve"/>
    </contour>
    <contour>
      <point x="365" y="347" type="line" name="n33"/>
      <point x="355" y="298" type="line" name="n34"/>
      <point x="41" y="298" type="line"/>
      <point x="51" y="347" type="line"/>
    </contour>
    <contour>
      <point x="297" y="619" type="curve"/>
      <point x="298" y="623"/>
      <point x="294" y="648"/>
      <point x="287" y="648" type="curve" smooth="yes" name="n40"/>
      <point x="203" y="648"/>
      <point x="166" y="558"/>
      <point x="166" y="489" type="curve" smooth="yes" name="n43"/>
      <point x="166" y="457"/>
      <point x="164" y="421"/>
      <point x="204" y="421" type="curve" smooth="yes" name="n46"/>
      <point x="231" y="421"/>
      <point x="254" y="448"/>
      <point x="263" y="456" type="curve"/>
      <point x="273" y="503"/>
      <point x="267" y="472"/>
    </contour>
  </outline>
</glyph>
<glyph name="onequarter" format="2">
  <advance width="907"/>
  <unicode hex="00BC"/>
  <outline>
    <contour>
      <point x="842" y="156" type="line" name="n00"/>
      <point x="833" y="107" type="line" name="n01"/>
      <point x="760" y="107" type="line"/>
      <point x="735" y="-18" type="line" name="n03"/>
      <point x="652" y="-18" type="line"/>
      <point x="677" y="107" type="line" name="hr02"/>
      <point x="476" y="107" type="line"/>
      <point x="486" y="158" type="line"/>
      <point x="749" y="406" type="line"/>
      <point x="819" y="406" type="line"/>
      <point x="770" y="156" type="line"/>
    </contour>
    <contour>
      <point x="805" y="695" type="line"/>
      <point x="225" y="0" type="line" name="n12"/>
      <point x="152" y="0" type="line"/>
      <point x="731" y="695" type="line"/>
    </contour>
    <contour>
      <point x="327" y="708" type="line" name="n15"/>
      <point x="249" y="341" type="line"/>
      <point x="248" y="337"/>
      <point x="254" y="334"/>
      <point x="261" y="333" type="curve"/>
      <point x="310" y="329" type="line"/>
      <point x="310" y="296" type="line"/>
      <point x="79" y="296" type="line"/>
      <point x="79" y="329" type="line"/>
      <point x="145" y="333" type="line"/>
      <point x="151" y="333"/>
      <point x="156" y="338"/>
      <point x="157" y="342" type="curve"/>
      <point x="221" y="646" type="line"/>
      <point x="121" y="633" type="line"/>
      <point x="121" y="667" type="line"/>
      <point x="283" y="708" type="line"/>
    </contour>
    <contour>
      <point x="719" y="319" type="line"/>
      <point x="548" y="156" type="line"/>
      <point x="687" y="156" type="line" name="n34"/>
    </contour>
  </outline>
</glyph>
<glyph name="onehalf" format="2">
  <advance width="907"/>
  <unicode hex="00BD"/>
  <outline>
    <contour>
      <point x="857" y="316" type="curve" smooth="yes" name="n00"/>
      <point x="857" y="202"/>
      <point x="675" y="110"/>
      <point x="589" y="64" type="curve"/>
      <point x="769" y="64" type="line" name="n04"/>
      <point x="790" y="118" type="line"/>
      <point x="833" y="118" type="line"/>
      <point x="810" y="0" type="line" name="n07"/>
      <point x="492" y="0" type="line"/>
      <point x="501" y="50" type="line"/>
      <point x="583" y="104"/>
      <point x="759" y="197"/>
      <point x="759" y="309" type="curve" smooth="yes" name="n12"/>
      <point x="759" y="347"/>
      <point x="734" y="370"/>
      <point x="696" y="370" type="curve" smooth="yes" name="n15"/>
      <point x="683" y="370"/>
      <point x="673" y="367"/>
      <point x="661" y="364" type="curve"/>
      <point x="645" y="283" type="line"/>
      <point x="631" y="277"/>
      <point x="614" y="272"/>
      <point x="599" y="272" type="curve" smooth="yes"/>
      <point x="577" y="272"/>
      <point x="557" y="281"/>
      <point x="557" y="306" type="curve" smooth="yes"/>
      <point x="557" y="385"/>
      <point x="672" y="410"/>
      <point x="733" y="410" type="curve" smooth="yes" name="n28"/>
      <point x="792" y="410"/>
      <point x="857" y="385"/>
    </contour>
    <contour>
      <point x="782" y="695" type="line"/>
      <point x="203" y="0" type="line"/>
      <point x="130" y="0" type="line"/>
      <point x="709" y="695" type="line"/>
    </contour>
    <contour>
      <point x="327" y="708" type="line" name="n35"/>
      <point x="249" y="341" type="line"/>
      <point x="248" y="337"/>
      <point x="254" y="334"/>
      <point x="261" y="333" type="curve"/>
      <point x="310" y="329" type="line"/>
      <point x="310" y="296" type="line"/>
      <point x="79" y="296" type="line"/>
      <point x="79" y="329" type="line"/>
      <point x="145" y="333" type="line"/>
      <point x="151" y="333"/>
      <point x="156" y="338"/>
      <point x="157" y="342" type="curve"/>
      <point x="221" y="646" type="line"/>
      <point x="121" y="633" type="line"/>
      <point x="121" y="667" type="line"/>
      <point x="283" y="708" type="line"/>
    </contour>
  </outline>
</glyph>
<glyph name="threequarters" format="2">
  <advance width="907"/>
  <unicode hex="00BE"/>
  <outline>
    <contour>
      <point x="851" y="156" type="line" name="n00"/>
      <point x="841" y="107" type="line" name="n01"/>
      <point x="768" y="107" type="line"/>
      <point x="743" y="-18" type="line" name="n03"/>
      <point x="660" y="-18" type="line"/>
      <point x="685" y="107" type="line" name="hr02"/>
      <point x="485" y="107" type="line"/>
      <point x="495" y="158" type="line"/>
      <point x="757" y="406" type="line"/>
      <point x="827" y="406" type="line"/>
      <point x="777" y="156" type="line"/>
    </contour>
    <contour>
      <point x="812" y="695" type="line"/>
      <point x="233" y="0" type="line" name="n12"/>
      <point x="160" y="0" type="line"/>
      <point x="739" y="695" type="line"/>
    </contour>
    <contour>
      <point x="406" y="622" type="curve" smooth="yes" name="n15"/>
      <point x="406" y="554"/>
      <point x="335" y="513"/>
      <point x="274" y="507" type="curve"/>
      <point x="321" y="507"/>
      <point x="384" y="487" name="hr03"/>
      <point x="384" y="430" type="curve" smooth="yes" name="n21"/>
      <point x="384" y="329"/>
      <point x="257" y="289"/>
      <point x="175" y="289" type="curve" smooth="yes" name="n24"/>
      <point x="135" y="289"/>
      <point x="56" y="303"/>
      <point x="56" y="357" type="curve" smooth="yes"/>
      <point x="56" y="389"/>
      <point x="82" y="408" name="hr04"/>
      <point x="112" y="408" type="curve" smooth="yes" name="n30"/>
      <point x="121" y="408"/>
      <point x="130" y="406"/>
      <point x="138" y="402" type="curve"/>
      <point x="146" y="334" type="line"/>
      <point x="160" y="330"/>
      <point x="174" y="326" name="hr05"/>
      <point x="188" y="326" type="curve" smooth="yes" name="n37"/>
      <point x="239" y="326"/>
      <point x="288" y="370"/>
      <point x="288" y="421" type="curve" smooth="yes" name="n40"/>
      <point x="288" y="484"/>
      <point x="215" y="483"/>
      <point x="170" y="477" type="curve"/>
      <point x="179" y="522" type="line" name="n44"/>
      <point x="239" y="518"/>
      <point x="310" y="535"/>
      <point x="310" y="609" type="curve" smooth="yes" name="n47"/>
      <point x="310" y="647"/>
      <point x="276" y="665"/>
      <point x="242" y="665" type="curve" smooth="yes" name="n50"/>
      <point x="231" y="665"/>
      <point x="221" y="663"/>
      <point x="210" y="660" type="curve"/>
      <point x="196" y="586" type="line"/>
      <point x="184" y="580"/>
      <point x="172" y="578"/>
      <point x="160" y="578" type="curve" smooth="yes"/>
      <point x="138" y="578"/>
      <point x="116" y="587"/>
      <point x="116" y="612" type="curve" smooth="yes"/>
      <point x="116" y="681"/>
      <point x="227" y="705"/>
      <point x="279" y="705" type="curve" smooth="yes" name="n63"/>
      <point x="332" y="705"/>
      <point x="406" y="687"/>
    </contour>
    <contour>
      <point x="727" y="319" type="line"/>
      <point x="557" y="156" type="line"/>
      <point x="694" y="156" type="line" name="n68"/>
    </contour>
  </outline>
</glyph>
<glyph name="AE" format="2">
  <advance width="978"/>
  <unicode hex="00C6"/>
  <outline>
    <contour>
      <point x="1015" y="671" type="line" name="n00"/>
      <point x="984" y="513" type="line" name="n01"/>
      <point x="903" y="513" type="line"/>
      <point x="903" y="598" type="line" smooth="yes"/>
      <point x="903" y="608"/>
      <point x="891" y="611" name="hr01"/>
      <point x="880" y="611" type="curve" smooth="yes" name="n06"/>
      <point x="705" y="611" type="line"/>
      <point x="659" y="379" type="line" name="n08"/>
      <point x="763" y="379" type="line" smooth="yes" name="n09"/>
      <point x="773" y="379"/>
      <point x="788" y="384"/>
      <point x="791" y="394" type="curve" smooth="yes"/>
      <point x="811" y="464" type="line"/>
      <point x="885" y="464" type="line"/>
      <point x="838" y="229" type="line"/>
      <point x="765" y="229" type="line" name="n16"/>
      <point x="777" y="304" type="line"/>
      <point x="777" y="313.107"/>
      <point x="773.05" y="317" name="hr02"/>
      <point x="763.808" y="317" type="curve" smooth="yes"/>
      <point x="647" y="317" type="line" name="n21"/>
      <point x="596" y="60" type="line"/>
      <point x="801" y="60" type="line" smooth="yes" name="n23"/>
      <point x="810" y="60"/>
      <point x="826.396" y="65.8625"/>
      <point x="829" y="74" type="curve" smooth="yes"/>
      <point x="861" y="174" type="line" name="n27"/>
      <point x="939" y="174" type="line"/>
      <point x="905" y="0" type="line" name="n29"/>
      <point x="375" y="0" type="line"/>
      <point x="375" y="50" type="line"/>
      <point x="428.438" y="53.3706" type="line" smooth="yes"/>
      <point x="444.418" y="54.3785"/>
      <point x="452.792" y="60.51" name="hr04"/>
      <point x="455" y="71" type="curve" smooth="yes"/>
      <point x="491" y="250" type="line" name="n36"/>
      <point x="295" y="250" type="line"/>
      <point x="152.691" y="79.993" type="line" smooth="yes"/>
      <point x="149.689" y="76.4064"/>
      <point x="148.396" y="72.3048"/>
      <point x="148.467" y="68.4736" type="curve" smooth="yes"/>
      <point x="148.594" y="61.6048"/>
      <point x="153.103" y="55.605"/>
      <point x="160" y="55" type="curve" smooth="yes"/>
      <point x="217" y="50" type="line"/>
      <point x="217" y="0" type="line"/>
      <point x="-53" y="0" type="line"/>
      <point x="-53" y="50" type="line"/>
      <point x="-6" y="54" type="line" smooth="yes"/>
      <point x="6" y="55"/>
      <point x="8" y="57"/>
      <point x="20" y="72" type="curve" smooth="yes"/>
      <point x="460" y="601" type="line" smooth="yes"/>
      <point x="462.154" y="603.59"/>
      <point x="463.362" y="606.566"/>
      <point x="463.311" y="609.161" type="curve" smooth="yes"/>
      <point x="463.24" y="612.852"/>
      <point x="460.376" y="615.212"/>
      <point x="454.85" y="616.133" type="curve"/>
      <point x="400" y="621" type="line"/>
      <point x="400" y="671" type="line"/>
    </contour>
    <contour>
      <point x="590.423" y="603.624" type="line"/>
      <point x="346" y="312" type="line"/>
      <point x="503" y="312" type="line" name="n64"/>
      <point x="561.486" y="603.597" type="line"/>
    </contour>
  </outline>
</glyph>
<glyph name="Thorn" format="2">
  <advance width="607"/>
  <unicode hex="00DE"/>
  <outline>
    <contour>
      <point x="587" y="384" type="curve" smooth="yes" name="n00"/>
      <point x="587" y="229"/>
      <point x="462" y="123"/>
      <point x="262" y="123" type="curve" smooth="yes"/>
      <point x="251" y="123"/>
      <point x="233" y="124"/>
      <point x="218" y="124" type="curve"/>
      <point x="208" y="70" type="line" smooth="yes"/>
      <point x="206" y="58"/>
      <point x="215" y="56"/>
      <point x="227" y="55" type="curve"/>
      <point x="227" y="55"/>
      <point x="257" y="53"/>
      <point x="285" y="50" type="curve"/>
      <point x="285" y="0" type="line" name="n14"/>
      <point x="-17" y="0" type="line"/>
      <point x="-17" y="50" type="line"/>
      <point x="14" y="53"/>
      <point x="45" y="55"/>
      <point x="45" y="55" type="curve"/>
      <point x="58" y="56"/>
      <point x="63" y="59"/>
      <point x="65" y="71" type="curve"/>
      <point x="170" y="601" type="line"/>
      <point x="172" y="613"/>
      <point x="167" y="615"/>
      <point x="150" y="616" type="curve"/>
      <point x="150" y="616"/>
      <point x="121" y="618"/>
      <point x="94" y="621" type="curve"/>
      <point x="94" y="671" type="line"/>
      <point x="394" y="671" type="line" name="n31"/>
      <point x="394" y="621" type="line"/>
      <point x="362" y="618"/>
      <point x="332" y="616"/>
      <point x="332" y="616" type="curve"/>
      <point x="321" y="615"/>
      <point x="314" y="612"/>
      <point x="312" y="600" type="curve" smooth="yes"/>
      <point x="302" y="547" type="line" name="n39"/>
      <point x="339" y="547" type="line" smooth="yes"/>
      <point x="528" y="547"/>
      <point x="587" y="474"/>
    </contour>
    <contour>
      <point x="441" y="368" type="curve" smooth="yes" name="n43"/>
      <point x="441" y="447"/>
      <point x="389" y="491"/>
      <point x="322" y="491" type="curve" smooth="yes" name="n46"/>
      <point x="317" y="491"/>
      <point x="296" y="491"/>
      <point x="291" y="490" type="curve"/>
      <point x="230" y="185" type="line"/>
      <point x="269" y="183"/>
      <point x="314" y="190"/>
      <point x="355" y="214" type="curve" smooth="yes"/>
      <point x="403" y="243"/>
      <point x="441" y="292"/>
    </contour>
  </outline>
</glyph>
<glyph name="eth" format="2">
  <advance width="546"/>
  <unicode hex="00F0"/>
  <outline>
    <contour>
      <point x="527" y="652" type="line"/>
      <point x="415" y="607" type="line"/>
      <point x="461" y="525"/>
      <point x="509" y="399"/>
      <point x="509" y="295" type="curve" smooth="yes" name="n04"/>
      <point x="509" y="182"/>
      <point x="449" y="-12"/>
      <point x="231" y="-12" type="curve" smooth="yes" name="n07"/>
      <point x="100" y="-12"/>
      <point x="32" y="68"/>
      <point x="32" y="182" type="curve" smooth="yes" name="n10"/>
      <point x="32" y="340"/>
      <point x="133" y="497"/>
      <point x="310" y="497" type="curve" smooth="yes" name="n13"/>
      <point x="316" y="497"/>
      <point x="323" y="496"/>
      <point x="330" y="495" type="curve"/>
      <point x="320" y="519"/>
      <point x="308" y="545"/>
      <point x="300" y="563" type="curve"/>
      <point x="159" y="507" type="line"/>
      <point x="134" y="567" type="line"/>
      <point x="265" y="617" type="line"/>
      <point x="233" y="662" type="line"/>
      <point x="154" y="682" type="line"/>
      <point x="158" y="716" type="line"/>
      <point x="324" y="740" type="line"/>
      <point x="379" y="662" type="line"/>
      <point x="500" y="709" type="line"/>
    </contour>
    <contour>
      <point x="370" y="292" type="curve" smooth="yes" name="n29"/>
      <point x="370" y="354"/>
      <point x="363" y="393"/>
      <point x="350" y="433" type="curve"/>
      <point x="343" y="439"/>
      <point x="336" y="445"/>
      <point x="321" y="445" type="curve" smooth="yes" name="n35"/>
      <point x="228" y="445"/>
      <point x="174" y="303"/>
      <point x="174" y="186" type="curve" smooth="yes" name="n38"/>
      <point x="174" y="78"/>
      <point x="225" y="43"/>
      <point x="243" y="43" type="curve" smooth="yes" name="n41"/>
      <point x="313" y="43"/>
      <point x="370" y="170"/>
    </contour>
  </outline>
</glyph>
<glyph name="dcaron" format="2">
  <advance width="746"/>
  <unicode hex="010F"/>
  <outline>
    <contour>
      <point x="570" y="737" type="line"/>
      <point x="455" y="90" type="line" smooth="yes"/>
      <point x="449" y="57"/>
      <point x="463" y="49"/>
      <point x="471" y="49" type="curve" smooth="yes"/>
      <point x="499" y="49"/>
      <point x="542" y="68"/>
      <point x="564" y="79" type="curve"/>
      <point x="564" y="30" type="line"/>
      <point x="530" y="10"/>
      <point x="464" y="-12"/>
      <point x="412" y="-12" type="curve" smooth="yes"/>
      <point x="362" y="-12"/>
      <point x="333" y="6"/>
      <point x="322" y="36" type="curve"/>
      <point x="286" y="9"/>
      <point x="239" y="-12"/>
      <point x="196" y="-12" type="curve" smooth="yes" name="n17"/>
      <point x="80" y="-12"/>
      <point x="32" y="83"/>
      <point x="32" y="169" type="curve" smooth="yes" name="n20"/>
      <point x="32" y="322"/>
      <point x="133" y="500"/>
      <point x="335" y="500" type="curve" smooth="yes" name="n23"/>
      <point x="360" y="500"/>
      <point x="380" y="492"/>
      <point x="393" y="488" type="curve"/>
      <point x="423" y="661" type="line"/>
      <point x="333" y="669" type="line"/>
      <point x="333" y="705" type="line"/>
      <point x="502" y="737" type="line"/>
    </contour>
    <contour>
      <point x="376" y="394" type="line" smooth="yes"/>
      <point x="377" y="399"/>
      <point x="357" y="443"/>
      <point x="333" y="443" type="curve" smooth="yes" name="n34"/>
      <point x="263" y="443"/>
      <point x="170" y="334"/>
      <point x="170" y="175" type="curve" smooth="yes" name="n37"/>
      <point x="170" y="94"/>
      <point x="190" y="59"/>
      <point x="227" y="59" type="curve" smooth="yes" name="n40"/>
      <point x="261" y="59"/>
      <point x="296" y="96"/>
      <point x="330" y="135" type="curve"/>
    </contour>
    <contour>
      <point x="766" y="700" type="curve" smooth="yes" name="n44"/>
      <point x="766" y="616"/>
      <point x="667" y="564"/>
      <point x="596" y="551" type="curve"/>
      <point x="604" y="591" type="line"/>
      <point x="637" y="600"/>
      <point x="682" y="628"/>
      <point x="690" y="665" type="curve" name="n51"/>
      <point x="627" y="665" type="line"/>
      <point x="618" y="674"/>
      <point x="614" y="686"/>
      <point x="614" y="698" type="curve" smooth="yes" name="n55"/>
      <point x="614" y="742"/>
      <point x="655" y="767"/>
      <point x="694" y="767" type="curve" smooth="yes" name="n58"/>
      <point x="735" y="767"/>
      <point x="766" y="742"/>
    </contour>
  </outline>
</glyph>
<glyph name="jcircumflex" format="2">
  <advance width="317"/>
  <unicode hex="0135"/>
  <outline>
    <contour>
      <point x="275" y="500" type="line" name="n00"/>
      <point x="204" y="84" type="line"/>
      <point x="186" y="-17"/>
      <point x="96" y="-229" name="n03"/>
      <point x="-42" y="-229" type="curve" smooth="yes"/>
      <point x="-89" y="-229"/>
      <point x="-129" y="-204"/>
      <point x="-129" y="-171" type="curve" smooth="yes"/>
      <point x="-129" y="-146"/>
      <point x="-111" y="-132"/>
      <point x="-88" y="-117" type="curve"/>
      <point x="7" y="-142" type="line"/>
      <point x="25" y="-114"/>
      <point x="46" y="-55"/>
      <point x="55" y="-6" type="curve" smooth="yes"/>
      <point x="129" y="422" type="line"/>
      <point x="43" y="431" type="line"/>
      <point x="43" y="467" type="line"/>
      <point x="209" y="500" type="line"/>
    </contour>
    <contour>
      <point x="425" y="551" type="line"/>
      <point x="341" y="551" type="line"/>
      <point x="274" y="646" type="line"/>
      <point x="168" y="551" type="line"/>
      <point x="85" y="551" type="line"/>
      <point x="230" y="722" type="line" name="n24"/>
      <point x="348" y="722" type="line"/>
    </contour>
  </outline>
</glyph>
<glyph name="lcaron" format="2">
  <advance width="475"/>
  <unicode hex="013E"/>
  <outline>
    <contour>
      <point x="304" y="29" type="line"/>
      <point x="256" y="4"/>
      <point x="196" y="-12"/>
      <point x="144" y="-12" type="curve" smooth="yes" name="n03"/>
      <point x="78" y="-12"/>
      <point x="39" y="18"/>
      <point x="39" y="64" type="curve" smooth="yes"/>
      <point x="39" y="75"/>
      <point x="40" y="87"/>
      <point x="43" y="100" type="curve"/>
      <point x="152" y="661" type="line"/>
      <point x="64" y="669" type="line"/>
      <point x="64" y="705" type="line"/>
      <point x="233" y="737" type="line"/>
      <point x="299" y="737" type="line"/>
      <point x="176" y="102" type="line" smooth="yes"/>
      <point x="172" y="79"/>
      <point x="177" y="53"/>
      <point x="202" y="53" type="curve" smooth="yes" name="n18"/>
      <point x="218" y="53"/>
      <point x="257" y="62"/>
      <point x="304" y="83" type="curve"/>
    </contour>
    <contour>
      <point x="495" y="700" type="curve" smooth="yes" name="n22"/>
      <point x="495" y="616"/>
      <point x="396" y="564"/>
      <point x="325" y="551" type="curve"/>
      <point x="333" y="591" type="line"/>
      <point x="366" y="600"/>
      <point x="411" y="628"/>
      <point x="419" y="665" type="curve" name="n29"/>
      <point x="356" y="665" type="line"/>
      <point x="347" y="674"/>
      <point x="343" y="686"/>
      <point x="343" y="698" type="curve" smooth="yes" name="n33"/>
      <point x="343" y="742"/>
      <point x="384" y="767"/>
      <point x="423" y="767" type="curve" smooth="yes" name="n36"/>
      <point x="464" y="767"/>
      <point x="495" y="742"/>
    </contour>
  </outline>
</glyph>
<glyph name="lslash" format="2">
  <advance width="315"/>
  <unicode hex="0142"/>
  <outline>
    <contour>
      <point x="378" y="450" type="line"/>
      <point x="240" y="380" type="line"/>
      <point x="186" y="102" type="line" smooth="yes"/>
      <point x="182" y="79"/>
      <point x="187" y="53"/>
      <point x="211" y="53" type="curve" smooth="yes" name="n05"/>
      <point x="228" y="53"/>
      <point x="267" y="62"/>
      <point x="313" y="83" type="curve"/>
      <point x="313" y="29" type="line"/>
      <point x="266" y="4"/>
      <point x="206" y="-12"/>
      <point x="154" y="-12" type="curve" smooth="yes" name="n12"/>
      <point x="88" y="-12"/>
      <point x="49" y="18"/>
      <point x="49" y="64" type="curve" smooth="yes"/>
      <point x="49" y="75"/>
      <point x="50" y="87"/>
      <point x="53" y="100" type="curve"/>
      <point x="93" y="305" type="line"/>
      <point x="21" y="269" type="line"/>
      <point x="-10" y="332" type="line"/>
      <point x="109" y="393" type="line"/>
      <point x="162" y="661" type="line"/>
      <point x="74" y="669" type="line"/>
      <point x="74" y="705" type="line"/>
      <point x="243" y="737" type="line" name="n26"/>
      <point x="309" y="737" type="line"/>
      <point x="257" y="467" type="line"/>
      <point x="347" y="513" type="line"/>
    </contour>
  </outline>
</glyph>
<glyph name="ncaron" format="2">
  <advance width="578"/>
  <unicode hex="0148"/>
  <outline>
    <contour>
      <point x="574" y="23" type="line"/>
      <point x="539" y="6"/>
      <point x="464" y="-12" name="n02"/>
      <point x="418" y="-12" type="curve" smooth="yes"/>
      <point x="374" y="-12"/>
      <point x="306" y="-2"/>
      <point x="317" y="51" type="curve" smooth="yes"/>
      <point x="378" y="356" type="line" smooth="yes"/>
      <point x="388" y="405"/>
      <point x="375" y="421"/>
      <point x="354" y="421" type="curve" smooth="yes"/>
      <point x="323" y="421"/>
      <point x="270" y="382"/>
      <point x="228" y="339" type="curve"/>
      <point x="157" y="0" type="line" name="n14"/>
      <point x="24" y="0" type="line"/>
      <point x="112" y="425" type="line"/>
      <point x="28" y="433" type="line"/>
      <point x="28" y="467" type="line"/>
      <point x="192" y="500" type="line" name="n19"/>
      <point x="261" y="500" type="line"/>
      <point x="249" y="442" type="line"/>
      <point x="298" y="475"/>
      <point x="358" y="500"/>
      <point x="410" y="500" type="curve" smooth="yes"/>
      <point x="510" y="500"/>
      <point x="535" y="454"/>
      <point x="519" y="369" type="curve" smooth="yes"/>
      <point x="465" y="88" type="line" smooth="yes"/>
      <point x="459" y="55"/>
      <point x="479" y="49"/>
      <point x="489" y="49" type="curve" smooth="yes"/>
      <point x="510" y="49"/>
      <point x="542" y="58"/>
      <point x="572" y="71" type="curve"/>
    </contour>
    <contour>
      <point x="549" y="722" type="line" name="n35"/>
      <point x="404" y="551" type="line"/>
      <point x="286" y="551" type="line"/>
      <point x="209" y="722" type="line"/>
      <point x="292" y="722" type="line"/>
      <point x="361" y="628" type="line"/>
      <point x="466" y="722" type="line"/>
    </contour>
  </outline>
</glyph>
<glyph name="oe" format="2">
  <advance width="788"/>
  <unicode hex="0153"/>
  <outline>
    <contour>
      <point x="771" y="385" type="curve" smooth="yes" name="n00"/>
      <point x="771" y="262"/>
      <point x="579" y="227"/>
      <point x="487" y="219" type="curve" name="n03"/>
      <point x="486" y="206"/>
      <point x="485" y="188"/>
      <point x="485" y="179" type="curve" smooth="yes" name="n06"/>
      <point x="485" y="104"/>
      <point x="517" y="58"/>
      <point x="571" y="58" type="curve" smooth="yes" name="n09"/>
      <point x="619" y="58"/>
      <point x="665" y="102"/>
      <point x="758" y="187" type="curve"/>
      <point x="758" y="85" type="line"/>
      <point x="700" y="33"/>
      <point x="628" y="-12"/>
      <point x="537" y="-12" type="curve" smooth="yes" name="n16"/>
      <point x="471" y="-12"/>
      <point x="429" y="14"/>
      <point x="400" y="58" type="curve"/>
      <point x="359" y="10"/>
      <point x="305" y="-12"/>
      <point x="231" y="-12" type="curve" smooth="yes" name="n22"/>
      <point x="99" y="-12"/>
      <point x="32" y="68"/>
      <point x="32" y="181" type="curve" smooth="yes" name="n25"/>
      <point x="32" y="325"/>
      <point x="123" y="500"/>
      <point x="317" y="500" type="curve" smooth="yes" name="n28"/>
      <point x="378" y="500"/>
      <point x="433" y="467"/>
      <point x="464" y="421" type="curve"/>
      <point x="502" y="468"/>
      <point x="576" y="500"/>
      <point x="647" y="500" type="curve" smooth="yes" name="n34"/>
      <point x="736" y="500"/>
      <point x="771" y="428"/>
    </contour>
    <contour>
      <point x="651" y="385" type="curve" smooth="yes" name="n37"/>
      <point x="651" y="400"/>
      <point x="654" y="443"/>
      <point x="619" y="443" type="curve" smooth="yes" name="n40"/>
      <point x="557" y="443"/>
      <point x="517" y="351"/>
      <point x="496" y="270" type="curve" name="n43"/>
      <point x="553" y="281"/>
      <point x="651" y="316"/>
    </contour>
    <contour>
      <point x="368" y="296" type="curve" smooth="yes" name="n46"/>
      <point x="368" y="370"/>
      <point x="358" y="446"/>
      <point x="302" y="446" type="curve" smooth="yes" name="n49"/>
      <point x="242" y="446" name="hr01"/>
      <point x="171" y="316"/>
      <point x="171" y="185" type="curve" smooth="yes" name="n52"/>
      <point x="171" y="103"/>
      <point x="189" y="43"/>
      <point x="240" y="43" type="curve" smooth="yes" name="n55"/>
      <point x="310" y="43"/>
      <point x="368" y="177"/>
    </contour>
  </outline>
</glyph>
<glyph name="uni0181" format="2">
  <advance width="686"/>
  <unicode hex="0181"/>
  <outline>
    <contour>
      <point x="652" y="540" type="curve" smooth="yes" name="n00"/>
      <point x="652" y="443"/>
      <point x="584" y="390"/>
      <point x="495" y="358" type="curve"/>
      <point x="582" y="342"/>
      <point x="633" y="305" name="hr01"/>
      <point x="633" y="226" type="curve" smooth="yes" name="n06"/>
      <point x="633" y="67"/>
      <point x="509" y="0"/>
      <point x="317" y="0" type="curve" smooth="yes" name="n09"/>
      <point x="22" y="0" type="line"/>
      <point x="22" y="50" type="line"/>
      <point x="54" y="53"/>
      <point x="85" y="55"/>
      <point x="85" y="55" type="curve"/>
      <point x="95" y="55"/>
      <point x="101" y="57"/>
      <point x="104" y="71" type="curve" smooth="yes"/>
      <point x="206" y="591" type="line"/>
      <point x="208" y="603"/>
      <point x="199" y="607"/>
      <point x="188" y="607" type="curve" smooth="yes"/>
      <point x="161" y="607" type="line" smooth="yes"/>
      <point x="139" y="607"/>
      <point x="129" y="601"/>
      <point x="116" y="585" type="curve"/>
      <point x="140" y="514" type="line"/>
      <point x="111" y="489"/>
      <point x="97" y="484"/>
      <point x="69" y="484" type="curve" smooth="yes"/>
      <point x="28" y="484"/>
      <point x="4" y="526"/>
      <point x="4" y="556" type="curve" smooth="yes"/>
      <point x="4" y="632"/>
      <point x="73" y="671"/>
      <point x="163" y="671" type="curve" smooth="yes"/>
      <point x="434" y="671" type="line" smooth="yes" name="n36"/>
      <point x="603" y="671"/>
      <point x="652" y="613" name="hr02"/>
    </contour>
    <contour>
      <point x="500" y="533" type="curve" smooth="yes" name="n39"/>
      <point x="500" y="597"/>
      <point x="445" y="618"/>
      <point x="384" y="618" type="curve" smooth="yes" name="n42"/>
      <point x="374" y="618"/>
      <point x="363" y="617"/>
      <point x="354" y="617" type="curve"/>
      <point x="307" y="375" type="line"/>
      <point x="317" y="374"/>
      <point x="328" y="374"/>
      <point x="332" y="374" type="curve" smooth="yes" name="n49"/>
      <point x="431" y="374"/>
      <point x="500" y="441"/>
    </contour>
    <contour>
      <point x="482" y="216" type="curve" smooth="yes" name="n52"/>
      <point x="482" y="298"/>
      <point x="419" y="320" name="hr03"/>
      <point x="350" y="320" type="curve" smooth="yes" name="n55"/>
      <point x="333" y="320"/>
      <point x="313" y="319"/>
      <point x="295" y="317" type="curve"/>
      <point x="244" y="56" type="line"/>
      <point x="258" y="55"/>
      <point x="274" y="55"/>
      <point x="284" y="55" type="curve" smooth="yes" name="n62"/>
      <point x="401" y="55"/>
      <point x="482" y="109"/>
    </contour>
  </outline>
</glyph>
<glyph name="uni0188" format="2">
  <advance width="476"/>
  <unicode hex="0188"/>
  <outline>
    <contour>
      <point x="556" y="558" type="curve" smooth="yes"/>
      <point x="556" y="521"/>
      <point x="529" y="509"/>
      <point x="500" y="503" type="curve"/>
      <point x="453" y="563" type="line"/>
      <point x="436" y="563"/>
      <point x="416" y="522"/>
      <point x="408" y="479" type="curve"/>
      <point x="436" y="470"/>
      <point x="444" y="440"/>
      <point x="444" y="427" type="curve" smooth="yes"/>
      <point x="444" y="402"/>
      <point x="441" y="354"/>
      <point x="345" y="354" type="curve"/>
      <point x="295" y="428" type="line"/>
      <point x="251" y="428"/>
      <point x="218" y="385"/>
      <point x="202" y="353" type="curve" smooth="yes"/>
      <point x="172" y="292"/>
      <point x="168" y="216"/>
      <point x="168" y="190" type="curve" smooth="yes" name="n20"/>
      <point x="168" y="128"/>
      <point x="174" y="63"/>
      <point x="236" y="63" type="curve" smooth="yes" name="n23"/>
      <point x="286" y="63"/>
      <point x="333" y="86"/>
      <point x="422" y="195" type="curve"/>
      <point x="423" y="105" type="line"/>
      <point x="360" y="25"/>
      <point x="300" y="-12"/>
      <point x="206" y="-12" type="curve" smooth="yes" name="n30"/>
      <point x="86" y="-12"/>
      <point x="32" y="64"/>
      <point x="32" y="179" type="curve" smooth="yes" name="n33"/>
      <point x="32" y="353"/>
      <point x="173" y="505" name="n35"/>
      <point x="307" y="500" type="curve"/>
      <point x="310" y="499"/>
      <point x="331" y="497"/>
      <point x="334" y="497" type="curve"/>
      <point x="357" y="561"/>
      <point x="382" y="611" name="n41"/>
      <point x="472" y="611" type="curve" smooth="yes"/>
      <point x="527" y="611"/>
      <point x="556" y="589"/>
    </contour>
  </outline>
</glyph>
<glyph name="uni018B" format="2">
  <advance width="649"/>
  <unicode hex="018B"/>
  <outline>
    <contour>
      <point x="359" y="61" type="curve" name="n00"/>
      <point x="369.808" y="113.792"/>
      <point x="400.105" y="261.782"/>
      <point x="411" y="315" type="curve" name="n03"/>
      <point x="390" y="318"/>
      <point x="358" y="320"/>
      <point x="331" y="320" type="curve" smooth="yes" name="n06"/>
      <point x="223" y="320"/>
      <point x="174" y="256"/>
      <point x="174" y="167" type="curve" smooth="yes"/>
      <point x="174" y="98"/>
      <point x="227" y="58"/>
      <point x="305" y="58" type="curve" smooth="yes"/>
      <point x="326" y="58"/>
      <point x="339" y="59"/>
    </contour>
    <contour>
      <point x="583" y="50" type="curve"/>
      <point x="583" y="0" type="line"/>
      <point x="543.748" y="0"/>
      <point x="374.863" y="0"/>
      <point x="311" y="0" type="curve" smooth="yes"/>
      <point x="85" y="0"/>
      <point x="28" y="71"/>
      <point x="28" y="173" type="curve" smooth="yes"/>
      <point x="28" y="333"/>
      <point x="188" y="377"/>
      <point x="342" y="377" type="curve" smooth="yes"/>
      <point x="373" y="377"/>
      <point x="396" y="376"/>
      <point x="421" y="373" type="curve" name="n28"/>
      <point x="464" y="592" type="line" smooth="yes" name="hr01"/>
      <point x="466" y="601"/>
      <point x="463" y="615"/>
      <point x="449" y="615" type="curve" smooth="yes" name="n32"/>
      <point x="290" y="615" type="line" smooth="yes" name="n33"/>
      <point x="280" y="615"/>
      <point x="270" y="607"/>
      <point x="266" y="597" type="curve"/>
      <point x="233" y="507" type="line" name="n37"/>
      <point x="217.507" y="507" name="hr02"/>
      <point x="174.629" y="507"/>
      <point x="159" y="507" type="curve"/>
      <point x="191" y="671" type="line"/>
      <point x="269.899" y="671"/>
      <point x="552.525" y="671"/>
      <point x="692" y="671" type="curve"/>
      <point x="692" y="621" type="line"/>
      <point x="623" y="616" type="line"/>
      <point x="616" y="616"/>
      <point x="610" y="611"/>
      <point x="608" y="600" type="curve" smooth="yes" name="n49"/>
      <point x="577.395" y="444.914" name="hr03"/>
      <point x="516.242" y="135.034"/>
      <point x="504" y="73" type="curve" smooth="yes" name="n52"/>
      <point x="501" y="58"/>
      <point x="506" y="56"/>
      <point x="519" y="55" type="curve" smooth="yes" name="n55"/>
      <point x="533.672" y="53.8538"/>
      <point x="571.606" y="50.8902"/>
    </contour>
  </outline>
</glyph>
<glyph name="uni018C" format="2">
  <advance width="565"/>
  <unicode hex="018C"/>
  <outline>
    <contour>
      <point x="393" y="488" type="curve"/>
      <point x="423" y="658" type="line" smooth="yes"/>
      <point x="426" y="673"/>
      <point x="423" y="680"/>
      <point x="409" y="680" type="curve" smooth="yes"/>
      <point x="285" y="680" type="line" smooth="yes" name="n05"/>
      <point x="273" y="680"/>
      <point x="263" y="672"/>
      <point x="259" y="661" type="curve" smooth="yes"/>
      <point x="228" y="573" type="line" name="n09"/>
      <point x="153" y="573" type="line"/>
      <point x="185" y="737" type="line" name="n11"/>
      <point x="570" y="737" type="line"/>
      <point x="455" y="90" type="line" smooth="yes"/>
      <point x="449" y="57"/>
      <point x="463" y="49"/>
      <point x="471" y="49" type="curve" smooth="yes"/>
      <point x="499" y="49"/>
      <point x="542" y="68"/>
      <point x="564" y="79" type="curve"/>
      <point x="564" y="30" type="line"/>
      <point x="530" y="10"/>
      <point x="464" y="-12"/>
      <point x="412" y="-12" type="curve" smooth="yes"/>
      <point x="362" y="-12"/>
      <point x="333" y="6"/>
      <point x="322" y="36" type="curve"/>
      <point x="286" y="9"/>
      <point x="239" y="-12"/>
      <point x="196" y="-12" type="curve" smooth="yes" name="n29"/>
      <point x="80" y="-12"/>
      <point x="32" y="83"/>
      <point x="32" y="169" type="curve" smooth="yes" name="n32"/>
      <point x="32" y="322"/>
      <point x="133" y="500"/>
      <point x="335" y="500" type="curve" smooth="yes" name="n35"/>
      <point x="360" y="500"/>
      <point x="380" y="492"/>
    </contour>
    <contour>
      <point x="376" y="394" type="line" smooth="yes"/>
      <point x="377" y="399"/>
      <point x="357" y="443"/>
      <point x="333" y="443" type="curve" smooth="yes" name="n41"/>
      <point x="263" y="443"/>
      <point x="170" y="334"/>
      <point x="170" y="175" type="curve" smooth="yes" name="n44"/>
      <point x="170" y="94"/>
      <point x="190" y="59"/>
      <point x="227" y="59" type="curve" smooth="yes" name="n47"/>
      <point x="261" y="59"/>
      <point x="296" y="96"/>
      <point x="330" y="135" type="curve"/>
    </contour>
  </outline>
</glyph>
<glyph name="uni018D" format="2">
  <advance width="572"/>
  <unicode hex="018D"/>
  <outline>
    <contour>
      <point x="83" y="-71" type="curve" smooth="yes" name="n00"/>
      <point x="92" y="-71"/>
      <point x="113" y="-73"/>
      <point x="120" y="-79" type="curve" name="n03"/>
      <point x="122.607" y="-92.5568"/>
      <point x="131.838" y="-140.559"/>
      <point x="135" y="-157" type="curve" name="n06"/>
      <point x="156" y="-178"/>
      <point x="172" y="-182"/>
      <point x="195" y="-182" type="curve" smooth="yes"/>
      <point x="232" y="-182"/>
      <point x="282" y="-170" name="hr02"/>
      <point x="282" y="-120" type="curve" smooth="yes" name="n12"/>
      <point x="282" y="-42"/>
      <point x="26" y="14"/>
      <point x="26" y="222" type="curve" smooth="yes" name="n15"/>
      <point x="26" y="405"/>
      <point x="209" y="500"/>
      <point x="327" y="500" type="curve" smooth="yes"/>
      <point x="431" y="500"/>
      <point x="542" y="456"/>
      <point x="542" y="338" type="curve" smooth="yes" name="n21"/>
      <point x="542" y="177"/>
      <point x="401" y="94"/>
      <point x="266" y="52" type="curve"/>
      <point x="324" y="-2"/>
      <point x="387" y="-45"/>
      <point x="387" y="-99" type="curve" smooth="yes"/>
      <point x="387" y="-192"/>
      <point x="266" y="-249" name="hr03"/>
      <point x="182" y="-249" type="curve" smooth="yes" name="n30"/>
      <point x="56" y="-249"/>
      <point x="-2" y="-199"/>
      <point x="-2" y="-151" type="curve" smooth="yes" name="n33"/>
      <point x="-2" y="-103"/>
      <point x="38" y="-71"/>
    </contour>
    <contour>
      <point x="169" y="231" type="curve" smooth="yes" name="n36"/>
      <point x="169" y="171"/>
      <point x="197" y="126"/>
      <point x="232" y="86" type="curve"/>
      <point x="316" y="126"/>
      <point x="399" y="211"/>
      <point x="399" y="331" type="curve" smooth="yes" name="n42"/>
      <point x="399" y="407"/>
      <point x="371" y="445"/>
      <point x="325" y="445" type="curve" smooth="yes" name="n45"/>
      <point x="232" y="445"/>
      <point x="169" y="346"/>
    </contour>
  </outline>
</glyph>
<glyph name="uni0195" format="2">
  <advance width="885"/>
  <unicode hex="0195"/>
  <outline>
    <contour>
      <point x="339" y="172" type="curve" smooth="yes"/>
      <point x="376" y="349" type="line" smooth="yes"/>
      <point x="386" y="397"/>
      <point x="362" y="424"/>
      <point x="342" y="424" type="curve" smooth="yes" name="n04"/>
      <point x="312" y="424"/>
      <point x="264" y="392"/>
      <point x="223" y="350" type="curve"/>
      <point x="150" y="0" type="line" name="n08"/>
      <point x="17" y="0" type="line"/>
      <point x="155" y="661" type="line"/>
      <point x="67" y="669" type="line"/>
      <point x="67" y="705" type="line"/>
      <point x="236" y="737" type="line" name="n13"/>
      <point x="305" y="737" type="line"/>
      <point x="245" y="454" type="line"/>
      <point x="285" y="479"/>
      <point x="338" y="500"/>
      <point x="397" y="500" type="curve" smooth="yes" name="n18"/>
      <point x="497" y="500"/>
      <point x="530" y="442"/>
      <point x="512" y="359" type="curve" smooth="yes"/>
      <point x="470" y="162" type="line" smooth="yes"/>
      <point x="456" y="98"/>
      <point x="472" y="59" name="hr01"/>
      <point x="512" y="59" type="curve" smooth="yes" name="n25"/>
      <point x="543" y="59"/>
      <point x="606" y="82"/>
      <point x="623" y="162" type="curve" smooth="yes"/>
      <point x="691" y="488" type="line"/>
      <point x="824" y="488" type="line"/>
      <point x="759" y="180" type="line" smooth="yes"/>
      <point x="738" y="82"/>
      <point x="642" y="-16"/>
      <point x="486" y="-16" type="curve" smooth="yes" name="n34"/>
      <point x="354" y="-16"/>
      <point x="316" y="63"/>
    </contour>
  </outline>
</glyph>
<glyph name="uni019B" format="2">
  <advance width="625"/>
  <unicode hex="019B"/>
  <outline>
    <contour>
      <point x="631" y="76" type="curve" smooth="yes"/>
      <point x="631" y="-2"/>
      <point x="513" y="-12"/>
      <point x="458" y="-12" type="curve" smooth="yes"/>
      <point x="379" y="-12"/>
      <point x="341" y="48"/>
      <point x="325" y="118" type="curve" smooth="yes"/>
      <point x="312.131" y="175.416"/>
      <point x="292.428" y="263.323"/>
      <point x="286" y="292" type="curve" name="n09"/>
      <point x="109" y="0" type="line"/>
      <point x="80.2236" y="0"/>
      <point x="-14.0779" y="0"/>
      <point x="-34" y="0" type="curve"/>
      <point x="10.6592" y="73.6402"/>
      <point x="190.484" y="370.16"/>
      <point x="248" y="465" type="curve" name="n16"/>
      <point x="245.321" y="476.864"/>
      <point x="237.091" y="513.313"/>
      <point x="234" y="527" type="curve"/>
      <point x="102" y="410" type="line"/>
      <point x="102" y="489" type="line" name="n21"/>
      <point x="219" y="592" type="line"/>
      <point x="209" y="632"/>
      <point x="197" y="679"/>
      <point x="148" y="679" type="curve"/>
      <point x="92" y="578" type="line"/>
      <point x="47" y="578"/>
      <point x="7" y="600"/>
      <point x="7" y="649" type="curve" smooth="yes"/>
      <point x="7" y="727"/>
      <point x="125" y="737"/>
      <point x="181" y="737" type="curve" smooth="yes"/>
      <point x="239" y="737"/>
      <point x="275" y="703"/>
      <point x="296" y="658" type="curve"/>
      <point x="323.295" y="681.844"/>
      <point x="367.956" y="720.858"/>
      <point x="383" y="734" type="curve" name="n38"/>
      <point x="383" y="660" type="line"/>
      <point x="368.79" y="647.437"/>
      <point x="323.592" y="607.48"/>
      <point x="314" y="599" type="curve"/>
      <point x="330.312" y="526.468"/>
      <point x="395.993" y="234.412"/>
      <point x="417" y="141" type="curve" smooth="yes" name="n45"/>
      <point x="427" y="99"/>
      <point x="437" y="46"/>
      <point x="490" y="46" type="curve"/>
      <point x="546" y="147" type="line"/>
      <point x="591" y="148"/>
      <point x="631" y="125"/>
    </contour>
  </outline>
</glyph>
<glyph name="uni019F" format="2">
  <advance width="751"/>
  <unicode hex="019F"/>
  <outline>
    <contour>
      <point x="733" y="417" type="curve" smooth="yes" name="n00"/>
      <point x="733" y="212"/>
      <point x="603" y="-16"/>
      <point x="341" y="-16" type="curve" smooth="yes" name="n03"/>
      <point x="155" y="-16"/>
      <point x="48" y="101"/>
      <point x="48" y="263" type="curve" smooth="yes" name="n06"/>
      <point x="48" y="471"/>
      <point x="194" y="687"/>
      <point x="441" y="687" type="curve" smooth="yes" name="n09"/>
      <point x="634" y="687"/>
      <point x="733" y="559"/>
    </contour>
    <contour>
      <point x="577" y="417" type="curve" smooth="yes" name="n12"/>
      <point x="577" y="551"/>
      <point x="501" y="627"/>
      <point x="432" y="627" type="curve" smooth="yes" name="n15"/>
      <point x="340" y="627"/>
      <point x="253" y="512"/>
      <point x="218" y="376" type="curve"/>
      <point x="575" y="376" type="line" name="n19"/>
      <point x="576" y="390"/>
      <point x="577" y="403"/>
    </contour>
    <contour>
      <point x="566" y="320" type="curve" name="n22"/>
      <point x="207" y="320" type="line"/>
      <point x="204" y="299"/>
      <point x="203" y="277"/>
      <point x="203" y="255" type="curve" smooth="yes" name="n26"/>
      <point x="203" y="117"/>
      <point x="282" y="46"/>
      <point x="348" y="46" type="curve" smooth="yes" name="n29"/>
      <point x="445" y="46"/>
      <point x="536" y="178"/>
    </contour>
  </outline>
</glyph>
<glyph name="Ohorn" format="2">
  <advance width="807"/>
  <unicode hex="01A0"/>
  <outline>
    <contour>
      <point x="861" y="710.382" type="curve" smooth="yes" name="n00"/>
      <point x="861" y="633"/>
      <point x="804" y="547"/>
      <point x="721" y="501" type="curve"/>
      <point x="729" y="475"/>
      <point x="733" y="447" name="hr01"/>
      <point x="733" y="412.079" type="curve" smooth="yes" name="n06"/>
      <point x="733" y="213"/>
      <point x="604.307" y="-16"/>
      <point x="342.951" y="-16" type="curve" smooth="yes" name="n09"/>
      <point x="155" y="-16"/>
      <point x="48" y="102"/>
      <point x="48" y="272.655" type="curve" smooth="yes" name="n12"/>
      <point x="48" y="472"/>
      <point x="194" y="688"/>
      <point x="446.074" y="688" type="curve" smooth="yes" name="n15"/>
      <point x="564.925" y="688"/>
      <point x="646.16" y="640"/>
      <point x="694" y="562" type="curve"/>
      <point x="735" y="590"/>
      <point x="756" y="624"/>
      <point x="765" y="672" type="curve" name="n21"/>
      <point x="673" y="672" type="line"/>
      <point x="660.625" y="689.678"/>
      <point x="652" y="713.285"/>
      <point x="652" y="734.985" type="curve" smooth="yes" name="n25"/>
      <point x="652" y="787"/>
      <point x="699" y="824"/>
      <point x="752.783" y="824" type="curve" smooth="yes" name="n28"/>
      <point x="808" y="824"/>
      <point x="861" y="785"/>
    </contour>
    <contour>
      <point x="579" y="413.087" type="curve" smooth="yes" name="n31"/>
      <point x="579" y="553" name="hr03"/>
      <point x="502.594" y="628"/>
      <point x="429.899" y="628" type="curve" smooth="yes" name="n34"/>
      <point x="313.588" y="628"/>
      <point x="203" y="436"/>
      <point x="203" y="263.871" type="curve" smooth="yes" name="n37"/>
      <point x="203" y="118"/>
      <point x="282.422" y="46"/>
      <point x="352.009" y="46" type="curve" smooth="yes" name="n40"/>
      <point x="467.406" y="46"/>
      <point x="579" y="244"/>
    </contour>
  </outline>
</glyph>
<glyph name="uni01A3" format="2">
  <advance width="845"/>
  <unicode hex="01A3"/>
  <outline>
    <contour>
      <point x="341" y="142" type="curve" smooth="yes"/>
      <point x="400" y="426" type="line"/>
      <point x="368" y="444"/>
      <point x="346" y="447"/>
      <point x="312" y="447" type="curve" smooth="yes" name="n04"/>
      <point x="239" y="447"/>
      <point x="175" y="304"/>
      <point x="175" y="185" type="curve" smooth="yes" name="n07"/>
      <point x="175" y="82"/>
      <point x="218" y="43"/>
      <point x="250" y="43" type="curve" smooth="yes" name="n10"/>
      <point x="303" y="43"/>
      <point x="327" y="72"/>
    </contour>
    <contour>
      <point x="234" y="-12" type="curve" smooth="yes"/>
      <point x="90" y="-12"/>
      <point x="32" y="71"/>
      <point x="32" y="181" type="curve" smooth="yes" name="n16"/>
      <point x="32" y="338"/>
      <point x="125" y="500"/>
      <point x="336" y="500" type="curve" smooth="yes" name="n19"/>
      <point x="447" y="500"/>
      <point x="523" y="464"/>
      <point x="585" y="464" type="curve" smooth="yes" name="n22"/>
      <point x="618" y="464"/>
      <point x="692" y="469"/>
      <point x="739" y="488" type="curve"/>
      <point x="749.09" y="488"/>
      <point x="798.189" y="488"/>
      <point x="814" y="488" type="curve"/>
      <point x="689" y="-145" type="line" smooth="yes"/>
      <point x="686" y="-159"/>
      <point x="693" y="-167"/>
      <point x="707" y="-168" type="curve" smooth="yes"/>
      <point x="718.632" y="-168.878"/>
      <point x="749.407" y="-171.201"/>
      <point x="760" y="-172" type="curve"/>
      <point x="760" y="-219" type="line"/>
      <point x="468" y="-219" type="line" name="n37"/>
      <point x="468" y="-172" type="line"/>
      <point x="527" y="-168" type="line"/>
      <point x="540" y="-168"/>
      <point x="552" y="-157"/>
      <point x="554" y="-145" type="curve"/>
      <point x="573.381" y="-48.0941"/>
      <point x="641.419" y="292.097"/>
      <point x="661" y="390" type="curve"/>
      <point x="626" y="379"/>
      <point x="557" y="383"/>
      <point x="528" y="393" type="curve"/>
      <point x="520.791" y="358.044"/>
      <point x="481.655" y="168.271"/>
      <point x="475" y="136" type="curve" smooth="yes"/>
      <point x="452" y="26"/>
      <point x="325" y="-12"/>
    </contour>
  </outline>
</glyph>
<glyph name="uni01A4" format="2">
  <advance width="660"/>
  <unicode hex="01A4"/>
  <outline>
    <contour>
      <point x="651" y="508" type="curve" smooth="yes" name="n00"/>
      <point x="651" y="352"/>
      <point x="525.213" y="248"/>
      <point x="325.213" y="248" type="curve" smooth="yes"/>
      <point x="282" y="248" type="line" name="n04"/>
      <point x="246" y="70" type="line" smooth="yes"/>
      <point x="244.928" y="64.6988"/>
      <point x="251" y="56"/>
      <point x="264" y="55" type="curve" smooth="yes"/>
      <point x="323" y="50" type="line"/>
      <point x="323" y="0" type="line"/>
      <point x="21" y="0" type="line"/>
      <point x="21" y="50" type="line"/>
      <point x="79" y="55" type="line" smooth="yes"/>
      <point x="92" y="56"/>
      <point x="100.444" y="58.0977"/>
      <point x="103" y="71" type="curve" smooth="yes"/>
      <point x="206" y="591" type="line" smooth="yes"/>
      <point x="206.627" y="594.168"/>
      <point x="199" y="607"/>
      <point x="188" y="607" type="curve" smooth="yes" name="n20"/>
      <point x="161" y="607" type="line" smooth="yes"/>
      <point x="139" y="607"/>
      <point x="129" y="601"/>
      <point x="116" y="585" type="curve"/>
      <point x="140" y="514" type="line"/>
      <point x="111" y="489"/>
      <point x="97" y="484"/>
      <point x="69" y="484" type="curve" smooth="yes"/>
      <point x="28" y="484"/>
      <point x="4" y="526"/>
      <point x="4" y="565.324" type="curve" smooth="yes"/>
      <point x="4" y="632"/>
      <point x="73" y="671"/>
      <point x="163" y="671" type="curve" smooth="yes" name="n34"/>
      <point x="402" y="671" type="line" smooth="yes"/>
      <point x="591" y="671"/>
      <point x="651" y="597"/>
    </contour>
    <contour>
      <point x="505" y="492.143" type="curve" smooth="yes" name="n38"/>
      <point x="505" y="571"/>
      <point x="474.284" y="614"/>
      <point x="390.814" y="614" type="curve" smooth="yes"/>
      <point x="374.424" y="614"/>
      <point x="364.226" y="612.342"/>
      <point x="352.805" y="608.003" type="curve"/>
      <point x="293" y="308" type="line" name="n45"/>
      <point x="319.961" y="307.933" type="line"/>
      <point x="435.311" y="307.649"/>
      <point x="505" y="372.315"/>
    </contour>
  </outline>
</glyph>
<glyph name="uni01A6" format="2">
  <advance width="668"/>
  <unicode hex="01A6"/>
  <outline>
    <contour>
      <point x="293" y="340" type="line" smooth="yes"/>
      <point x="362" y="340"/>
      <point x="448" y="364"/>
      <point x="448" y="448.353" type="curve" smooth="yes" name="n03"/>
      <point x="448" y="508"/>
      <point x="405" y="532"/>
      <point x="333" y="532" type="curve" smooth="yes"/>
      <point x="304" y="532" type="line" name="n07"/>
      <point x="261.575" y="340" type="line" name="n08"/>
    </contour>
    <contour>
      <point x="270" y="284" type="curve" smooth="yes"/>
      <point x="250" y="284" type="line" name="n10"/>
      <point x="205" y="70" type="line" smooth="yes"/>
      <point x="204.189" y="66.1445"/>
      <point x="208.206" y="55.8801"/>
      <point x="220" y="55" type="curve" smooth="yes"/>
      <point x="287" y="50" type="line"/>
      <point x="287" y="0" type="line"/>
      <point x="-15" y="0" type="line"/>
      <point x="-15" y="50" type="line"/>
      <point x="38" y="54" type="line" smooth="yes"/>
      <point x="50.0074" y="54.9062"/>
      <point x="56.5062" y="59.0928"/>
      <point x="59" y="71" type="curve" smooth="yes"/>
      <point x="170" y="601" type="line" smooth="yes"/>
      <point x="170.867" y="605.137"/>
      <point x="167.028" y="615.014"/>
      <point x="155" y="616" type="curve" smooth="yes"/>
      <point x="94" y="621" type="line"/>
      <point x="94" y="671" type="line"/>
      <point x="402" y="671" type="line"/>
      <point x="402" y="629" type="line"/>
      <point x="339" y="624" type="line" smooth="yes"/>
      <point x="326.002" y="622.968"/>
      <point x="321.046" y="619.991"/>
      <point x="318" y="604" type="curve" smooth="yes"/>
      <point x="314" y="583" type="line" name="n35"/>
      <point x="375" y="583" type="line" smooth="yes"/>
      <point x="512" y="583"/>
      <point x="601" y="541"/>
      <point x="601" y="453.748" type="curve" smooth="yes" name="n39"/>
      <point x="601" y="355"/>
      <point x="487" y="311"/>
      <point x="399" y="293" type="curve"/>
      <point x="461" y="272"/>
      <point x="485.615" y="238.044"/>
      <point x="512.135" y="146.192" type="curve" smooth="yes"/>
      <point x="526.048" y="98.0049" type="line" smooth="yes"/>
      <point x="546.683" y="26.5375"/>
      <point x="572.244" y="-4"/>
      <point x="617.763" y="-4" type="curve" smooth="yes" name="n49"/>
      <point x="626" y="-4"/>
      <point x="638" y="-3"/>
      <point x="643" y="-2" type="curve"/>
      <point x="643" y="-53" type="line"/>
      <point x="620" y="-61"/>
      <point x="596" y="-68"/>
      <point x="559.075" y="-68" type="curve" smooth="yes" name="n56"/>
      <point x="442.181" y="-68"/>
      <point x="419.126" y="2.15057"/>
      <point x="392.387" y="83.0432" type="curve" smooth="yes"/>
      <point x="367.23" y="159.153" type="line" smooth="yes"/>
      <point x="342.614" y="233.625"/>
      <point x="325.429" y="284"/>
    </contour>
  </outline>
</glyph>
<glyph name="uni01A7" format="2">
  <advance width="569"/>
  <unicode hex="01A7"/>
  <outline>
    <contour>
      <point x="500" y="207" type="line"/>
      <point x="470" y="41" type="line"/>
      <point x="434" y="20"/>
      <point x="361" y="-16"/>
      <point x="263" y="-16" type="curve" smooth="yes" name="n04"/>
      <point x="88" y="-16"/>
      <point x="15" y="53"/>
      <point x="15" y="143" type="curve" smooth="yes" name="n07"/>
      <point x="15" y="263"/>
      <point x="112" y="325"/>
      <point x="254" y="393" type="curve" smooth="yes"/>
      <point x="359" y="443"/>
      <point x="398" y="479"/>
      <point x="398" y="546" type="curve" smooth="yes" name="n13"/>
      <point x="398" y="602"/>
      <point x="361" y="628"/>
      <point x="316" y="628" type="curve" smooth="yes" name="n16"/>
      <point x="270" y="628"/>
      <point x="215" y="604"/>
      <point x="215" y="593" type="curve"/>
      <point x="177" y="491" type="line"/>
      <point x="101" y="491" type="line"/>
      <point x="129" y="647" type="line"/>
      <point x="179" y="666"/>
      <point x="237" y="687"/>
      <point x="328" y="687" type="curve" smooth="yes" name="n25"/>
      <point x="453" y="687"/>
      <point x="543" y="645"/>
      <point x="543" y="548" type="curve" smooth="yes" name="n28"/>
      <point x="543" y="431"/>
      <point x="441" y="355"/>
      <point x="343" y="301" type="curve" smooth="yes"/>
      <point x="256" y="253"/>
      <point x="158" y="230"/>
      <point x="158" y="138" type="curve" smooth="yes" name="n34"/>
      <point x="158" y="76"/>
      <point x="206" y="46"/>
      <point x="256" y="46" type="curve" smooth="yes" name="n37"/>
      <point x="313" y="46"/>
      <point x="375" y="72"/>
      <point x="381" y="93" type="curve" smooth="yes"/>
      <point x="415" y="207" type="line"/>
    </contour>
  </outline>
</glyph>
<glyph name="uni01A8" format="2">
  <advance width="418"/>
  <unicode hex="01A8"/>
  <outline>
    <contour>
      <point x="229" y="450" type="curve" smooth="yes" name="n00"/>
      <point x="215" y="450"/>
      <point x="198" y="445"/>
      <point x="194" y="442" type="curve"/>
      <point x="165" y="366" type="line"/>
      <point x="157" y="364"/>
      <point x="135" y="356"/>
      <point x="120" y="356" type="curve" smooth="yes"/>
      <point x="86" y="356"/>
      <point x="65" y="383"/>
      <point x="65" y="411" type="curve" smooth="yes"/>
      <point x="65" y="469"/>
      <point x="157" y="499"/>
      <point x="240" y="499" type="curve" smooth="yes" name="n13"/>
      <point x="340" y="499"/>
      <point x="404" y="456"/>
      <point x="404" y="388" type="curve" smooth="yes" name="n16"/>
      <point x="404" y="304"/>
      <point x="320" y="264"/>
      <point x="258" y="220" type="curve" smooth="yes"/>
      <point x="196" y="176"/>
      <point x="142" y="137"/>
      <point x="142" y="91" type="curve" smooth="yes" name="n22"/>
      <point x="142" y="71"/>
      <point x="158" y="39"/>
      <point x="188" y="39" type="curve" smooth="yes" name="n25"/>
      <point x="217" y="39"/>
      <point x="233" y="45"/>
      <point x="253" y="65" type="curve"/>
      <point x="271" y="135" type="line"/>
      <point x="277" y="139"/>
      <point x="306" y="146"/>
      <point x="330" y="146" type="curve" smooth="yes"/>
      <point x="354" y="146"/>
      <point x="379" y="127"/>
      <point x="379" y="94" type="curve" smooth="yes"/>
      <point x="379" y="30"/>
      <point x="283" y="-12"/>
      <point x="195" y="-12" type="curve" smooth="yes" name="n38"/>
      <point x="91" y="-12"/>
      <point x="16" y="30"/>
      <point x="16" y="104" type="curve" smooth="yes" name="n41"/>
      <point x="16" y="189"/>
      <point x="97" y="242"/>
      <point x="161" y="281" type="curve" smooth="yes"/>
      <point x="224" y="319"/>
      <point x="281" y="372"/>
      <point x="281" y="400" type="curve" smooth="yes" name="n47"/>
      <point x="281" y="431"/>
      <point x="255" y="450"/>
    </contour>
  </outline>
</glyph>
<glyph name="uni01AC" format="2">
  <advance width="627"/>
  <unicode hex="01AC"/>
  <outline>
    <contour>
      <point x="692" y="671" type="line" name="n00"/>
      <point x="656" y="496" type="line" name="n01"/>
      <point x="578" y="496" type="line"/>
      <point x="583" y="603" type="line"/>
      <point x="584" y="612"/>
      <point x="571" y="616" name="hr01"/>
      <point x="561" y="616" type="curve" smooth="yes"/>
      <point x="452" y="616" type="line"/>
      <point x="349" y="70" type="line" smooth="yes"/>
      <point x="347" y="58"/>
      <point x="356" y="56"/>
      <point x="368" y="55" type="curve"/>
      <point x="368" y="55"/>
      <point x="399" y="53"/>
      <point x="426" y="50" type="curve"/>
      <point x="426" y="0" type="line" name="n15"/>
      <point x="124" y="0" type="line"/>
      <point x="124" y="50" type="line"/>
      <point x="150" y="52"/>
      <point x="179" y="54"/>
      <point x="179" y="54" type="curve"/>
      <point x="193" y="55"/>
      <point x="204" y="58"/>
      <point x="206" y="71" type="curve"/>
      <point x="309" y="616" type="line"/>
      <point x="206" y="616" type="line" smooth="yes" name="n25"/>
      <point x="164" y="616"/>
      <point x="148" y="605"/>
      <point x="148" y="583" type="curve"/>
      <point x="210" y="515" type="line"/>
      <point x="202" y="477"/>
      <point x="166" y="456" name="hr02"/>
      <point x="140" y="456" type="curve" smooth="yes" name="n32"/>
      <point x="92" y="456"/>
      <point x="62" y="490"/>
      <point x="62" y="536" type="curve" smooth="yes"/>
      <point x="62" y="624"/>
      <point x="128" y="671"/>
      <point x="224" y="671" type="curve" smooth="yes" name="n38"/>
    </contour>
  </outline>
</glyph>
<glyph name="uhorn" format="2">
  <advance width="702"/>
  <unicode hex="01B0"/>
  <outline>
    <contour>
      <point x="462" y="100" type="line" smooth="yes"/>
      <point x="460.409" y="92.4717"/>
      <point x="459.671" y="85.8554"/>
      <point x="459.682" y="80.0914" type="curve" smooth="yes"/>
      <point x="459.725" y="57.4984"/>
      <point x="471.269" y="48"/>
      <point x="488" y="48" type="curve" smooth="yes"/>
      <point x="498" y="48"/>
      <point x="511" y="52"/>
      <point x="572" y="84" type="curve"/>
      <point x="572" y="28" type="line"/>
      <point x="545" y="13"/>
      <point x="471" y="-12"/>
      <point x="412.366" y="-12" type="curve" smooth="yes"/>
      <point x="345" y="-12"/>
      <point x="332" y="21"/>
      <point x="329" y="35" type="curve"/>
      <point x="285" y="5"/>
      <point x="235" y="-12"/>
      <point x="170" y="-12" type="curve" smooth="yes" name="n19"/>
      <point x="83.1423" y="-12"/>
      <point x="44.7785" y="45.7308"/>
      <point x="44.7785" y="96.3602" type="curve" smooth="yes"/>
      <point x="44.7785" y="103.438"/>
      <point x="45.5282" y="110.377"/>
      <point x="47" y="117" type="curve" smooth="yes"/>
      <point x="112" y="424" type="line"/>
      <point x="28" y="433" type="line"/>
      <point x="28" y="467" type="line"/>
      <point x="193" y="500" type="line" name="n29"/>
      <point x="262" y="500" type="line"/>
      <point x="180" y="117" type="line" smooth="yes"/>
      <point x="179.067" y="112.181"/>
      <point x="178.618" y="107.435"/>
      <point x="178.618" y="102.856" type="curve" smooth="yes"/>
      <point x="178.618" y="77.9721"/>
      <point x="191.886" y="58"/>
      <point x="222.456" y="58" type="curve" smooth="yes" name="n37"/>
      <point x="258" y="58"/>
      <point x="297" y="85"/>
      <point x="333" y="118" type="curve"/>
      <point x="411" y="488" type="line"/>
      <point x="544" y="488" type="line"/>
    </contour>
    <contour>
      <point x="490.404" y="404.734" type="line"/>
      <point x="547.145" y="426.747"/>
      <point x="621" y="499"/>
      <point x="628" y="526" type="curve" name="n46"/>
      <point x="558" y="526" type="line"/>
      <point x="556.4" y="528.7"/>
      <point x="542" y="553"/>
      <point x="542" y="580.448" type="curve" smooth="yes" name="n50"/>
      <point x="542" y="622"/>
      <point x="575" y="651"/>
      <point x="618.211" y="651" type="curve" smooth="yes" name="n53"/>
      <point x="665" y="651"/>
      <point x="707" y="617"/>
      <point x="707" y="563.586" type="curve" smooth="yes" name="n56"/>
      <point x="707" y="481"/>
      <point x="606.594" y="401.843"/>
      <point x="476.404" y="336.734" type="curve"/>
    </contour>
  </outline>
</glyph>
<glyph name="uni01B2" format="2">
  <advance width="745"/>
  <unicode hex="01B2"/>
  <outline>
    <contour>
      <point x="722" y="449" type="curve" smooth="yes" name="n00"/>
      <point x="722" y="198"/>
      <point x="567" y="-14"/>
      <point x="299" y="-14" type="curve" smooth="yes" name="n03"/>
      <point x="167" y="-14"/>
      <point x="79" y="50"/>
      <point x="79" y="163" type="curve" smooth="yes" name="n06"/>
      <point x="79" y="173"/>
      <point x="85" y="214"/>
      <point x="96" y="266" type="curve" smooth="yes"/>
      <point x="163" y="591" type="line" smooth="yes"/>
      <point x="167" y="610"/>
      <point x="164" y="615"/>
      <point x="142" y="617" type="curve"/>
      <point x="142" y="617"/>
      <point x="114" y="619"/>
      <point x="89" y="621" type="curve"/>
      <point x="89" y="671" type="line" name="n17"/>
      <point x="323" y="671" type="line"/>
      <point x="239" y="265" type="line"/>
      <point x="231" y="230"/>
      <point x="228" y="197"/>
      <point x="228" y="197" type="curve" name="n22"/>
      <point x="228" y="104"/>
      <point x="295" y="76"/>
      <point x="345" y="76" type="curve" smooth="yes" name="n25"/>
      <point x="488" y="76"/>
      <point x="617" y="246"/>
      <point x="617" y="413" type="curve" smooth="yes" name="n28"/>
      <point x="617" y="483"/>
      <point x="609" y="527"/>
      <point x="594" y="545" type="curve" name="n31"/>
      <point x="491" y="545" type="line"/>
      <point x="491" y="545"/>
      <point x="461" y="581"/>
      <point x="461" y="607" type="curve" smooth="yes"/>
      <point x="461" y="654"/>
      <point x="501" y="687"/>
      <point x="556" y="687" type="curve" smooth="yes" name="n38"/>
      <point x="660" y="687"/>
      <point x="722" y="544"/>
    </contour>
  </outline>
</glyph>
<glyph name="uni01B3.RtHook" format="2">
  <advance width="681"/>
  <unicode hex="01B3"/>
  <outline>
    <contour>
      <point x="852" y="681" type="curve" smooth="yes"/>
      <point x="852" y="642"/>
      <point x="821" y="614"/>
      <point x="757" y="596" type="curve"/>
      <point x="676" y="678" type="line"/>
      <point x="657" y="672"/>
      <point x="647" y="650"/>
      <point x="613" y="594" type="curve" smooth="yes"/>
      <point x="416" y="272" type="line"/>
      <point x="375" y="70" type="line"/>
      <point x="372" y="58"/>
      <point x="379" y="56"/>
      <point x="393" y="55" type="curve"/>
      <point x="393" y="55"/>
      <point x="422" y="53"/>
      <point x="450" y="50" type="curve"/>
      <point x="450" y="0" type="line" name="n16"/>
      <point x="148" y="0" type="line"/>
      <point x="148" y="50" type="line"/>
      <point x="175" y="53"/>
      <point x="205" y="55"/>
      <point x="205" y="55" type="curve"/>
      <point x="218" y="56"/>
      <point x="227" y="58"/>
      <point x="230" y="71" type="curve"/>
      <point x="271" y="273" type="line"/>
      <point x="159" y="605" type="line"/>
      <point x="156" y="616"/>
      <point x="146" y="616"/>
      <point x="134" y="617" type="curve"/>
      <point x="134" y="617"/>
      <point x="107" y="619"/>
      <point x="84" y="621" type="curve"/>
      <point x="84" y="671" type="line"/>
      <point x="385" y="671" type="line"/>
      <point x="385" y="621" type="line"/>
      <point x="355" y="619"/>
      <point x="323" y="617"/>
      <point x="323" y="617" type="curve"/>
      <point x="312" y="617"/>
      <point x="302" y="614"/>
      <point x="307" y="601" type="curve"/>
      <point x="374" y="391" type="line"/>
      <point x="534" y="653" type="line" smooth="yes"/>
      <point x="571" y="714"/>
      <point x="629" y="753" name="n45"/>
      <point x="734" y="753" type="curve" smooth="yes"/>
      <point x="796" y="753"/>
      <point x="852" y="713"/>
    </contour>
  </outline>
</glyph>
<glyph name="uni01B6" format="2">
  <advance width="491"/>
  <unicode hex="01B6"/>
  <outline>
    <contour>
      <point x="280" y="-12" type="curve" smooth="yes" name="n00"/>
      <point x="212" y="-12"/>
      <point x="156" y="31"/>
      <point x="143" y="31" type="curve" smooth="yes"/>
      <point x="134" y="31"/>
      <point x="126" y="31"/>
      <point x="122" y="25" type="curve"/>
      <point x="85" y="-39" type="line"/>
      <point x="71.4828" y="-31.6391"/>
      <point x="-3.32422" y="9.09735"/>
      <point x="-16" y="16" type="curve" name="n10"/>
      <point x="22.016" y="59.7502"/>
      <point x="138.827" y="194.18"/>
      <point x="163" y="222" type="curve" name="hr02"/>
      <point x="83" y="222" type="line"/>
      <point x="83" y="233.371"/>
      <point x="83" y="273.501"/>
      <point x="83" y="281" type="curve"/>
      <point x="108.04" y="281"/>
      <point x="193.829" y="281"/>
      <point x="214" y="281" type="curve"/>
      <point x="232.07" y="301.781"/>
      <point x="299.499" y="379.324"/>
      <point x="314" y="396" type="curve" name="n23"/>
      <point x="302.637" y="394.557"/>
      <point x="260.128" y="389.159"/>
      <point x="251" y="388" type="curve" name="n26"/>
      <point x="216" y="407"/>
      <point x="196" y="425"/>
      <point x="173" y="425" type="curve" smooth="yes"/>
      <point x="159" y="425"/>
      <point x="118" y="415"/>
      <point x="109" y="401" type="curve"/>
      <point x="168" y="347" type="line"/>
      <point x="162" y="337"/>
      <point x="125" y="309"/>
      <point x="92" y="309" type="curve" smooth="yes"/>
      <point x="49" y="309"/>
      <point x="30" y="351"/>
      <point x="30" y="378" type="curve" smooth="yes"/>
      <point x="30" y="441"/>
      <point x="110" y="500"/>
      <point x="203" y="500" type="curve" smooth="yes" name="n42"/>
      <point x="271" y="500"/>
      <point x="327" y="457"/>
      <point x="340" y="457" type="curve" smooth="yes"/>
      <point x="349" y="457"/>
      <point x="356" y="458"/>
      <point x="361" y="463" type="curve"/>
      <point x="388" y="526" type="line"/>
      <point x="406.697" y="516.481"/>
      <point x="481.656" y="478.321"/>
      <point x="498" y="470" type="curve" name="n52"/>
      <point x="476.021" y="444.824"/>
      <point x="360.274" y="312.241"/>
      <point x="333" y="281" type="curve"/>
      <point x="392" y="281" type="line"/>
      <point x="392" y="276.873"/>
      <point x="392" y="234.248"/>
      <point x="392" y="222" type="curve" name="n59"/>
      <point x="368.992" y="222"/>
      <point x="297.137" y="222"/>
      <point x="282" y="222" type="curve"/>
      <point x="266.459" y="204.278"/>
      <point x="190.42" y="117.567"/>
      <point x="168" y="92" type="curve" name="n65"/>
      <point x="179.495" y="93.4597"/>
      <point x="223.336" y="99.0268" name="hr07"/>
      <point x="231" y="100" type="curve" name="n68"/>
      <point x="267" y="81"/>
      <point x="287" y="63"/>
      <point x="310" y="63" type="curve" smooth="yes"/>
      <point x="324" y="63"/>
      <point x="365" y="72"/>
      <point x="374" y="87" type="curve"/>
      <point x="314" y="141" type="line"/>
      <point x="321" y="151"/>
      <point x="358" y="179"/>
      <point x="391" y="179" type="curve" smooth="yes"/>
      <point x="434" y="179"/>
      <point x="453" y="137"/>
      <point x="453" y="110" type="curve" smooth="yes" name="n81"/>
      <point x="453" y="46"/>
      <point x="373" y="-12"/>
    </contour>
  </outline>
</glyph>
<glyph name="uni01B8" format="2">
  <advance width="705"/>
  <unicode hex="01B8"/>
  <outline>
    <contour>
      <point x="696" y="671" type="line" name="n00"/>
      <point x="651" y="440" type="line" name="n01"/>
      <point x="573" y="440" type="line"/>
      <point x="576" y="547" type="line"/>
      <point x="576" y="560"/>
      <point x="566" y="567" name="hr01"/>
      <point x="558" y="567" type="curve" smooth="yes"/>
      <point x="299" y="567" type="line" name="n07"/>
      <point x="489" y="270" type="line"/>
      <point x="436" y="207" type="line"/>
      <point x="412" y="233"/>
      <point x="409" y="238"/>
      <point x="394" y="238" type="curve" smooth="yes" name="n12"/>
      <point x="317" y="238"/>
      <point x="183" y="151"/>
      <point x="183" y="17" type="curve" smooth="yes" name="n15"/>
      <point x="183" y="-72"/>
      <point x="232" y="-157"/>
      <point x="306" y="-157" type="curve" smooth="yes" name="n18"/>
      <point x="324" y="-157"/>
      <point x="364" y="-153"/>
      <point x="399" y="-133" type="curve"/>
      <point x="440" y="-12" type="line"/>
      <point x="458" y="1"/>
      <point x="507" y="6"/>
      <point x="518" y="6" type="curve" smooth="yes"/>
      <point x="557" y="6"/>
      <point x="583" y="-25"/>
      <point x="583" y="-59" type="curve" smooth="yes"/>
      <point x="583" y="-140"/>
      <point x="479" y="-229"/>
      <point x="295" y="-229" type="curve" smooth="yes" name="n31"/>
      <point x="114" y="-229"/>
      <point x="20" y="-113"/>
      <point x="20" y="11" type="curve" smooth="yes" name="n34"/>
      <point x="20" y="174"/>
      <point x="177" y="284"/>
      <point x="346" y="302" type="curve" name="n37"/>
      <point x="162" y="597" type="line"/>
      <point x="190" y="671" type="line" name="n39"/>
    </contour>
  </outline>
</glyph>
<glyph name="uni01BA" format="2">
  <advance width="515"/>
  <unicode hex="01BA"/>
  <outline>
    <contour>
      <point x="549" y="447" type="line"/>
      <point x="332" y="250" type="line"/>
      <point x="391" y="250"/>
      <point x="443" y="225"/>
      <point x="443" y="157" type="curve" smooth="yes" name="n04"/>
      <point x="443" y="-23"/>
      <point x="146" y="2"/>
      <point x="146" y="-118" type="curve" smooth="yes" name="n07"/>
      <point x="146" y="-146"/>
      <point x="176" y="-180"/>
      <point x="206" y="-180" type="curve" smooth="yes" name="n10"/>
      <point x="244" y="-180"/>
      <point x="278" y="-175"/>
      <point x="306" y="-154" type="curve" name="hr01"/>
      <point x="306" y="-74" type="line" name="n14"/>
      <point x="318" y="-58"/>
      <point x="333" y="-46" name="hr02"/>
      <point x="359" y="-46" type="curve" smooth="yes"/>
      <point x="398" y="-46"/>
      <point x="414" y="-85" name="hr03"/>
      <point x="414" y="-115" type="curve" smooth="yes" name="n20"/>
      <point x="414" y="-155"/>
      <point x="322" y="-229"/>
      <point x="211" y="-229" type="curve" smooth="yes" name="n23"/>
      <point x="115" y="-229"/>
      <point x="38" y="-174"/>
      <point x="38" y="-101" type="curve" smooth="yes" name="n26"/>
      <point x="38" y="62"/>
      <point x="333" y="52" name="hr04"/>
      <point x="333" y="145" type="curve" smooth="yes" name="n29"/>
      <point x="333" y="173"/>
      <point x="291" y="201"/>
      <point x="259" y="201" type="curve" smooth="yes"/>
      <point x="245" y="201"/>
      <point x="217" y="183"/>
      <point x="194" y="162" type="curve"/>
      <point x="150" y="200" type="line"/>
      <point x="364" y="390" type="line"/>
      <point x="337" y="389"/>
      <point x="299" y="393"/>
      <point x="278" y="393" type="curve" smooth="yes" name="n40"/>
      <point x="227" y="393"/>
      <point x="195" y="416" name="hr05"/>
      <point x="167" y="416" type="curve" smooth="yes" name="n43"/>
      <point x="151" y="416"/>
      <point x="144" y="404"/>
      <point x="136" y="391" type="curve"/>
      <point x="187" y="329" type="line"/>
      <point x="174" y="308"/>
      <point x="137" y="290" name="hr06"/>
      <point x="113" y="290" type="curve" smooth="yes" name="n50"/>
      <point x="77" y="290"/>
      <point x="39" y="321"/>
      <point x="39" y="354" type="curve" smooth="yes"/>
      <point x="39" y="423"/>
      <point x="96" y="500"/>
      <point x="196" y="500" type="curve" smooth="yes" name="n56"/>
      <point x="273" y="500"/>
      <point x="343" y="449"/>
      <point x="390" y="449" type="curve" smooth="yes"/>
      <point x="394" y="449"/>
      <point x="410" y="453"/>
      <point x="413" y="454" type="curve"/>
      <point x="458" y="516" type="line"/>
    </contour>
  </outline>
</glyph>
<glyph name="uni01BC" format="2">
  <advance width="650"/>
  <unicode hex="01BC"/>
  <outline>
    <contour>
      <point x="275" y="586" type="curve"/>
      <point x="250" y="459" type="line" name="n01"/>
      <point x="373" y="448"/>
      <point x="550" y="391"/>
      <point x="550" y="231" type="curve" smooth="yes" name="n04"/>
      <point x="550" y="73"/>
      <point x="408" y="-16"/>
      <point x="213" y="-16" type="curve" smooth="yes" name="n07"/>
      <point x="99" y="-16"/>
      <point x="10" y="33"/>
      <point x="10" y="93" type="curve" smooth="yes"/>
      <point x="10" y="145"/>
      <point x="53" y="173" name="hr01"/>
      <point x="92" y="173" type="curve" smooth="yes" name="n13"/>
      <point x="103" y="173"/>
      <point x="121" y="169"/>
      <point x="125" y="168" type="curve"/>
      <point x="143" y="82" type="line"/>
      <point x="157" y="67"/>
      <point x="199" y="49" name="hr02"/>
      <point x="239" y="49" type="curve" smooth="yes" name="n20"/>
      <point x="335" y="49"/>
      <point x="409" y="117"/>
      <point x="409" y="208" type="curve" smooth="yes" name="n23"/>
      <point x="409" y="318"/>
      <point x="283" y="378"/>
      <point x="124" y="378" type="curve" name="n26"/>
      <point x="164" y="586" type="line"/>
      <point x="166" y="594"/>
      <point x="161" y="605"/>
      <point x="146" y="607" type="curve" name="n30"/>
      <point x="91" y="611" type="line"/>
      <point x="102" y="671" type="line" name="n32"/>
      <point x="638" y="671" type="line" name="n33"/>
      <point x="608" y="496" type="line" name="n34"/>
      <point x="535" y="496" type="line"/>
      <point x="537" y="588" type="line"/>
      <point x="537" y="598"/>
      <point x="530" y="607" name="hr04"/>
      <point x="521" y="607" type="curve" smooth="yes"/>
      <point x="302" y="607" type="line" smooth="yes"/>
      <point x="287" y="607"/>
      <point x="276" y="594"/>
    </contour>
  </outline>
</glyph>
<glyph name="uni01BF" format="2">
  <advance width="564"/>
  <unicode hex="01BF"/>
  <outline>
    <contour>
      <point x="198" y="-174" type="line"/>
      <point x="198" y="-219" type="line"/>
      <point x="-96" y="-219" type="line"/>
      <point x="-96" y="-174" type="line"/>
      <point x="-36" y="-169" type="line" smooth="yes"/>
      <point x="-26" y="-168"/>
      <point x="-21" y="-161"/>
      <point x="-19" y="-152" type="curve" smooth="yes"/>
      <point x="94" y="424" type="line"/>
      <point x="11" y="433" type="line"/>
      <point x="11" y="467" type="line"/>
      <point x="176" y="500" type="line"/>
      <point x="243" y="500" type="line"/>
      <point x="231" y="439" type="line"/>
      <point x="270" y="470"/>
      <point x="332" y="500"/>
      <point x="394" y="500" type="curve" smooth="yes" name="n16"/>
      <point x="495" y="500"/>
      <point x="538" y="442"/>
      <point x="538" y="368" type="curve" smooth="yes" name="n19"/>
      <point x="538" y="159"/>
      <point x="308" y="0"/>
      <point x="125" y="-94" type="curve"/>
      <point x="114" y="-152" type="line"/>
      <point x="113" y="-160"/>
      <point x="115" y="-167"/>
      <point x="129" y="-168" type="curve" smooth="yes"/>
    </contour>
    <contour>
      <point x="215" y="354" type="curve"/>
      <point x="140" y="-20" type="line"/>
      <point x="291" y="79"/>
      <point x="395" y="205"/>
      <point x="395" y="348" type="curve" smooth="yes" name="n31"/>
      <point x="395" y="395"/>
      <point x="368" y="420"/>
      <point x="339" y="420" type="curve" smooth="yes" name="n34"/>
      <point x="307" y="420"/>
      <point x="254" y="394"/>
    </contour>
  </outline>
</glyph>
<glyph name="uni01C7" format="2">
  <advance width="1069"/>
  <unicode hex="01C7"/>
  <outline>
    <contour>
      <point x="528" y="202" type="line"/>
      <point x="488" y="0" type="line" name="n01"/>
      <point x="-15" y="0" type="line"/>
      <point x="-15" y="50" type="line"/>
      <point x="12" y="53"/>
      <point x="42" y="54"/>
      <point x="42" y="54" type="curve"/>
      <point x="61" y="56"/>
      <point x="65" y="58"/>
      <point x="67" y="71" type="curve"/>
      <point x="171" y="601" type="line"/>
      <point x="174" y="612"/>
      <point x="166" y="615"/>
      <point x="155" y="616" type="curve" name="n13"/>
      <point x="155" y="616"/>
      <point x="125" y="618"/>
      <point x="96" y="621" type="curve"/>
      <point x="96" y="671" type="line" name="n17"/>
      <point x="398" y="671" type="line"/>
      <point x="398" y="621" type="line"/>
      <point x="365" y="618"/>
      <point x="333" y="616"/>
      <point x="333" y="616" type="curve"/>
      <point x="324" y="615"/>
      <point x="317" y="612"/>
      <point x="314" y="600" type="curve"/>
      <point x="208" y="60" type="line" name="hr01"/>
      <point x="384" y="60" type="line" smooth="yes" name="n27"/>
      <point x="394" y="60"/>
      <point x="409" y="66"/>
      <point x="412" y="74" type="curve"/>
      <point x="453" y="202" type="line" name="n31"/>
    </contour>
    <contour>
      <point x="1109" y="621" type="line"/>
      <point x="1041" y="615" type="line"/>
      <point x="1032" y="615"/>
      <point x="1029" y="609"/>
      <point x="1027" y="600" type="curve"/>
      <point x="963" y="257" type="line" smooth="yes"/>
      <point x="934" y="99"/>
      <point x="890" y="-16" name="hr03"/>
      <point x="693" y="-16" type="curve" smooth="yes" name="n40"/>
      <point x="604" y="-16"/>
      <point x="554" y="11"/>
      <point x="540" y="18" type="curve"/>
      <point x="574" y="192" type="line"/>
      <point x="656" y="192" type="line"/>
      <point x="656" y="66" type="line" smooth="yes"/>
      <point x="656" y="55"/>
      <point x="685" y="46"/>
      <point x="700" y="46" type="curve" smooth="yes" name="n49"/>
      <point x="758" y="46"/>
      <point x="793" y="112"/>
      <point x="818" y="249" type="curve" smooth="yes"/>
      <point x="884" y="601" type="line" smooth="yes"/>
      <point x="886" y="613"/>
      <point x="879" y="615"/>
      <point x="866" y="616" type="curve"/>
      <point x="866" y="616"/>
      <point x="835" y="618"/>
      <point x="807" y="621" type="curve"/>
      <point x="807" y="671" type="line"/>
      <point x="1109" y="671" type="line"/>
    </contour>
  </outline>
</glyph>
<glyph name="uni01C8" format="2">
  <advance width="877"/>
  <unicode hex="01C8"/>
  <outline>
    <contour>
      <point x="528" y="202" type="line"/>
      <point x="488" y="0" type="line" name="n01"/>
      <point x="-15" y="0" type="line"/>
      <point x="-15" y="50" type="line"/>
      <point x="12" y="53"/>
      <point x="42" y="54"/>
      <point x="42" y="54" type="curve"/>
      <point x="61" y="56"/>
      <point x="65" y="58"/>
      <point x="67" y="71" type="curve"/>
      <point x="171" y="601" type="line"/>
      <point x="174" y="612"/>
      <point x="166" y="615"/>
      <point x="155" y="616" type="curve"/>
      <point x="155" y="616"/>
      <point x="125" y="618"/>
      <point x="96" y="621" type="curve"/>
      <point x="96" y="671" type="line" name="n17"/>
      <point x="398" y="671" type="line"/>
      <point x="398" y="621" type="line"/>
      <point x="365" y="618"/>
      <point x="333" y="616"/>
      <point x="333" y="616" type="curve"/>
      <point x="324" y="615"/>
      <point x="317" y="612"/>
      <point x="314" y="600" type="curve"/>
      <point x="208" y="60" type="line"/>
      <point x="384" y="60" type="line" smooth="yes" name="n27"/>
      <point x="394" y="60"/>
      <point x="409" y="66"/>
      <point x="412" y="74" type="curve"/>
      <point x="453" y="202" type="line" name="n31"/>
    </contour>
    <contour>
      <point x="871" y="663" type="curve" smooth="yes" name="n32"/>
      <point x="871" y="620"/>
      <point x="835" y="585"/>
      <point x="792" y="585" type="curve" smooth="yes" name="n35"/>
      <point x="749" y="585"/>
      <point x="715" y="620"/>
      <point x="715" y="663" type="curve" smooth="yes" name="n38"/>
      <point x="715" y="706"/>
      <point x="749" y="740"/>
      <point x="792" y="740" type="curve" smooth="yes" name="n41"/>
      <point x="835" y="740"/>
      <point x="871" y="706"/>
    </contour>
    <contour>
      <point x="835" y="500" type="line" name="n44"/>
      <point x="764" y="84" type="line"/>
      <point x="746" y="-17"/>
      <point x="656" y="-229" name="n47"/>
      <point x="518" y="-229" type="curve" smooth="yes"/>
      <point x="471" y="-229"/>
      <point x="431" y="-204"/>
      <point x="431" y="-171" type="curve" smooth="yes"/>
      <point x="431" y="-146"/>
      <point x="449" y="-132"/>
      <point x="472" y="-117" type="curve"/>
      <point x="567" y="-142" type="line"/>
      <point x="585" y="-114"/>
      <point x="606" y="-55"/>
      <point x="615" y="-6" type="curve" smooth="yes"/>
      <point x="689" y="422" type="line"/>
      <point x="603" y="431" type="line"/>
      <point x="603" y="467" type="line"/>
      <point x="769" y="500" type="line"/>
    </contour>
  </outline>
</glyph>
<glyph name="uni01CB" format="2">
  <advance width="1070"/>
  <unicode hex="01CB"/>
  <outline>
    <contour>
      <point x="797" y="621" type="line"/>
      <point x="732" y="615" type="line" smooth="yes"/>
      <point x="723" y="614"/>
      <point x="717" y="609"/>
      <point x="715" y="600" type="curve" smooth="yes"/>
      <point x="596" y="0" type="line" name="n05"/>
      <point x="485" y="0" type="line"/>
      <point x="261" y="465" type="line"/>
      <point x="184" y="70" type="line"/>
      <point x="182" y="58"/>
      <point x="188" y="56"/>
      <point x="202" y="55" type="curve"/>
      <point x="202" y="55"/>
      <point x="231" y="53"/>
      <point x="260" y="50" type="curve"/>
      <point x="260" y="0" type="line"/>
      <point x="-14" y="0" type="line"/>
      <point x="-14" y="50" type="line"/>
      <point x="14" y="53"/>
      <point x="43" y="55"/>
      <point x="43" y="55" type="curve"/>
      <point x="57" y="56"/>
      <point x="65" y="58"/>
      <point x="68" y="71" type="curve"/>
      <point x="171" y="601" type="line"/>
      <point x="174" y="613"/>
      <point x="166" y="615"/>
      <point x="153" y="616" type="curve" name="n27"/>
      <point x="153" y="616"/>
      <point x="124" y="618"/>
      <point x="96" y="621" type="curve"/>
      <point x="96" y="671" type="line" name="n31"/>
      <point x="331" y="671" type="line"/>
      <point x="331" y="640" type="line"/>
      <point x="526" y="233" type="line"/>
      <point x="599" y="601" type="line"/>
      <point x="602" y="613"/>
      <point x="592" y="615"/>
      <point x="580" y="616" type="curve"/>
      <point x="580" y="616"/>
      <point x="550" y="618"/>
      <point x="523" y="621" type="curve"/>
      <point x="523" y="671" type="line"/>
      <point x="797" y="671" type="line"/>
    </contour>
    <contour>
      <point x="1064" y="663" type="curve" smooth="yes" name="n44"/>
      <point x="1064" y="620"/>
      <point x="1028" y="585" name="hr01"/>
      <point x="985" y="585" type="curve" smooth="yes" name="n47"/>
      <point x="942" y="585"/>
      <point x="908" y="620"/>
      <point x="908" y="663" type="curve" smooth="yes" name="n50"/>
      <point x="908" y="706"/>
      <point x="942" y="740"/>
      <point x="985" y="740" type="curve" smooth="yes" name="n53"/>
      <point x="1028" y="740"/>
      <point x="1064" y="706"/>
    </contour>
    <contour>
      <point x="1028" y="500" type="line" name="n56"/>
      <point x="957" y="84" type="line"/>
      <point x="939" y="-17"/>
      <point x="849" y="-229" name="n59"/>
      <point x="711" y="-229" type="curve" smooth="yes"/>
      <point x="664" y="-229"/>
      <point x="624" y="-204"/>
      <point x="624" y="-171" type="curve" smooth="yes"/>
      <point x="624" y="-146"/>
      <point x="642" y="-132"/>
      <point x="665" y="-117" type="curve"/>
      <point x="760" y="-142" type="line"/>
      <point x="778" y="-114"/>
      <point x="799" y="-55"/>
      <point x="808" y="-6" type="curve" smooth="yes"/>
      <point x="882" y="422" type="line"/>
      <point x="796" y="431" type="line"/>
      <point x="796" y="467" type="line"/>
      <point x="962" y="500" type="line"/>
    </contour>
  </outline>
</glyph>
<glyph name="uni01D7" format="2">
  <advance width="749"/>
  <unicode hex="01D7"/>
  <outline>
    <contour>
      <point x="791" y="621" type="line"/>
      <point x="725" y="616" type="line"/>
      <point x="716" y="615"/>
      <point x="711" y="609"/>
      <point x="709" y="600" type="curve" smooth="yes"/>
      <point x="632" y="215" type="line" smooth="yes"/>
      <point x="605" y="76"/>
      <point x="516" y="-16"/>
      <point x="332" y="-16" type="curve" smooth="yes" name="n08"/>
      <point x="184" y="-16"/>
      <point x="92" y="38"/>
      <point x="92" y="162" type="curve" smooth="yes" name="n11"/>
      <point x="92" y="181"/>
      <point x="96" y="220"/>
      <point x="105" y="265" type="curve" smooth="yes"/>
      <point x="175" y="601" type="line"/>
      <point x="177" y="613"/>
      <point x="169" y="615"/>
      <point x="155" y="616" type="curve" name="n18"/>
      <point x="155" y="616"/>
      <point x="126" y="618"/>
      <point x="99" y="621" type="curve"/>
      <point x="99" y="671" type="line" name="n22"/>
      <point x="401" y="671" type="line"/>
      <point x="401" y="621" type="line"/>
      <point x="370" y="618"/>
      <point x="339" y="616"/>
      <point x="339" y="616" type="curve"/>
      <point x="327" y="615"/>
      <point x="320" y="612"/>
      <point x="318" y="600" type="curve"/>
      <point x="249" y="265" type="line" smooth="yes"/>
      <point x="241" y="227"/>
      <point x="238" y="195"/>
      <point x="238" y="177" type="curve" smooth="yes" name="n34"/>
      <point x="238" y="92"/>
      <point x="298" y="59"/>
      <point x="358" y="59" type="curve" smooth="yes" name="n37"/>
      <point x="462" y="59"/>
      <point x="507" y="140"/>
      <point x="529" y="250" type="curve" smooth="yes"/>
      <point x="599" y="601" type="line"/>
      <point x="601" y="613"/>
      <point x="596" y="615"/>
      <point x="580" y="616" type="curve"/>
      <point x="580" y="616"/>
      <point x="550" y="618"/>
      <point x="523" y="621" type="curve"/>
      <point x="523" y="671" type="line"/>
      <point x="791" y="671" type="line"/>
    </contour>
    <contour>
      <point x="659" y="849" type="curve" smooth="yes" name="n50"/>
      <point x="659" y="811"/>
      <point x="628" y="780"/>
      <point x="590" y="780" type="curve" smooth="yes" name="n53"/>
      <point x="552" y="780"/>
      <point x="522" y="811"/>
      <point x="522" y="849" type="curve" smooth="yes" name="n56"/>
      <point x="522" y="887"/>
      <point x="552" y="918"/>
      <point x="590" y="918" type="curve" smooth="yes" name="n59"/>
      <point x="628" y="918"/>
      <point x="659" y="887"/>
    </contour>
    <contour>
      <point x="449" y="849" type="curve" smooth="yes" name="n62"/>
      <point x="449" y="811"/>
      <point x="418" y="780"/>
      <point x="380" y="780" type="curve" smooth="yes"/>
      <point x="342" y="780"/>
      <point x="311" y="811"/>
      <point x="311" y="849" type="curve" smooth="yes" name="n68"/>
      <point x="311" y="887"/>
      <point x="342" y="918"/>
      <point x="380" y="918" type="curve" smooth="yes"/>
      <point x="418" y="918"/>
      <point x="449" y="887"/>
    </contour>
    <contour>
      <point x="657" y="1072" type="curve" smooth="yes"/>
      <point x="657" y="1059"/>
      <point x="645" y="1038"/>
      <point x="630" y="1030" type="curve" smooth="yes"/>
      <point x="470" y="941" type="line"/>
      <point x="399" y="941" type="line"/>
      <point x="537" y="1093" type="line" smooth="yes"/>
      <point x="559" y="1118"/>
      <point x="573" y="1125" name="n82"/>
      <point x="600" y="1125" type="curve" smooth="yes"/>
      <point x="643" y="1125"/>
      <point x="657" y="1096"/>
    </contour>
  </outline>
</glyph>
<glyph name="uni01DB" format="2">
  <advance width="749"/>
  <unicode hex="01DB"/>
  <outline>
    <contour>
      <point x="791" y="621" type="line"/>
      <point x="725" y="616" type="line"/>
      <point x="716" y="615"/>
      <point x="711" y="609"/>
      <point x="709" y="600" type="curve" smooth="yes"/>
      <point x="632" y="215" type="line" smooth="yes"/>
      <point x="605" y="76"/>
      <point x="516" y="-16"/>
      <point x="332" y="-16" type="curve" smooth="yes" name="n08"/>
      <point x="184" y="-16"/>
      <point x="92" y="38"/>
      <point x="92" y="162" type="curve" smooth="yes" name="n11"/>
      <point x="92" y="181"/>
      <point x="96" y="220"/>
      <point x="105" y="265" type="curve" smooth="yes"/>
      <point x="175" y="601" type="line"/>
      <point x="177" y="613"/>
      <point x="169" y="615"/>
      <point x="155" y="616" type="curve" name="n18"/>
      <point x="155" y="616"/>
      <point x="126" y="618"/>
      <point x="99" y="621" type="curve"/>
      <point x="99" y="671" type="line" name="n22"/>
      <point x="401" y="671" type="line"/>
      <point x="401" y="621" type="line"/>
      <point x="370" y="618"/>
      <point x="339" y="616"/>
      <point x="339" y="616" type="curve"/>
      <point x="327" y="615"/>
      <point x="320" y="612"/>
      <point x="318" y="600" type="curve"/>
      <point x="249" y="265" type="line" smooth="yes"/>
      <point x="241" y="227"/>
      <point x="238" y="195"/>
      <point x="238" y="177" type="curve" smooth="yes" name="n34"/>
      <point x="238" y="92"/>
      <point x="298" y="59"/>
      <point x="358" y="59" type="curve" smooth="yes" name="n37"/>
      <point x="462" y="59"/>
      <point x="507" y="140"/>
      <point x="529" y="250" type="curve" smooth="yes"/>
      <point x="599" y="601" type="line"/>
      <point x="601" y="613"/>
      <point x="596" y="615"/>
      <point x="580" y="616" type="curve"/>
      <point x="580" y="616"/>
      <point x="550" y="618"/>
      <point x="523" y="621" type="curve"/>
      <point x="523" y="671" type="line"/>
      <point x="791" y="671" type="line"/>
    </contour>
    <contour>
      <point x="659" y="849" type="curve" smooth="yes" name="n50"/>
      <point x="659" y="811"/>
      <point x="628" y="780"/>
      <point x="590" y="780" type="curve" smooth="yes" name="n53"/>
      <point x="552" y="780"/>
      <point x="522" y="811"/>
      <point x="522" y="849" type="curve" smooth="yes" name="n56"/>
      <point x="522" y="887"/>
      <point x="552" y="918"/>
      <point x="590" y="918" type="curve" smooth="yes" name="n59"/>
      <point x="628" y="918"/>
      <point x="659" y="887"/>
    </contour>
    <contour>
      <point x="449" y="849" type="curve" smooth="yes" name="n62"/>
      <point x="449" y="811"/>
      <point x="418" y="780"/>
      <point x="380" y="780" type="curve" smooth="yes"/>
      <point x="342" y="780"/>
      <point x="311" y="811"/>
      <point x="311" y="849" type="curve" smooth="yes" name="n68"/>
      <point x="311" y="887"/>
      <point x="342" y="918"/>
      <point x="380" y="918" type="curve" smooth="yes"/>
      <point x="418" y="918"/>
      <point x="449" y="887"/>
    </contour>
    <contour>
      <point x="595" y="941" type="line"/>
      <point x="525" y="941" type="line"/>
      <point x="363" y="1030" type="line" smooth="yes"/>
      <point x="349" y="1038"/>
      <point x="338" y="1059"/>
      <point x="338" y="1072" type="curve" smooth="yes"/>
      <point x="338" y="1096"/>
      <point x="352" y="1125" name="n81"/>
      <point x="395" y="1125" type="curve" smooth="yes"/>
      <point x="422" y="1125"/>
      <point x="435" y="1118"/>
      <point x="458" y="1093" type="curve" smooth="yes"/>
    </contour>
  </outline>
</glyph>
<glyph name="uni01E0" format="2">
  <advance width="714"/>
  <unicode hex="01E0"/>
  <outline>
    <contour>
      <point x="668" y="0" type="line" name="n00"/>
      <point x="391" y="0" type="line"/>
      <point x="391" y="50" type="line"/>
      <point x="412" y="52"/>
      <point x="437" y="55"/>
      <point x="437" y="55" type="curve"/>
      <point x="450" y="56"/>
      <point x="458" y="58"/>
      <point x="456" y="70" type="curve" smooth="yes"/>
      <point x="427" y="253" type="line" name="n09"/>
      <point x="238" y="253" type="line"/>
      <point x="139" y="70" type="line"/>
      <point x="133" y="60"/>
      <point x="139" y="56"/>
      <point x="152" y="55" type="curve"/>
      <point x="152" y="55"/>
      <point x="179" y="52"/>
      <point x="204" y="50" type="curve"/>
      <point x="204" y="0" type="line"/>
      <point x="-53" y="0" type="line"/>
      <point x="-53" y="50" type="line"/>
      <point x="5" y="56" type="line"/>
      <point x="375" y="687" type="line" name="n22"/>
      <point x="493" y="687" type="line"/>
      <point x="602" y="71" type="line" smooth="yes"/>
      <point x="604" y="58"/>
      <point x="607" y="56"/>
      <point x="622" y="54" type="curve"/>
      <point x="622" y="54"/>
      <point x="646" y="52"/>
      <point x="668" y="50" type="curve"/>
    </contour>
    <contour>
      <point x="416" y="310" type="line" name="n31"/>
      <point x="383" y="504" type="line"/>
      <point x="271" y="310" type="line"/>
    </contour>
    <contour>
      <point x="646" y="1057" type="line" name="n34"/>
      <point x="631" y="977" type="line" name="n35"/>
      <point x="290" y="977" type="line"/>
      <point x="306" y="1057" type="line"/>
    </contour>
    <contour>
      <point x="512" y="848" type="curve" smooth="yes" name="n38"/>
      <point x="512" y="811"/>
      <point x="483" y="780"/>
      <point x="445" y="780" type="curve" smooth="yes" name="n41"/>
      <point x="406" y="780"/>
      <point x="377" y="809"/>
      <point x="377" y="848" type="curve" smooth="yes" name="n44"/>
      <point x="377" y="888"/>
      <point x="404" y="921"/>
      <point x="444" y="921" type="curve" smooth="yes" name="n47"/>
      <point x="483" y="921"/>
      <point x="512" y="889"/>
    </contour>
  </outline>
</glyph>
<glyph name="uni01EE" format="2">
  <advance width="615"/>
  <unicode hex="01EE"/>
  <outline>
    <contour>
      <point x="615" y="597" type="line"/>
      <point x="314" y="296" type="line" name="n01"/>
      <point x="442" y="286"/>
      <point x="550" y="201"/>
      <point x="550" y="96" type="curve" smooth="yes"/>
      <point x="550" y="-57"/>
      <point x="391" y="-229"/>
      <point x="167" y="-229" type="curve" smooth="yes" name="n07"/>
      <point x="3" y="-229"/>
      <point x="-65" y="-146"/>
      <point x="-65" y="-100" type="curve" smooth="yes"/>
      <point x="-65" y="-53"/>
      <point x="-30" y="6" name="hr01"/>
      <point x="24" y="6" type="curve" smooth="yes" name="n13"/>
      <point x="35" y="6"/>
      <point x="79" y="5"/>
      <point x="92" y="-8" type="curve"/>
      <point x="105" y="-133" type="line"/>
      <point x="132" y="-153"/>
      <point x="170" y="-157" name="hr02"/>
      <point x="188" y="-157" type="curve" smooth="yes" name="n20"/>
      <point x="280" y="-157"/>
      <point x="385" y="-32"/>
      <point x="385" y="94" type="curve" smooth="yes"/>
      <point x="385" y="197"/>
      <point x="271" y="232"/>
      <point x="241" y="232" type="curve" smooth="yes" name="n26"/>
      <point x="226" y="232"/>
      <point x="222" y="227"/>
      <point x="188" y="201" type="curve"/>
      <point x="144" y="264" type="line"/>
      <point x="452" y="567" type="line"/>
      <point x="208" y="567" type="line" smooth="yes" name="n32"/>
      <point x="200" y="567"/>
      <point x="186" y="560"/>
      <point x="182" y="547" type="curve"/>
      <point x="144" y="440" type="line" name="n36"/>
      <point x="66" y="440" type="line"/>
      <point x="110" y="671" type="line" name="n38"/>
      <point x="615" y="671" type="line"/>
    </contour>
    <contour>
      <point x="583" y="917" type="line" name="n40"/>
      <point x="438" y="746" type="line"/>
      <point x="319" y="746" type="line"/>
      <point x="242" y="917" type="line"/>
      <point x="325" y="917" type="line"/>
      <point x="395" y="823" type="line"/>
      <point x="500" y="917" type="line"/>
    </contour>
  </outline>
</glyph>
<glyph name="uni0221" format="2">
  <advance width="615"/>
  <unicode hex="0221"/>
  <outline>
    <contour>
      <point x="631" y="133" type="curve" smooth="yes" name="n00"/>
      <point x="631" y="45"/>
      <point x="547" y="-12"/>
      <point x="442" y="-12" type="curve" smooth="yes" name="n03"/>
      <point x="377" y="-12"/>
      <point x="335" y="3"/>
      <point x="322" y="36" type="curve" name="n06"/>
      <point x="285" y="-6"/>
      <point x="249" y="-61"/>
      <point x="215" y="-121" type="curve"/>
      <point x="146" y="-95" type="line"/>
      <point x="161" y="-66"/>
      <point x="177" y="-38"/>
      <point x="196" y="-12" type="curve"/>
      <point x="184" y="-12"/>
      <point x="173" y="-11"/>
      <point x="163" y="-9" type="curve" smooth="yes" name="n16"/>
      <point x="71" y="7"/>
      <point x="32" y="92"/>
      <point x="32" y="169" type="curve" smooth="yes" name="n19"/>
      <point x="32" y="322"/>
      <point x="133" y="500"/>
      <point x="335" y="500" type="curve" smooth="yes" name="n22"/>
      <point x="360" y="500"/>
      <point x="380" y="492"/>
      <point x="393" y="488" type="curve"/>
      <point x="423" y="661" type="line"/>
      <point x="333" y="669" type="line"/>
      <point x="333" y="705" type="line"/>
      <point x="502" y="737" type="line" name="n29"/>
      <point x="570" y="737" type="line"/>
      <point x="530.785" y="514.096"/>
      <point x="476.024" y="202.818"/>
      <point x="475" y="197" type="curve"/>
      <point x="509" y="207"/>
      <point x="508" y="210" name="hr02"/>
      <point x="542" y="210" type="curve" smooth="yes" name="n36"/>
      <point x="591" y="210"/>
      <point x="631" y="170"/>
    </contour>
    <contour>
      <point x="542" y="124" type="curve" smooth="yes"/>
      <point x="542" y="140"/>
      <point x="546" y="158"/>
      <point x="522" y="158" type="curve" smooth="yes" name="n42"/>
      <point x="509" y="158"/>
      <point x="476" y="140"/>
      <point x="463" y="134" type="curve" name="n45"/>
      <point x="459" y="111"/>
      <point x="458" y="96"/>
      <point x="458" y="92" type="curve" smooth="yes" name="n48"/>
      <point x="458" y="61"/>
      <point x="462" y="48"/>
      <point x="476" y="48" type="curve" smooth="yes"/>
      <point x="515" y="48"/>
      <point x="542" y="83"/>
    </contour>
    <contour>
      <point x="376" y="394" type="curve" smooth="yes" name="n54"/>
      <point x="377" y="399"/>
      <point x="357" y="443" name="hr04"/>
      <point x="333" y="443" type="curve" smooth="yes" name="n57"/>
      <point x="263" y="443"/>
      <point x="170" y="334"/>
      <point x="170" y="175" type="curve" smooth="yes"/>
      <point x="170" y="94"/>
      <point x="190" y="59"/>
      <point x="227" y="59" type="curve" smooth="yes" name="n63"/>
      <point x="261" y="59"/>
      <point x="296" y="96"/>
      <point x="330" y="135" type="curve" name="n66"/>
      <point x="337.553" y="177.529"/>
      <point x="368.271" y="350.482"/>
    </contour>
  </outline>
</glyph>
<glyph name="uni0222" format="2">
  <advance width="645"/>
  <unicode hex="0222"/>
  <outline>
    <contour>
      <point x="436" y="357" type="curve" name="n00"/>
      <point x="519" y="345"/>
      <point x="591" y="290"/>
      <point x="591" y="198" type="curve" smooth="yes"/>
      <point x="591" y="63"/>
      <point x="431" y="-16"/>
      <point x="283" y="-16" type="curve" smooth="yes" name="n06"/>
      <point x="150" y="-16"/>
      <point x="48" y="52"/>
      <point x="48" y="159" type="curve" smooth="yes" name="n09"/>
      <point x="48" y="279"/>
      <point x="157" y="343"/>
      <point x="270" y="357" type="curve" name="n12"/>
      <point x="208" y="366"/>
      <point x="139" y="407"/>
      <point x="139" y="496" type="curve" smooth="yes"/>
      <point x="139" y="630"/>
      <point x="287" y="687"/>
      <point x="416" y="687" type="curve" smooth="yes" name="n18"/>
      <point x="528" y="687"/>
      <point x="626" y="625"/>
      <point x="626" y="530" type="curve" smooth="yes" name="n21"/>
      <point x="626" y="420"/>
      <point x="521" y="369"/>
    </contour>
    <contour>
      <point x="479" y="530" type="curve" smooth="yes" name="n24"/>
      <point x="479" y="588"/>
      <point x="446" y="636"/>
      <point x="400" y="636" type="curve" smooth="yes" name="n27"/>
      <point x="343" y="636" name="hr04"/>
      <point x="283" y="584"/>
      <point x="283" y="496" type="curve" smooth="yes" name="n30"/>
      <point x="283" y="438"/>
      <point x="307" y="384"/>
      <point x="354" y="384" type="curve" smooth="yes" name="n33"/>
      <point x="423" y="384" name="hr06"/>
      <point x="479" y="455"/>
    </contour>
    <contour>
      <point x="297" y="40" type="curve" smooth="yes" name="n36"/>
      <point x="373" y="40"/>
      <point x="437" y="111"/>
      <point x="437" y="204" type="curve" smooth="yes" name="n39"/>
      <point x="437" y="274" name="hr07"/>
      <point x="396" y="331"/>
      <point x="338" y="331" type="curve" smooth="yes" name="n42"/>
      <point x="258" y="331"/>
      <point x="202" y="251"/>
      <point x="202" y="160" type="curve" smooth="yes" name="n45"/>
      <point x="202" y="90"/>
      <point x="241" y="40"/>
    </contour>
  </outline>
</glyph>
<glyph name="uni0239" format="2">
  <advance width="833"/>
  <unicode hex="0239"/>
  <outline>
    <contour>
      <point x="197" y="-219" type="line"/>
      <point x="197" y="-174" type="line"/>
      <point x="204.785" y="-173.234"/>
      <point x="246.804" y="-169.101"/>
      <point x="258" y="-168" type="curve" smooth="yes" name="n04"/>
      <point x="268" y="-167"/>
      <point x="273" y="-161"/>
      <point x="275" y="-152" type="curve" smooth="yes" name="n07"/>
      <point x="281.144" y="-121.456"/>
      <point x="304.078" y="-7.44165"/>
      <point x="310" y="22" type="curve" name="n10"/>
      <point x="270" y="-1"/>
      <point x="229" y="-14"/>
      <point x="185.934" y="-14" type="curve" smooth="yes"/>
      <point x="86" y="-14"/>
      <point x="34" y="56" name="hr02"/>
      <point x="34" y="164.555" type="curve" smooth="yes"/>
      <point x="34" y="321"/>
      <point x="142" y="500"/>
      <point x="331.036" y="500" type="curve" smooth="yes"/>
      <point x="371" y="500"/>
      <point x="402" y="492"/>
      <point x="425" y="482" type="curve"/>
      <point x="441" y="500" type="line"/>
      <point x="537" y="500" type="line"/>
      <point x="529" y="463" type="line"/>
      <point x="550" y="475"/>
      <point x="596" y="500"/>
      <point x="649" y="500" type="curve" smooth="yes"/>
      <point x="754" y="500"/>
      <point x="802" y="402"/>
      <point x="802" y="304.507" type="curve" smooth="yes"/>
      <point x="802" y="151"/>
      <point x="683" y="-12"/>
      <point x="497.983" y="-12" type="curve" smooth="yes"/>
      <point x="469" y="-12"/>
      <point x="450" y="-8"/>
      <point x="437" y="-4" type="curve" name="n37"/>
      <point x="432.371" y="-26.8388"/>
      <point x="413.868" y="-118.12"/>
      <point x="407" y="-152" type="curve" name="n40"/>
      <point x="407" y="-162.759"/>
      <point x="410.879" y="-167.033" name="hr03"/>
      <point x="422" y="-168" type="curve" smooth="yes" name="n43"/>
      <point x="437.575" y="-169.354"/>
      <point x="483.568" y="-173.354"/>
      <point x="491" y="-174" type="curve"/>
      <point x="491" y="-219" type="line"/>
    </contour>
    <contour>
      <point x="383" y="390" type="line" smooth="yes"/>
      <point x="385.006" y="400.029"/>
      <point x="366" y="445" name="hr04"/>
      <point x="351" y="445" type="curve" smooth="yes" name="n51"/>
      <point x="266" y="445"/>
      <point x="171" y="335"/>
      <point x="171" y="165.647" type="curve" smooth="yes" name="n54"/>
      <point x="171" y="103"/>
      <point x="184" y="56" name="hr05"/>
      <point x="231.774" y="56" type="curve" smooth="yes" name="n57"/>
      <point x="273" y="56"/>
      <point x="304.787" y="90"/>
      <point x="328" y="115" type="curve"/>
    </contour>
    <contour>
      <point x="662" y="307" type="curve" smooth="yes" name="n61"/>
      <point x="662" y="363"/>
      <point x="655" y="430" name="hr06"/>
      <point x="608.261" y="430" type="curve" smooth="yes" name="n64"/>
      <point x="574" y="430"/>
      <point x="532" y="394"/>
      <point x="512" y="376" type="curve"/>
      <point x="451" y="68" type="line"/>
      <point x="467" y="58"/>
      <point x="494" y="41" name="hr07"/>
      <point x="519.754" y="41" type="curve" smooth="yes" name="n71"/>
      <point x="596" y="41"/>
      <point x="662" y="190"/>
    </contour>
  </outline>
</glyph>
<glyph name="uni023C" format="2">
  <advance width="480"/>
  <unicode hex="023C"/>
  <outline>
    <contour>
      <point x="450" y="426" type="curve" smooth="yes"/>
      <point x="450" y="402"/>
      <point x="429" y="349"/>
      <point x="354" y="349" type="curve"/>
      <point x="299" y="427" type="line" name="n04"/>
      <point x="186" y="402"/>
      <point x="170" y="230"/>
      <point x="170" y="189" type="curve" smooth="yes" name="n07"/>
      <point x="170" y="128"/>
      <point x="176" y="62"/>
      <point x="240" y="62" type="curve" smooth="yes" name="n10"/>
      <point x="290" y="62"/>
      <point x="338" y="86"/>
      <point x="428" y="194" type="curve"/>
      <point x="428" y="94" type="line"/>
      <point x="373" y="30"/>
      <point x="304" y="-12"/>
      <point x="209" y="-12" type="curve" smooth="yes" name="n17"/>
      <point x="87" y="-12"/>
      <point x="33" y="64"/>
      <point x="33" y="178" type="curve" smooth="yes" name="n20"/>
      <point x="33" y="351"/>
      <point x="144" y="500"/>
      <point x="335" y="500" type="curve" smooth="yes" name="n23"/>
      <point x="414" y="500"/>
      <point x="450" y="458"/>
    </contour>
    <contour>
      <point x="482" y="531" type="line"/>
      <point x="82" y="-94" type="line"/>
      <point x="31" y="-60" type="line"/>
      <point x="426" y="563" type="line"/>
    </contour>
  </outline>
</glyph>
<glyph name="uni0240" format="2">
  <advance width="491"/>
  <unicode hex="0240"/>
  <outline>
    <contour>
      <point x="498" y="470" type="line"/>
      <point x="158" y="80" type="line"/>
      <point x="181" y="80"/>
      <point x="211" y="75"/>
      <point x="244" y="48" type="curve" smooth="yes"/>
      <point x="302" y="-1"/>
      <point x="312" y="-60"/>
      <point x="348" y="-155" type="curve"/>
      <point x="419" y="-96" type="line"/>
      <point x="438" y="-96"/>
      <point x="460" y="-121"/>
      <point x="460" y="-148" type="curve" smooth="yes"/>
      <point x="460" y="-183"/>
      <point x="428" y="-229" name="n13"/>
      <point x="361" y="-229" type="curve" smooth="yes"/>
      <point x="254" y="-229"/>
      <point x="205" y="10"/>
      <point x="111" y="10" type="curve"/>
      <point x="85" y="-39" type="line"/>
      <point x="-16" y="16" type="line"/>
      <point x="314" y="396" type="line"/>
      <point x="251" y="383" type="line"/>
      <point x="216" y="402"/>
      <point x="196" y="415"/>
      <point x="173" y="415" type="curve" smooth="yes" name="n24"/>
      <point x="159" y="415"/>
      <point x="118" y="401"/>
      <point x="109" y="386" type="curve"/>
      <point x="168" y="323" type="line"/>
      <point x="162" y="312"/>
      <point x="125" y="284" name="hr01"/>
      <point x="92" y="284" type="curve" smooth="yes" name="n31"/>
      <point x="49" y="284"/>
      <point x="30" y="331"/>
      <point x="30" y="358" type="curve" smooth="yes"/>
      <point x="30" y="422"/>
      <point x="110" y="500"/>
      <point x="203" y="500" type="curve" smooth="yes" name="n37"/>
      <point x="271" y="500"/>
      <point x="327" y="457"/>
      <point x="340" y="457" type="curve" smooth="yes"/>
      <point x="349" y="457"/>
      <point x="356" y="458"/>
      <point x="361" y="463" type="curve"/>
      <point x="388" y="526" type="line"/>
    </contour>
  </outline>
</glyph>
<glyph name="uni0241" format="2">
  <advance width="508"/>
  <unicode hex="0241"/>
  <outline>
    <contour>
      <point x="521" y="535" type="curve" smooth="yes" name="n00"/>
      <point x="521" y="405"/>
      <point x="427" y="353"/>
      <point x="321" y="309" type="curve"/>
      <point x="274" y="73" type="line"/>
      <point x="272" y="61"/>
      <point x="275" y="57"/>
      <point x="288" y="56" type="curve" smooth="yes"/>
      <point x="344" y="51" type="line"/>
      <point x="344" y="0" type="line"/>
      <point x="43" y="0" type="line"/>
      <point x="43" y="51" type="line"/>
      <point x="111" y="56" type="line" smooth="yes"/>
      <point x="124" y="57"/>
      <point x="129" y="62"/>
      <point x="131" y="73" type="curve" smooth="yes"/>
      <point x="182" y="328" type="line"/>
      <point x="293" y="363"/>
      <point x="376" y="428"/>
      <point x="376" y="551" type="curve" smooth="yes" name="n19"/>
      <point x="376" y="600"/>
      <point x="352" y="628"/>
      <point x="313" y="628" type="curve" smooth="yes" name="n22"/>
      <point x="308" y="628"/>
      <point x="292" y="627"/>
      <point x="272" y="614" type="curve"/>
      <point x="224" y="509" type="line"/>
      <point x="224" y="509"/>
      <point x="187" y="490"/>
      <point x="156" y="490" type="curve" smooth="yes"/>
      <point x="112" y="490"/>
      <point x="97" y="539"/>
      <point x="97" y="571" type="curve" smooth="yes"/>
      <point x="97" y="620"/>
      <point x="186" y="687"/>
      <point x="321" y="687" type="curve" smooth="yes" name="n35"/>
      <point x="448" y="687"/>
      <point x="521" y="621"/>
    </contour>
  </outline>
</glyph>
<glyph name="uni0243" format="2">
  <advance width="648"/>
  <unicode hex="0243"/>
  <outline>
    <contour>
      <point x="616" y="540" type="curve" smooth="yes" name="n00"/>
      <point x="616" y="443"/>
      <point x="548" y="390"/>
      <point x="458" y="358" type="curve"/>
      <point x="545" y="342"/>
      <point x="596" y="305" name="hr01"/>
      <point x="596" y="226" type="curve" smooth="yes" name="n06"/>
      <point x="596" y="67"/>
      <point x="472" y="0"/>
      <point x="280" y="0" type="curve" smooth="yes" name="n09"/>
      <point x="-15" y="0" type="line"/>
      <point x="-15" y="50" type="line"/>
      <point x="17" y="53"/>
      <point x="48" y="55"/>
      <point x="48" y="55" type="curve"/>
      <point x="59" y="55"/>
      <point x="65" y="57"/>
      <point x="67" y="71" type="curve"/>
      <point x="87" y="171" type="line" name="n18"/>
      <point x="-1" y="171" type="line"/>
      <point x="13" y="238" type="line"/>
      <point x="100" y="238" type="line" name="n21"/>
      <point x="171" y="601" type="line" smooth="yes"/>
      <point x="173" y="612"/>
      <point x="167" y="615"/>
      <point x="155" y="616" type="curve"/>
      <point x="155" y="616"/>
      <point x="125" y="618"/>
      <point x="95" y="621" type="curve"/>
      <point x="95" y="671" type="line"/>
      <point x="397" y="671" type="line" smooth="yes" name="n30"/>
      <point x="567" y="671"/>
      <point x="616" y="613" name="hr02"/>
    </contour>
    <contour>
      <point x="463" y="533" type="curve" smooth="yes" name="n33"/>
      <point x="463" y="597"/>
      <point x="408" y="618"/>
      <point x="348" y="618" type="curve" smooth="yes" name="n36"/>
      <point x="337" y="618"/>
      <point x="326" y="617"/>
      <point x="317" y="617" type="curve"/>
      <point x="270" y="375" type="line"/>
      <point x="281" y="374"/>
      <point x="291" y="374"/>
      <point x="295" y="374" type="curve" smooth="yes" name="n43"/>
      <point x="394" y="374"/>
      <point x="463" y="441"/>
    </contour>
    <contour>
      <point x="445" y="216" type="curve" smooth="yes" name="n46"/>
      <point x="445" y="298"/>
      <point x="383" y="320" name="hr03"/>
      <point x="313" y="320" type="curve" smooth="yes" name="n49"/>
      <point x="296" y="320"/>
      <point x="277" y="319"/>
      <point x="258" y="317" type="curve"/>
      <point x="243" y="238" type="line"/>
      <point x="397" y="238" type="line"/>
      <point x="383" y="171" type="line"/>
      <point x="229" y="171" type="line"/>
      <point x="207" y="56" type="line"/>
      <point x="221" y="55"/>
      <point x="237" y="55"/>
      <point x="247" y="55" type="curve" smooth="yes" name="n60"/>
      <point x="365" y="55"/>
      <point x="445" y="109"/>
    </contour>
  </outline>
</glyph>
<glyph name="uni0245" format="2">
  <advance width="685"/>
  <unicode hex="0245"/>
  <outline>
    <contour>
      <point x="635" y="0" type="line" name="n00"/>
      <point x="366" y="0" type="line"/>
      <point x="366" y="51" type="line"/>
      <point x="387" y="52"/>
      <point x="411" y="52"/>
      <point x="411" y="52" type="curve"/>
      <point x="421" y="52"/>
      <point x="431" y="54"/>
      <point x="429" y="67" type="curve" smooth="yes"/>
      <point x="363" y="484" type="line"/>
      <point x="142" y="67" type="line" smooth="yes"/>
      <point x="135" y="54"/>
      <point x="147" y="53"/>
      <point x="156" y="52" type="curve"/>
      <point x="156" y="52"/>
      <point x="183" y="52"/>
      <point x="206" y="51" type="curve"/>
      <point x="206" y="0" type="line"/>
      <point x="-40" y="0" type="line"/>
      <point x="-40" y="50" type="line"/>
      <point x="15" y="56" type="line"/>
      <point x="360" y="687" type="line" name="n21"/>
      <point x="475" y="687" type="line"/>
      <point x="573" y="68" type="line" smooth="yes"/>
      <point x="575" y="55"/>
      <point x="584" y="53"/>
      <point x="596" y="53" type="curve"/>
      <point x="596" y="53"/>
      <point x="618" y="52"/>
      <point x="635" y="51" type="curve" name="n29"/>
    </contour>
  </outline>
</glyph>
<glyph name="uni0246" format="2">
  <advance width="600"/>
  <unicode hex="0246"/>
  <outline>
    <contour>
      <point x="1" y="-44" type="line"/>
      <point x="532" y="763" type="line"/>
      <point x="612" y="713" type="line"/>
      <point x="74" y="-96" type="line"/>
    </contour>
    <contour>
      <point x="623" y="671" type="line" name="n04"/>
      <point x="591" y="513" type="line" name="n05"/>
      <point x="511" y="513" type="line"/>
      <point x="511" y="598" type="line" smooth="yes"/>
      <point x="511" y="608"/>
      <point x="499" y="611" name="hr01"/>
      <point x="488" y="611" type="curve" smooth="yes" name="n10"/>
      <point x="316" y="611" type="line"/>
      <point x="271" y="379" type="line"/>
      <point x="384" y="379" type="line" smooth="yes" name="n13"/>
      <point x="394" y="379"/>
      <point x="409" y="384"/>
      <point x="412" y="394" type="curve" smooth="yes"/>
      <point x="433" y="464" type="line"/>
      <point x="506" y="464" type="line"/>
      <point x="460" y="229" type="line"/>
      <point x="386" y="229" type="line" name="n20"/>
      <point x="396" y="304" type="line"/>
      <point x="398" y="312"/>
      <point x="383" y="318" name="hr02"/>
      <point x="374" y="318" type="curve" smooth="yes" name="n24"/>
      <point x="259" y="318" type="line"/>
      <point x="209" y="60" type="line"/>
      <point x="422" y="60" type="line" smooth="yes" name="n27"/>
      <point x="432" y="60"/>
      <point x="447" y="66"/>
      <point x="450" y="74" type="curve"/>
      <point x="482" y="174" type="line" name="n31"/>
      <point x="561" y="174" type="line"/>
      <point x="526" y="0" type="line" name="n33"/>
      <point x="-15" y="0" type="line"/>
      <point x="-15" y="50" type="line"/>
      <point x="15" y="53"/>
      <point x="45" y="55"/>
      <point x="45" y="55" type="curve"/>
      <point x="60" y="56"/>
      <point x="65" y="58"/>
      <point x="67" y="71" type="curve"/>
      <point x="171" y="601" type="line"/>
      <point x="174" y="613"/>
      <point x="166" y="615"/>
      <point x="153" y="616" type="curve"/>
      <point x="153" y="616"/>
      <point x="123" y="618"/>
      <point x="96" y="621" type="curve"/>
      <point x="96" y="671" type="line"/>
    </contour>
  </outline>
</glyph>
<glyph name="uni024D" format="2">
  <advance width="418"/>
  <unicode hex="024D"/>
  <outline>
    <contour>
      <point x="456" y="429" type="curve" smooth="yes"/>
      <point x="456" y="383"/>
      <point x="429" y="360"/>
      <point x="361" y="360" type="curve" name="n03"/>
      <point x="334" y="414" type="line"/>
      <point x="276" y="385"/>
      <point x="226" y="332"/>
      <point x="209" y="276" type="curve"/>
      <point x="302" y="276" type="line" name="n08"/>
      <point x="302" y="216" type="line" name="n09"/>
      <point x="196" y="216" type="line"/>
      <point x="151" y="0" type="line" name="n11"/>
      <point x="18" y="0" type="line"/>
      <point x="63" y="216" type="line"/>
      <point x="1" y="216" type="line"/>
      <point x="1" y="276" type="line"/>
      <point x="76" y="276" type="line"/>
      <point x="106" y="423" type="line"/>
      <point x="22" y="432" type="line"/>
      <point x="22" y="467" type="line"/>
      <point x="188" y="500" type="line"/>
      <point x="257" y="500" type="line"/>
      <point x="244" y="433" type="line"/>
      <point x="280" y="470"/>
      <point x="330" y="500"/>
      <point x="380" y="500" type="curve" smooth="yes" name="n25"/>
      <point x="432" y="500"/>
      <point x="456" y="458"/>
    </contour>
  </outline>
</glyph>
<glyph name="uni0254" format="2">
  <advance width="480"/>
  <unicode hex="0254"/>
  <outline>
    <contour>
      <point x="450" y="304.214" type="curve" smooth="yes" name="n00"/>
      <point x="450" y="120.53"/>
      <point x="324.167" y="-12"/>
      <point x="148" y="-12" type="curve" smooth="yes" name="n03"/>
      <point x="83.8513" y="-12"/>
      <point x="34" y="20.3596"/>
      <point x="34" y="64.0042" type="curve" smooth="yes"/>
      <point x="34" y="104.395"/>
      <point x="76.6948" y="139"/>
      <point x="129" y="139" type="curve"/>
      <point x="185" y="61" type="line" name="n10"/>
      <point x="253.461" y="75.6703"/>
      <point x="313" y="186.375"/>
      <point x="313" y="299" type="curve" smooth="yes" name="n13"/>
      <point x="313" y="388.415"/>
      <point x="290.611" y="425"/>
      <point x="238.198" y="425" type="curve" smooth="yes" name="n16"/>
      <point x="185.292" y="425"/>
      <point x="134.103" y="387.723"/>
      <point x="56" y="294" type="curve"/>
      <point x="56" y="394" type="line"/>
      <point x="115.558" y="464.587"/>
      <point x="187.897" y="500"/>
      <point x="272.53" y="500" type="curve" smooth="yes" name="n23"/>
      <point x="388.42" y="500"/>
      <point x="450" y="432.71"/>
    </contour>
  </outline>
</glyph>
<glyph name="uni0257" format="2">
  <advance width="583"/>
  <unicode hex="0257"/>
  <outline>
    <contour>
      <point x="745" y="667" type="curve" smooth="yes"/>
      <point x="745" y="619"/>
      <point x="712" y="598"/>
      <point x="684" y="593" type="curve"/>
      <point x="613" y="661" type="line"/>
      <point x="543" y="661"/>
      <point x="539" y="564"/>
      <point x="529" y="507" type="curve" smooth="yes"/>
      <point x="455" y="90" type="line" smooth="yes"/>
      <point x="449" y="57"/>
      <point x="463" y="49"/>
      <point x="471" y="49" type="curve" smooth="yes"/>
      <point x="499" y="49"/>
      <point x="542" y="68"/>
      <point x="564" y="79" type="curve"/>
      <point x="564" y="30" type="line"/>
      <point x="529" y="10"/>
      <point x="464" y="-12"/>
      <point x="412" y="-12" type="curve" smooth="yes"/>
      <point x="362" y="-12"/>
      <point x="333" y="6"/>
      <point x="322" y="36" type="curve"/>
      <point x="285" y="9"/>
      <point x="239" y="-12"/>
      <point x="195" y="-12" type="curve" smooth="yes" name="n24"/>
      <point x="79" y="-12"/>
      <point x="32" y="83"/>
      <point x="32" y="169" type="curve" smooth="yes" name="n27"/>
      <point x="32" y="322"/>
      <point x="132" y="500"/>
      <point x="335" y="500" type="curve" smooth="yes" name="n30"/>
      <point x="360" y="500"/>
      <point x="379" y="492"/>
      <point x="392" y="488" type="curve"/>
      <point x="397" y="520" type="line"/>
      <point x="405" y="563"/>
      <point x="414" y="608"/>
      <point x="432" y="633" type="curve" smooth="yes"/>
      <point x="488" y="712"/>
      <point x="572" y="737" name="n39"/>
      <point x="649" y="737" type="curve" smooth="yes"/>
      <point x="719" y="737"/>
      <point x="745" y="698"/>
    </contour>
    <contour>
      <point x="375" y="394" type="line"/>
      <point x="377" y="399"/>
      <point x="356" y="443"/>
      <point x="333" y="443" type="curve" smooth="yes" name="n46"/>
      <point x="262" y="443"/>
      <point x="169" y="334"/>
      <point x="169" y="175" type="curve" smooth="yes" name="n49"/>
      <point x="169" y="94"/>
      <point x="189" y="59"/>
      <point x="227" y="59" type="curve" smooth="yes" name="n52"/>
      <point x="261" y="59"/>
      <point x="296" y="96"/>
      <point x="330" y="135" type="curve"/>
    </contour>
  </outline>
</glyph>
<glyph name="uni0259" format="2">
  <advance width="479"/>
  <unicode hex="0259"/>
  <outline>
    <contour>
      <point x="448" y="313" type="curve" smooth="yes" name="n00"/>
      <point x="448" y="161"/>
      <point x="331" y="-12"/>
      <point x="160" y="-12" type="curve" smooth="yes" name="n03"/>
      <point x="62" y="-12"/>
      <point x="18" y="62"/>
      <point x="18" y="93" type="curve" smooth="yes" name="n06"/>
      <point x="18" y="198"/>
      <point x="173" y="257"/>
      <point x="306" y="269" type="curve"/>
      <point x="307" y="281"/>
      <point x="309" y="299"/>
      <point x="309" y="310" type="curve" smooth="yes" name="n12"/>
      <point x="309" y="379"/>
      <point x="289" y="430"/>
      <point x="234" y="430" type="curve" smooth="yes" name="n15"/>
      <point x="191" y="430"/>
      <point x="151" y="398"/>
      <point x="41" y="303" type="curve"/>
      <point x="41" y="397" type="line"/>
      <point x="80" y="436"/>
      <point x="170" y="500"/>
      <point x="267" y="500" type="curve" smooth="yes" name="n22"/>
      <point x="354" y="500"/>
      <point x="448" y="462"/>
    </contour>
    <contour>
      <point x="299" y="217" type="curve"/>
      <point x="230" y="201"/>
      <point x="148" y="153"/>
      <point x="148" y="92" type="curve" smooth="yes" name="n28"/>
      <point x="148" y="69"/>
      <point x="153" y="43"/>
      <point x="183" y="43" type="curve" smooth="yes" name="n31"/>
      <point x="245" y="43"/>
      <point x="281" y="144"/>
    </contour>
  </outline>
</glyph>
<glyph name="uni025A" format="2">
  <advance width="582"/>
  <unicode hex="025A"/>
  <outline>
    <contour>
      <point x="651" y="382" type="line"/>
      <point x="635" y="342"/>
      <point x="606" y="278"/>
      <point x="534" y="278" type="curve" smooth="yes" name="n03"/>
      <point x="485" y="278"/>
      <point x="457" y="311"/>
      <point x="458" y="348" type="curve" name="n06"/>
      <point x="458" y="363"/>
      <point x="466" y="383"/>
      <point x="469" y="396" type="curve"/>
      <point x="461" y="392"/>
      <point x="427" y="372"/>
      <point x="418" y="367" type="curve"/>
      <point x="423" y="347"/>
      <point x="425" y="327"/>
      <point x="425" y="305" type="curve" smooth="yes" name="n15"/>
      <point x="425" y="153"/>
      <point x="330" y="-12"/>
      <point x="151" y="-12" type="curve" smooth="yes" name="n18"/>
      <point x="58" y="-12"/>
      <point x="18" y="45"/>
      <point x="18" y="96" type="curve" smooth="yes" name="n21"/>
      <point x="18" y="177"/>
      <point x="138" y="288"/>
      <point x="280" y="360" type="curve"/>
      <point x="266" y="402"/>
      <point x="253" y="430"/>
      <point x="219" y="430" type="curve" smooth="yes" name="n27"/>
      <point x="169" y="430"/>
      <point x="93" y="383"/>
      <point x="41" y="325" type="curve"/>
      <point x="41" y="410" type="line"/>
      <point x="95" y="469"/>
      <point x="159" y="500"/>
      <point x="250" y="500" type="curve" smooth="yes" name="n34"/>
      <point x="294" y="500"/>
      <point x="358" y="481"/>
      <point x="396" y="421" type="curve"/>
      <point x="430" y="440"/>
      <point x="477" y="467"/>
      <point x="514" y="489" type="curve"/>
      <point x="553" y="461" type="line"/>
      <point x="521" y="383" type="line" smooth="yes"/>
      <point x="510" y="356"/>
      <point x="509" y="328"/>
      <point x="536" y="328" type="curve" smooth="yes" name="n45"/>
      <point x="546" y="328"/>
      <point x="574" y="353"/>
      <point x="579" y="362" type="curve"/>
      <point x="582" y="369"/>
      <point x="589" y="377"/>
      <point x="605" y="416" type="curve"/>
    </contour>
    <contour>
      <point x="288" y="293" type="curve"/>
      <point x="206" y="241"/>
      <point x="140" y="169"/>
      <point x="140" y="100" type="curve" smooth="yes" name="n55"/>
      <point x="140" y="79"/>
      <point x="142" y="45"/>
      <point x="172" y="45" type="curve" smooth="yes" name="n58"/>
      <point x="266" y="45"/>
      <point x="286" y="206"/>
    </contour>
  </outline>
</glyph>
<glyph name="uni025B" format="2">
  <advance width="459"/>
  <unicode hex="025B"/>
  <outline>
    <contour>
      <point x="458" y="409.845" type="curve" smooth="yes"/>
      <point x="458" y="374.631"/>
      <point x="428.745" y="354.804"/>
      <point x="367" y="346.753" type="curve"/>
      <point x="302" y="445" type="line" name="n04"/>
      <point x="254.59" y="445"/>
      <point x="216" y="397.821"/>
      <point x="216" y="341.184" type="curve" smooth="yes" name="n07"/>
      <point x="216" y="292.283"/>
      <point x="244.769" y="269.558"/>
      <point x="305" y="269.558" type="curve" name="n10"/>
      <point x="305" y="211.913" type="line" name="n11"/>
      <point x="234" y="211.913" type="line" smooth="yes"/>
      <point x="183.286" y="211.913"/>
      <point x="147" y="174.324" name="hr01"/>
      <point x="147" y="121.79" type="curve" smooth="yes" name="n15"/>
      <point x="147" y="75.1259"/>
      <point x="175.361" y="48"/>
      <point x="224.151" y="48" type="curve" smooth="yes" name="n18"/>
      <point x="294" y="48"/>
      <point x="362" y="104.141"/>
      <point x="418" y="150.258" type="curve"/>
      <point x="418" y="61.0328" type="line"/>
      <point x="372.058" y="24.8445"/>
      <point x="267.628" y="-12"/>
      <point x="211" y="-12" type="curve" smooth="yes" name="n25"/>
      <point x="71.6961" y="-12"/>
      <point x="7" y="27.6368"/>
      <point x="7" y="111.788" type="curve" smooth="yes" name="n28"/>
      <point x="7" y="184.048"/>
      <point x="54.7021" y="232.285"/>
      <point x="143" y="250.51" type="curve"/>
      <point x="98.9338" y="274.298"/>
      <point x="77" y="306.294" name="hr02"/>
      <point x="77" y="346.789" type="curve" smooth="yes" name="n34"/>
      <point x="77" y="432.105"/>
      <point x="175.822" y="500"/>
      <point x="300" y="500" type="curve" smooth="yes" name="n37"/>
      <point x="330" y="500" type="line" smooth="yes"/>
      <point x="400.806" y="500"/>
      <point x="458" y="459.083"/>
    </contour>
  </outline>
</glyph>
<glyph name="uni0264" format="2">
  <advance width="562"/>
  <unicode hex="0264"/>
  <outline>
    <contour>
      <point x="591" y="418" type="curve" smooth="yes"/>
      <point x="591" y="379"/>
      <point x="573" y="343"/>
      <point x="565" y="305" type="curve"/>
      <point x="521" y="305" type="line" name="n04"/>
      <point x="521" y="325"/>
      <point x="523" y="392" name="hr01"/>
      <point x="492" y="392" type="curve" smooth="yes"/>
      <point x="437" y="392"/>
      <point x="363" y="290"/>
      <point x="330" y="252" type="curve"/>
      <point x="348" y="210"/>
      <point x="370" y="169"/>
      <point x="370" y="122" type="curve" smooth="yes"/>
      <point x="370" y="51"/>
      <point x="305" y="-12"/>
      <point x="234" y="-12" type="curve" smooth="yes" name="n16"/>
      <point x="183" y="-12"/>
      <point x="132" y="7"/>
      <point x="132" y="66" type="curve" smooth="yes"/>
      <point x="132" y="126"/>
      <point x="187" y="175"/>
      <point x="224" y="216" type="curve"/>
      <point x="209" y="254"/>
      <point x="171" y="392"/>
      <point x="125" y="392" type="curve" smooth="yes" name="n25"/>
      <point x="91" y="392"/>
      <point x="69" y="332"/>
      <point x="62" y="305" type="curve" name="hr02"/>
      <point x="14" y="305" type="line"/>
      <point x="28" y="375"/>
      <point x="40" y="500"/>
      <point x="140" y="500" type="curve" smooth="yes" name="n32"/>
      <point x="253" y="500"/>
      <point x="270" y="402"/>
      <point x="307" y="314" type="curve"/>
      <point x="342" y="355"/>
      <point x="450" y="500"/>
      <point x="520" y="500" type="curve" smooth="yes" name="n38"/>
      <point x="567" y="500"/>
      <point x="591" y="463"/>
    </contour>
    <contour>
      <point x="266" y="87" type="curve" smooth="yes"/>
      <point x="266" y="104"/>
      <point x="252" y="139"/>
      <point x="247" y="156" type="curve"/>
      <point x="231" y="137"/>
      <point x="194" y="95"/>
      <point x="194" y="70" type="curve" smooth="yes"/>
      <point x="194" y="51"/>
      <point x="207" y="42"/>
      <point x="225" y="42" type="curve" smooth="yes" name="n50"/>
      <point x="247" y="42"/>
      <point x="266" y="65"/>
    </contour>
  </outline>
</glyph>
<glyph name="uni0274" format="2">
  <advance width="606"/>
  <unicode hex="0274"/>
  <outline>
    <contour>
      <point x="629" y="443" type="line"/>
      <point x="576" y="439" type="line"/>
      <point x="570" y="439"/>
      <point x="564" y="431"/>
      <point x="563" y="427" type="curve" smooth="yes"/>
      <point x="467" y="0" type="line" name="n05"/>
      <point x="371" y="0" type="line"/>
      <point x="194" y="330" type="line"/>
      <point x="135" y="63" type="line" smooth="yes"/>
      <point x="134" y="58"/>
      <point x="141" y="49"/>
      <point x="147" y="48" type="curve"/>
      <point x="147" y="48"/>
      <point x="167" y="47"/>
      <point x="194" y="45" type="curve"/>
      <point x="194" y="0" type="line"/>
      <point x="-30" y="0" type="line"/>
      <point x="-30" y="45" type="line"/>
      <point x="-3" y="47"/>
      <point x="21" y="48"/>
      <point x="21" y="48" type="curve"/>
      <point x="31" y="49"/>
      <point x="36" y="58"/>
      <point x="37" y="63" type="curve" smooth="yes"/>
      <point x="118" y="427" type="line"/>
      <point x="119" y="433"/>
      <point x="113" y="439"/>
      <point x="107" y="440" type="curve"/>
      <point x="107" y="440"/>
      <point x="85" y="441"/>
      <point x="59" y="443" type="curve"/>
      <point x="59" y="488" type="line" name="n31"/>
      <point x="256" y="488" type="line"/>
      <point x="256" y="462" type="line"/>
      <point x="409" y="177" type="line"/>
      <point x="465" y="427" type="line"/>
      <point x="466" y="433"/>
      <point x="459" y="439"/>
      <point x="453" y="440" type="curve"/>
      <point x="453" y="440"/>
      <point x="432" y="441"/>
      <point x="406" y="443" type="curve"/>
      <point x="406" y="488" type="line"/>
      <point x="629" y="488" type="line"/>
    </contour>
  </outline>
</glyph>
<glyph name="uni0281" format="2">
  <advance width="529"/>
  <unicode hex="0281"/>
  <outline>
    <contour>
      <point x="583" y="445" type="line" name="n00"/>
      <point x="491" y="445"/>
      <point x="492" y="407"/>
      <point x="449" y="338" type="curve" smooth="yes"/>
      <point x="426" y="302"/>
      <point x="398" y="267"/>
      <point x="356" y="251" type="curve"/>
      <point x="405" y="235"/>
      <point x="457" y="200"/>
      <point x="457" y="153" type="curve" smooth="yes" name="n09"/>
      <point x="457" y="28"/>
      <point x="329" y="0"/>
      <point x="200" y="0" type="curve" smooth="yes" name="n12"/>
      <point x="-27" y="0" type="line"/>
      <point x="-27" y="44" type="line"/>
      <point x="23" y="47" type="line" smooth="yes"/>
      <point x="35" y="48"/>
      <point x="39" y="52"/>
      <point x="41" y="60" type="curve"/>
      <point x="121" y="426" type="line"/>
      <point x="122" y="433"/>
      <point x="120" y="438"/>
      <point x="106" y="439" type="curve" name="n22"/>
      <point x="67" y="443" type="line"/>
      <point x="67" y="488" type="line" name="n24"/>
      <point x="311" y="488" type="line"/>
      <point x="311" y="443" type="line"/>
      <point x="288" y="441"/>
      <point x="265" y="440"/>
      <point x="265" y="440" type="curve"/>
      <point x="249" y="439"/>
      <point x="248" y="436"/>
      <point x="246" y="424" type="curve"/>
      <point x="213" y="275" type="line"/>
      <point x="214.066" y="275"/>
      <point x="224.268" y="275"/>
      <point x="228" y="275" type="curve" smooth="yes" name="n36"/>
      <point x="316" y="275"/>
      <point x="347" y="395"/>
      <point x="404" y="452" type="curve" smooth="yes"/>
      <point x="432" y="480"/>
      <point x="460" y="500" name="hr02"/>
      <point x="517" y="500" type="curve" smooth="yes" name="n42"/>
      <point x="546" y="500"/>
      <point x="558" y="490"/>
      <point x="583" y="488" type="curve" name="hr03"/>
    </contour>
    <contour>
      <point x="322" y="155" type="curve" smooth="yes" name="n46"/>
      <point x="322" y="198"/>
      <point x="265" y="225"/>
      <point x="214" y="225" type="curve" smooth="yes" name="n49"/>
      <point x="211.985" y="225"/>
      <point x="202.344" y="225"/>
      <point x="201" y="225" type="curve"/>
      <point x="163" y="50" type="line"/>
      <point x="175" y="50" type="line" smooth="yes" name="n54"/>
      <point x="234" y="50"/>
      <point x="322" y="68"/>
    </contour>
  </outline>
</glyph>
<glyph name="uni0283" format="2">
  <advance width="312"/>
  <unicode hex="0283"/>
  <outline>
    <contour>
      <point x="447" y="677" type="curve" smooth="yes"/>
      <point x="447" y="650"/>
      <point x="433" y="613"/>
      <point x="381" y="596" type="curve"/>
      <point x="317" y="665" type="line"/>
      <point x="259" y="665"/>
      <point x="251" y="573"/>
      <point x="249" y="539" type="curve" smooth="yes"/>
      <point x="209" y="-22" type="line" smooth="yes"/>
      <point x="201" y="-133"/>
      <point x="123" y="-229" name="n10"/>
      <point x="-43" y="-229" type="curve" smooth="yes"/>
      <point x="-91" y="-229"/>
      <point x="-123" y="-205"/>
      <point x="-123" y="-169" type="curve" smooth="yes"/>
      <point x="-123" y="-143"/>
      <point x="-109" y="-105"/>
      <point x="-57" y="-89" type="curve"/>
      <point x="6" y="-157" type="line"/>
      <point x="64" y="-157"/>
      <point x="72" y="-66"/>
      <point x="75" y="-32" type="curve"/>
      <point x="115" y="529" type="line" smooth="yes"/>
      <point x="123" y="641"/>
      <point x="201" y="737" name="n24"/>
      <point x="367" y="737" type="curve" smooth="yes"/>
      <point x="415" y="737"/>
      <point x="447" y="713"/>
    </contour>
  </outline>
</glyph>
<glyph name="uni0284" format="2">
  <advance width="346"/>
  <unicode hex="0284"/>
  <outline>
    <contour>
      <point x="475" y="663" type="curve" smooth="yes"/>
      <point x="475" y="632"/>
      <point x="465" y="602"/>
      <point x="402" y="594" type="curve"/>
      <point x="338" y="661" type="line"/>
      <point x="297" y="661"/>
      <point x="292" y="593"/>
      <point x="275" y="500" type="curve"/>
      <point x="243" y="312" type="line"/>
      <point x="346" y="312" type="line" name="n09"/>
      <point x="346" y="246" type="line" name="n10"/>
      <point x="231" y="246" type="line"/>
      <point x="203" y="82" type="line" smooth="yes"/>
      <point x="178" y="-63"/>
      <point x="95" y="-229" name="n14"/>
      <point x="-42" y="-229" type="curve" smooth="yes"/>
      <point x="-89" y="-229"/>
      <point x="-129" y="-204"/>
      <point x="-129" y="-171" type="curve" smooth="yes"/>
      <point x="-129" y="-146"/>
      <point x="-111" y="-132"/>
      <point x="-88" y="-117" type="curve"/>
      <point x="7" y="-142" type="line"/>
      <point x="25" y="-114"/>
      <point x="46" y="-57"/>
      <point x="54" y="-9" type="curve" smooth="yes"/>
      <point x="72" y="94"/>
      <point x="87" y="178"/>
      <point x="99" y="246" type="curve"/>
      <point x="-6" y="246" type="line"/>
      <point x="-6" y="312" type="line"/>
      <point x="111" y="312" type="line"/>
      <point x="134" y="441"/>
      <point x="144" y="491"/>
      <point x="144" y="491" type="curve"/>
      <point x="172" y="640"/>
      <point x="216" y="737" name="n36"/>
      <point x="368" y="737" type="curve" smooth="yes"/>
      <point x="426" y="737"/>
      <point x="475" y="705"/>
    </contour>
  </outline>
</glyph>
<glyph name="uni028F" format="2">
  <advance width="554"/>
  <unicode hex="028F"/>
  <outline>
    <contour>
      <point x="583" y="443" type="line"/>
      <point x="532" y="439" type="line"/>
      <point x="522" y="439"/>
      <point x="518" y="435"/>
      <point x="509" y="425" type="curve" smooth="yes"/>
      <point x="313" y="201" type="line"/>
      <point x="283" y="63" type="line" smooth="yes"/>
      <point x="281" y="54"/>
      <point x="283" y="49"/>
      <point x="295" y="48" type="curve"/>
      <point x="295" y="48"/>
      <point x="314" y="47"/>
      <point x="341" y="45" type="curve"/>
      <point x="341" y="0" type="line"/>
      <point x="89" y="0" type="line"/>
      <point x="89" y="45" type="line"/>
      <point x="115" y="47"/>
      <point x="139" y="48"/>
      <point x="139" y="48" type="curve"/>
      <point x="150" y="49"/>
      <point x="155" y="55"/>
      <point x="157" y="63" type="curve" smooth="yes"/>
      <point x="187" y="197" type="line"/>
      <point x="102" y="425" type="line"/>
      <point x="98" y="434"/>
      <point x="91" y="440"/>
      <point x="83" y="440" type="curve"/>
      <point x="83" y="440"/>
      <point x="61" y="442"/>
      <point x="38" y="443" type="curve"/>
      <point x="38" y="488" type="line"/>
      <point x="288" y="488" type="line"/>
      <point x="288" y="443" type="line"/>
      <point x="260" y="442"/>
      <point x="239" y="440"/>
      <point x="239" y="440" type="curve"/>
      <point x="230" y="440"/>
      <point x="226" y="434"/>
      <point x="229" y="425" type="curve" smooth="yes"/>
      <point x="278" y="286" type="line"/>
      <point x="395" y="425" type="line"/>
      <point x="400" y="432"/>
      <point x="399" y="439"/>
      <point x="389" y="440" type="curve"/>
      <point x="347" y="443" type="line"/>
      <point x="347" y="488" type="line"/>
      <point x="583" y="488" type="line"/>
    </contour>
  </outline>
</glyph>
<glyph name="uni0295" format="2">
  <advance width="479"/>
  <unicode hex="0295"/>
  <outline>
    <contour>
      <point x="507" y="595" type="curve" smooth="yes"/>
      <point x="507" y="553"/>
      <point x="482" y="522"/>
      <point x="439" y="522" type="curve" smooth="yes"/>
      <point x="425" y="522"/>
      <point x="410" y="525"/>
      <point x="396" y="531" type="curve" name="n06"/>
      <point x="378" y="616" type="line" name="n07"/>
      <point x="302" y="674"/>
      <point x="216" y="549"/>
      <point x="216" y="466" type="curve" smooth="yes" name="n10"/>
      <point x="216" y="388"/>
      <point x="283" y="326"/>
      <point x="354" y="303" type="curve"/>
      <point x="310" y="80" type="line" smooth="yes"/>
      <point x="307" y="66"/>
      <point x="315" y="56"/>
      <point x="335" y="55" type="curve" smooth="yes"/>
      <point x="394" y="52" type="line"/>
      <point x="394" y="0" type="line" name="n19"/>
      <point x="84" y="0" type="line"/>
      <point x="84" y="52" type="line"/>
      <point x="144" y="55" type="line" smooth="yes"/>
      <point x="160" y="56"/>
      <point x="173" y="67"/>
      <point x="176" y="80" type="curve"/>
      <point x="217" y="288" type="line"/>
      <point x="139" y="305"/>
      <point x="78" y="371"/>
      <point x="78" y="453" type="curve" smooth="yes" name="n29"/>
      <point x="78" y="600"/>
      <point x="211" y="687"/>
      <point x="347" y="687" type="curve" smooth="yes" name="n32"/>
      <point x="406" y="687"/>
      <point x="507" y="673"/>
    </contour>
  </outline>
</glyph>
<glyph name="uni0299" format="2">
  <advance width="524"/>
  <unicode hex="0299"/>
  <outline>
    <contour>
      <point x="496" y="389" type="curve" smooth="yes" name="n00"/>
      <point x="496" y="324"/>
      <point x="450" y="286"/>
      <point x="389" y="262" type="curve"/>
      <point x="446" y="249"/>
      <point x="481" y="220" name="hr01"/>
      <point x="481" y="167" type="curve" smooth="yes" name="n06"/>
      <point x="481" y="49"/>
      <point x="393" y="0"/>
      <point x="239" y="0" type="curve" smooth="yes" name="n09"/>
      <point x="-15" y="0" type="line"/>
      <point x="-15" y="48" type="line"/>
      <point x="6" y="49"/>
      <point x="29" y="50"/>
      <point x="29" y="50" type="curve"/>
      <point x="42" y="51"/>
      <point x="49" y="54"/>
      <point x="50" y="62" type="curve"/>
      <point x="128" y="423" type="line" smooth="yes"/>
      <point x="130" y="432"/>
      <point x="127" y="436"/>
      <point x="113" y="437" type="curve" name="hr02"/>
      <point x="113" y="437"/>
      <point x="91" y="439"/>
      <point x="71" y="440" type="curve"/>
      <point x="71" y="488" type="line" name="hr03"/>
      <point x="341" y="488" type="line" smooth="yes" name="n26"/>
      <point x="477" y="488"/>
      <point x="496" y="446"/>
    </contour>
    <contour>
      <point x="342" y="160" type="curve" smooth="yes" name="n29"/>
      <point x="342" y="214"/>
      <point x="311" y="227"/>
      <point x="260" y="227" type="curve" smooth="yes" name="n32"/>
      <point x="249" y="227"/>
      <point x="229" y="226"/>
      <point x="218" y="226" type="curve"/>
      <point x="181" y="52" type="line"/>
      <point x="187.087" y="52" name="hr04"/>
      <point x="209.693" y="52"/>
      <point x="213" y="52" type="curve" smooth="yes" name="n39"/>
      <point x="301" y="52"/>
      <point x="342" y="88"/>
    </contour>
    <contour>
      <point x="361" y="383" type="curve" smooth="yes" name="n42"/>
      <point x="361" y="424"/>
      <point x="331" y="437" name="hr05"/>
      <point x="287" y="437" type="curve" smooth="yes" name="n45"/>
      <point x="282.593" y="437"/>
      <point x="265.925" y="437"/>
      <point x="262" y="437" type="curve"/>
      <point x="229" y="278" type="line"/>
      <point x="232.229" y="278"/>
      <point x="247.04" y="278" name="hr06"/>
      <point x="250" y="278" type="curve" smooth="yes" name="n52"/>
      <point x="322" y="278"/>
      <point x="361" y="321"/>
    </contour>
  </outline>
</glyph>
<glyph name="uni029A" format="2">
  <advance width="541"/>
  <unicode hex="029A"/>
  <outline>
    <contour>
      <point x="510" y="329" type="curve" smooth="yes" name="n00"/>
      <point x="510" y="180"/>
      <point x="412" y="-12"/>
      <point x="211" y="-12" type="curve" smooth="yes" name="n03"/>
      <point x="61" y="-12"/>
      <point x="7" y="36"/>
      <point x="7" y="105" type="curve" smooth="yes" name="n06"/>
      <point x="7" y="179"/>
      <point x="55" y="230"/>
      <point x="149" y="248" type="curve"/>
      <point x="93" y="275"/>
      <point x="77" y="314" name="hr01"/>
      <point x="77" y="349" type="curve" smooth="yes" name="n12"/>
      <point x="77" y="435"/>
      <point x="188" y="500"/>
      <point x="297" y="500" type="curve" smooth="yes" name="n15"/>
      <point x="464" y="500"/>
      <point x="510" y="422"/>
    </contour>
    <contour>
      <point x="409" y="319" type="curve" smooth="yes" name="n18"/>
      <point x="409" y="420"/>
      <point x="341" y="451"/>
      <point x="303" y="451" type="curve" smooth="yes" name="n21"/>
      <point x="246" y="451"/>
      <point x="216" y="401"/>
      <point x="216" y="335" type="curve" smooth="yes" name="n24"/>
      <point x="216" y="280"/>
      <point x="253" y="265"/>
      <point x="306" y="264" type="curve" name="n27"/>
      <point x="306" y="215" type="line" name="n28"/>
      <point x="246" y="215" type="line" smooth="yes"/>
      <point x="213" y="215"/>
      <point x="152" y="201"/>
      <point x="152" y="122" type="curve" smooth="yes" name="n32"/>
      <point x="152" y="71"/>
      <point x="180" y="44"/>
      <point x="219" y="44" type="curve" smooth="yes" name="n35"/>
      <point x="315" y="44"/>
      <point x="409" y="197"/>
    </contour>
  </outline>
</glyph>
<glyph name="uni02A1" format="2">
  <advance width="479"/>
  <unicode hex="02A1"/>
  <outline>
    <contour>
      <point x="493" y="534" type="curve" smooth="yes" name="n00"/>
      <point x="493" y="414"/>
      <point x="386" y="311"/>
      <point x="272" y="288" type="curve"/>
      <point x="266" y="254" type="line"/>
      <point x="367" y="254" type="line" name="n05"/>
      <point x="367" y="191" type="line" name="n06"/>
      <point x="253" y="191" type="line"/>
      <point x="235" y="80" type="line" smooth="yes"/>
      <point x="233" y="66"/>
      <point x="241" y="56"/>
      <point x="261" y="55" type="curve" smooth="yes"/>
      <point x="320" y="52" type="line"/>
      <point x="320" y="0" type="line" name="hr02"/>
      <point x="10" y="0" type="line" name="n14"/>
      <point x="10" y="52" type="line"/>
      <point x="70" y="55" type="line" smooth="yes"/>
      <point x="86" y="56"/>
      <point x="99" y="67"/>
      <point x="102" y="80" type="curve"/>
      <point x="120" y="191" type="line" name="hr03"/>
      <point x="21" y="191" type="line"/>
      <point x="21" y="254" type="line" name="n22"/>
      <point x="132" y="254" type="line"/>
      <point x="142" y="303" type="line"/>
      <point x="246" y="333"/>
      <point x="357" y="420"/>
      <point x="357" y="536" type="curve" smooth="yes" name="n27"/>
      <point x="357" y="579"/>
      <point x="340" y="627"/>
      <point x="289" y="627" type="curve" smooth="yes" name="n30"/>
      <point x="271" y="627"/>
      <point x="258" y="625"/>
      <point x="241" y="616" type="curve"/>
      <point x="189" y="531" type="line"/>
      <point x="175" y="525"/>
      <point x="159" y="522"/>
      <point x="144" y="522" type="curve" smooth="yes"/>
      <point x="119" y="522"/>
      <point x="97" y="534"/>
      <point x="97" y="562" type="curve" smooth="yes"/>
      <point x="97" y="658"/>
      <point x="225" y="687"/>
      <point x="300" y="687" type="curve" smooth="yes" name="n43"/>
      <point x="395" y="687"/>
      <point x="493" y="643"/>
    </contour>
  </outline>
</glyph>
<glyph name="uni02A2" format="2">
  <advance width="479"/>
  <unicode hex="02A2"/>
  <outline>
    <contour>
      <point x="507" y="595" type="curve" smooth="yes"/>
      <point x="507" y="553"/>
      <point x="482" y="522"/>
      <point x="439" y="522" type="curve" smooth="yes"/>
      <point x="425" y="522"/>
      <point x="410" y="525"/>
      <point x="396" y="531" type="curve" name="n06"/>
      <point x="378" y="616" type="line" name="n07"/>
      <point x="302" y="674"/>
      <point x="216" y="549"/>
      <point x="216" y="466" type="curve" smooth="yes" name="n10"/>
      <point x="216" y="388"/>
      <point x="283" y="326"/>
      <point x="354" y="303" type="curve"/>
      <point x="344" y="254" type="line"/>
      <point x="444" y="254" type="line" name="n15"/>
      <point x="444" y="191" type="line" name="n16"/>
      <point x="332" y="191" type="line"/>
      <point x="310" y="80" type="line" smooth="yes"/>
      <point x="307" y="66"/>
      <point x="315" y="56"/>
      <point x="335" y="55" type="curve" smooth="yes"/>
      <point x="394" y="52" type="line"/>
      <point x="394" y="0" type="line" name="hr03"/>
      <point x="84" y="0" type="line" name="n24"/>
      <point x="84" y="52" type="line"/>
      <point x="144" y="55" type="line" smooth="yes"/>
      <point x="160" y="56"/>
      <point x="173" y="67"/>
      <point x="176" y="80" type="curve"/>
      <point x="198" y="191" type="line" name="hr04"/>
      <point x="94" y="191" type="line"/>
      <point x="94" y="254" type="line" name="n32"/>
      <point x="210" y="254" type="line"/>
      <point x="217" y="288" type="line"/>
      <point x="139" y="305"/>
      <point x="78" y="371"/>
      <point x="78" y="453" type="curve" smooth="yes" name="n37"/>
      <point x="78" y="600"/>
      <point x="211" y="687"/>
      <point x="347" y="687" type="curve" smooth="yes" name="n40"/>
      <point x="406" y="687"/>
      <point x="507" y="673"/>
    </contour>
  </outline>
</glyph>
<glyph name="uni02A8" format="2">
  <advance width="714"/>
  <unicode hex="02A8"/>
  <outline>
    <contour>
      <point x="688" y="420" type="curve" smooth="yes"/>
      <point x="688" y="395"/>
      <point x="681" y="357"/>
      <point x="594" y="348" type="curve"/>
      <point x="540" y="426" type="line"/>
      <point x="496" y="420"/>
      <point x="467" y="388"/>
      <point x="447" y="349" type="curve" smooth="yes"/>
      <point x="416" y="289"/>
      <point x="408" y="212"/>
      <point x="408" y="188" type="curve" smooth="yes" name="n10"/>
      <point x="408" y="164"/>
      <point x="410" y="141"/>
      <point x="417" y="120" type="curve"/>
      <point x="451" y="175"/>
      <point x="501" y="218"/>
      <point x="569" y="218" type="curve" smooth="yes" name="n16"/>
      <point x="614" y="218"/>
      <point x="663" y="189"/>
      <point x="663" y="142" type="curve" smooth="yes" name="n19"/>
      <point x="663" y="49"/>
      <point x="574" y="-12"/>
      <point x="471" y="-12" type="curve" smooth="yes" name="n22"/>
      <point x="466.817" y="-12"/>
      <point x="440.241" y="-12"/>
      <point x="436" y="-12" type="curve"/>
      <point x="426" y="-48"/>
      <point x="413" y="-89"/>
      <point x="406" y="-131" type="curve" name="n28"/>
      <point x="322" y="-131" type="line"/>
      <point x="331" y="-85"/>
      <point x="346" y="-36"/>
      <point x="360" y="6" type="curve"/>
      <point x="347" y="12"/>
      <point x="336" y="20"/>
      <point x="326" y="29" type="curve"/>
      <point x="288" y="14"/>
      <point x="211" y="-12"/>
      <point x="160" y="-12" type="curve" smooth="yes" name="n38"/>
      <point x="83" y="-12"/>
      <point x="46" y="26"/>
      <point x="46" y="78" type="curve" smooth="yes"/>
      <point x="46" y="91"/>
      <point x="47" y="104"/>
      <point x="50" y="118" type="curve" smooth="yes"/>
      <point x="111" y="416" type="line"/>
      <point x="39" y="408" type="line"/>
      <point x="39" y="449" type="line"/>
      <point x="124" y="483" type="line"/>
      <point x="175" y="586" type="line"/>
      <point x="275" y="586" type="line" name="n50"/>
      <point x="254" y="473" type="line" name="hr01"/>
      <point x="344" y="473" type="line" name="n52"/>
      <point x="344" y="418" type="line" name="n53"/>
      <point x="244" y="418" type="line" name="n54"/>
      <point x="181" y="109" type="line"/>
      <point x="174" y="78"/>
      <point x="189" y="57"/>
      <point x="220" y="57" type="curve" smooth="yes" name="n58"/>
      <point x="238" y="57"/>
      <point x="266" y="64"/>
      <point x="292" y="73" type="curve"/>
      <point x="278" y="101"/>
      <point x="271" y="136"/>
      <point x="271" y="177" type="curve" smooth="yes" name="n64"/>
      <point x="271" y="351"/>
      <point x="389" y="500" name="n66"/>
      <point x="565" y="500" type="curve" smooth="yes"/>
      <point x="657" y="500"/>
      <point x="688" y="465"/>
    </contour>
    <contour>
      <point x="578" y="133" type="curve" smooth="yes" name="n70"/>
      <point x="578" y="143"/>
      <point x="573" y="159"/>
      <point x="561" y="159" type="curve" smooth="yes" name="n73"/>
      <point x="510" y="159"/>
      <point x="478" y="101"/>
      <point x="462" y="63" type="curve"/>
      <point x="464" y="63"/>
      <point x="489" y="59"/>
      <point x="493" y="59" type="curve" smooth="yes" name="n79"/>
      <point x="530" y="59"/>
      <point x="578" y="93"/>
    </contour>
  </outline>
</glyph>
<glyph name="uni02B4" format="2">
  <advance width="263"/>
  <unicode hex="02B4"/>
  <outline>
    <contour>
      <point x="307" y="676" type="line" name="n00"/>
      <point x="250" y="422" type="line"/>
      <point x="304" y="417" type="line"/>
      <point x="304" y="396" type="line"/>
      <point x="196" y="376" type="line"/>
      <point x="152" y="376" type="line"/>
      <point x="161" y="417" type="line"/>
      <point x="138" y="395"/>
      <point x="105" y="376"/>
      <point x="72" y="376" type="curve" smooth="yes" name="n09"/>
      <point x="38" y="376"/>
      <point x="23" y="401"/>
      <point x="23" y="419" type="curve" smooth="yes"/>
      <point x="23" y="446"/>
      <point x="41" y="459"/>
      <point x="84" y="459" type="curve" name="n15"/>
      <point x="102" y="428" type="line"/>
      <point x="143" y="447"/>
      <point x="176" y="482"/>
      <point x="185" y="518" type="curve"/>
      <point x="221" y="676" type="line"/>
    </contour>
  </outline>
</glyph>
<glyph name="uni02B8" format="2">
  <advance width="352"/>
  <unicode hex="02B8"/>
  <outline>
    <contour>
      <point x="428" y="649" type="line"/>
      <point x="394" y="630" type="line"/>
      <point x="384" y="621"/>
      <point x="353" y="576"/>
      <point x="341" y="552" type="curve" smooth="yes"/>
      <point x="322" y="513"/>
      <point x="289" y="440"/>
      <point x="248" y="375" type="curve" smooth="yes"/>
      <point x="205" y="305"/>
      <point x="151" y="246" name="n09"/>
      <point x="72" y="246" type="curve" smooth="yes"/>
      <point x="19" y="246"/>
      <point x="3" y="275"/>
      <point x="3" y="292" type="curve" smooth="yes"/>
      <point x="3" y="312"/>
      <point x="15" y="340"/>
      <point x="56" y="341" type="curve"/>
      <point x="84" y="296" type="line"/>
      <point x="113" y="302"/>
      <point x="146" y="334"/>
      <point x="182" y="396" type="curve"/>
      <point x="180" y="406"/>
      <point x="169" y="464"/>
      <point x="155" y="521" type="curve" smooth="yes"/>
      <point x="142" y="576"/>
      <point x="133" y="638"/>
      <point x="127" y="638" type="curve"/>
      <point x="58" y="643" type="line"/>
      <point x="58" y="661" type="line"/>
      <point x="73" y="666"/>
      <point x="136" y="683" name="n30"/>
      <point x="150" y="683" type="curve" smooth="yes"/>
      <point x="179" y="683"/>
      <point x="197" y="682"/>
      <point x="215" y="625" type="curve" smooth="yes"/>
      <point x="224" y="597"/>
      <point x="235" y="548"/>
      <point x="246" y="502" type="curve"/>
      <point x="335" y="683" type="line"/>
      <point x="366" y="683" type="line"/>
      <point x="428" y="666" type="line"/>
    </contour>
  </outline>
</glyph>
<glyph name="uni02BE" format="2">
  <advance width="287"/>
  <unicode hex="02BE"/>
  <outline>
    <contour>
      <point x="287" y="575" type="curve" smooth="yes" name="n00"/>
      <point x="287" y="439"/>
      <point x="196" y="346"/>
      <point x="61" y="346" type="curve" name="n03"/>
      <point x="74" y="413" type="line" name="n04"/>
      <point x="168" y="413"/>
      <point x="214" y="470"/>
      <point x="214" y="563" type="curve" smooth="yes" name="n07"/>
      <point x="214" y="624"/>
      <point x="172" y="640"/>
      <point x="119" y="640" type="curve" name="n10"/>
      <point x="131" y="707" type="line" name="n11"/>
      <point x="218" y="707"/>
      <point x="287" y="670"/>
    </contour>
  </outline>
</glyph>
<glyph name="circumflex" format="2">
  <advance width="339"/>
  <unicode hex="02C6"/>
  <outline>
    <contour>
      <point x="397" y="551" type="line" name="n00"/>
      <point x="313" y="551" type="line"/>
      <point x="246" y="646" type="line"/>
      <point x="140" y="551" type="line"/>
      <point x="57" y="551" type="line"/>
      <point x="202" y="722" type="line" name="n05"/>
      <point x="320" y="722" type="line"/>
    </contour>
  </outline>
</glyph>
<glyph name="caron" format="2">
  <advance width="339"/>
  <unicode hex="02C7"/>
  <outline>
    <contour>
      <point x="431" y="722" type="line" name="n00"/>
      <point x="286" y="551" type="line" name="n01"/>
      <point x="168" y="551" type="line"/>
      <point x="91" y="722" type="line"/>
      <point x="174" y="722" type="line"/>
      <point x="243" y="628" type="line"/>
      <point x="348" y="722" type="line"/>
    </contour>
  </outline>
</glyph>
<glyph name="uni02C8" format="2">
  <advance width="213"/>
  <unicode hex="02C8"/>
  <outline>
    <contour>
      <point x="132" y="450" type="line" name="n00"/>
      <point x="81" y="450" type="line" name="n01"/>
      <point x="81" y="788" type="line" name="n02"/>
      <point x="132" y="788" type="line"/>
    </contour>
  </outline>
</glyph>
<glyph name="uni02D1" format="2">
  <advance width="236"/>
  <unicode hex="02D1"/>
  <outline>
    <contour>
      <point x="265" y="496" type="line"/>
      <point x="168" y="307" type="line"/>
      <point x="78" y="307" type="line" name="n02"/>
      <point x="56" y="496" type="line" name="n03"/>
    </contour>
  </outline>
</glyph>
<glyph name="uni02D3" format="2">
  <advance width="287"/>
  <unicode hex="02D3"/>
  <outline>
    <contour>
      <point x="254" y="361" type="curve" name="n00"/>
      <point x="241" y="294" type="line" name="n01"/>
      <point x="147" y="294"/>
      <point x="100" y="235"/>
      <point x="100" y="143" type="curve" smooth="yes" name="n04"/>
      <point x="100" y="82"/>
      <point x="142" y="67"/>
      <point x="196" y="67" type="curve" name="n07"/>
      <point x="183" y="0" type="line" name="n08"/>
      <point x="96" y="0"/>
      <point x="28" y="37"/>
      <point x="28" y="132" type="curve" smooth="yes" name="n11"/>
      <point x="28" y="267"/>
      <point x="119" y="361"/>
    </contour>
  </outline>
</glyph>
<glyph name="uni02D4" format="2">
  <advance width="415"/>
  <unicode hex="02D4"/>
  <outline>
    <contour>
      <point x="343" y="169" type="line" name="n00"/>
      <point x="329" y="101" type="line" name="n01"/>
      <point x="21" y="101" type="line"/>
      <point x="35" y="169" type="line"/>
      <point x="155" y="169" type="line"/>
      <point x="194" y="370" type="line" name="n05"/>
      <point x="263" y="370" type="line"/>
      <point x="224" y="169" type="line"/>
    </contour>
  </outline>
</glyph>
<glyph name="uni02D5" format="2">
  <advance width="415"/>
  <unicode hex="02D5"/>
  <outline>
    <contour>
      <point x="382" y="370" type="line"/>
      <point x="369" y="300" type="line"/>
      <point x="250" y="300" type="line"/>
      <point x="210" y="101" type="line" name="n03"/>
      <point x="141" y="101" type="line"/>
      <point x="181" y="300" type="line"/>
      <point x="61" y="300" type="line" name="n06"/>
      <point x="74" y="370" type="line" name="n07"/>
    </contour>
  </outline>
</glyph>
<glyph name="uni02D6" format="2">
  <advance width="243"/>
  <unicode hex="02D6"/>
  <outline>
    <contour>
      <point x="251" y="279" type="line" name="n00"/>
      <point x="239" y="222" type="line" name="n01"/>
      <point x="146" y="222" type="line" name="n02"/>
      <point x="128" y="127" type="line" name="n03"/>
      <point x="71" y="127" type="line"/>
      <point x="90" y="222" type="line" name="hr02"/>
      <point x="-4" y="222" type="line"/>
      <point x="7" y="279" type="line"/>
      <point x="102" y="279" type="line" name="n08"/>
      <point x="119" y="371" type="line" name="n09"/>
      <point x="175" y="371" type="line"/>
      <point x="157" y="279" type="line" name="hr04"/>
    </contour>
  </outline>
</glyph>
<glyph name="dotaccent" format="2">
  <advance width="136"/>
  <unicode hex="02D9"/>
  <outline>
    <contour>
      <point x="216" y="653" type="curve" smooth="yes" name="n00"/>
      <point x="216" y="616"/>
      <point x="187" y="585"/>
      <point x="149" y="585" type="curve" smooth="yes" name="n03"/>
      <point x="110" y="585"/>
      <point x="81" y="614"/>
      <point x="81" y="653" type="curve" smooth="yes" name="n06"/>
      <point x="81" y="693"/>
      <point x="108" y="726"/>
      <point x="148" y="726" type="curve" smooth="yes" name="n09"/>
      <point x="187" y="726"/>
      <point x="216" y="694"/>
    </contour>
  </outline>
</glyph>
<glyph name="hungarumlaut" format="2">
  <advance width="458"/>
  <unicode hex="02DD"/>
  <outline>
    <contour>
      <point x="544" y="681" type="curve" smooth="yes"/>
      <point x="544" y="668"/>
      <point x="533" y="647"/>
      <point x="519" y="639" type="curve" smooth="yes"/>
      <point x="357" y="551" type="line"/>
      <point x="287" y="551" type="line" name="n05"/>
      <point x="424" y="702" type="line" smooth="yes"/>
      <point x="446" y="727"/>
      <point x="460" y="734"/>
      <point x="487" y="734" type="curve" smooth="yes"/>
      <point x="530" y="734"/>
      <point x="544" y="705"/>
    </contour>
    <contour>
      <point x="315" y="681" type="curve" smooth="yes"/>
      <point x="315" y="668"/>
      <point x="304" y="647"/>
      <point x="290" y="639" type="curve" smooth="yes"/>
      <point x="128" y="551" type="line"/>
      <point x="58" y="551" type="line"/>
      <point x="195" y="702" type="line" smooth="yes"/>
      <point x="217" y="727"/>
      <point x="231" y="734"/>
      <point x="258" y="734" type="curve" smooth="yes" name="n21"/>
      <point x="301" y="734"/>
      <point x="315" y="705"/>
    </contour>
  </outline>
</glyph>
